<svg width="24" height="24" viewBox="0 0 24 24" fill="none" xmlns="http://www.w3.org/2000/svg">
<path d="M11 12C11 12.2652 11.1054 12.5196 11.2929 12.7071C11.4804 12.8946 11.7348 13 12 13C12.2652 13 12.5196 12.8946 12.7071 12.7071C12.8946 12.5196 13 12.2652 13 12C13 11.7348 12.8946 11.4804 12.7071 11.2929C12.5196 11.1054 12.2652 11 12 11C11.7348 11 11.4804 11.1054 11.2929 11.2929C11.1054 11.4804 11 11.7348 11 12Z" stroke="#0DBA4F" stroke-width="2" stroke-linecap="round" stroke-linejoin="round"/>
<path d="M12 7C11.0111 7 10.0444 7.29324 9.22215 7.84265C8.39991 8.39206 7.75904 9.17295 7.3806 10.0866C7.00217 11.0002 6.90315 12.0055 7.09608 12.9755C7.289 13.9454 7.76521 14.8363 8.46447 15.5355C9.16373 16.2348 10.0546 16.711 11.0246 16.9039C11.9945 17.0969 12.9998 16.9978 13.9134 16.6194C14.827 16.241 15.6079 15.6001 16.1574 14.7779C16.7068 13.9556 17 12.9889 17 12" stroke="#0DBA4F" stroke-width="2" stroke-linecap="round" stroke-linejoin="round"/>
<path d="M13 3.05514C11.1461 2.84715 9.2733 3.22042 7.64079 4.12331C6.00827 5.0262 4.69667 6.41409 3.88743 8.095C3.07818 9.77591 2.81128 11.6667 3.12365 13.506C3.43601 15.3452 4.31221 17.0419 5.63103 18.3614C6.94985 19.6809 8.64611 20.5579 10.4852 20.8712C12.3242 21.1845 14.2152 20.9186 15.8965 20.1102C17.5779 19.3018 18.9664 17.9909 19.8701 16.3588C20.7738 14.7267 21.148 12.8542 20.941 11.0001" stroke="#0DBA4F" stroke-width="2" stroke-linecap="round" stroke-linejoin="round"/>
<path d="M15 9V6L18 3V6H21L18 9H15ZM15 9L12 12" stroke="#0DBA4F" stroke-width="2" stroke-linecap="round" stroke-linejoin="round"/>
</svg>
