<svg width="24" height="24" viewBox="0 0 24 24" fill="none" xmlns="http://www.w3.org/2000/svg">
<path d="M13.855 1.48872C9.68901 1.53572 6.15601 5.38572 7.00401 8.71772C7.15001 8.79572 7.29101 8.89172 7.42501 8.99872C11.848 8.03172 16.154 7.25272 20.303 5.74672C20.096 5.21472 19.884 4.49872 19.595 4.20672C17.787 2.23572 15.755 1.46772 13.855 1.48872ZM21.485 6.20072C17.127 7.90472 12.647 8.73772 8.10201 9.71972C8.24301 9.92172 8.35701 10.1397 8.42601 10.3697C9.20901 10.3957 9.98601 10.4147 10.761 10.4257C10.869 9.88572 11.225 9.38172 11.821 9.13672L11.837 9.12972L11.853 9.12472C12.034 9.06672 12.223 9.04072 12.413 9.04672C12.594 9.05372 12.768 9.09072 12.925 9.15372C13.24 9.27772 13.493 9.48772 13.704 9.71672C13.91 9.94072 14.08 10.1897 14.222 10.4227C16.877 10.3757 19.502 10.2237 22.134 9.93972C22.133 9.76072 22.132 9.58572 22.129 9.41372C21.333 9.33972 20.398 9.39672 19.119 9.77272C20.189 9.21272 20.986 8.85772 21.968 8.86772C22.016 8.86772 22.065 8.86972 22.114 8.87172C22.093 8.36772 22.047 7.88772 21.943 7.42672C20.37 8.35672 19.016 8.52972 16.975 8.66272C19.33 8.16872 20.679 7.53372 21.782 6.86472C21.702 6.63572 21.602 6.41372 21.485 6.20072ZM6.21401 9.33572C6.18201 9.33572 6.16001 9.33972 6.14601 9.34472C5.92301 9.45772 5.68901 9.77672 5.58201 10.1627C5.47901 10.5397 5.50901 10.9437 5.62901 11.1787C5.84501 11.3927 6.29901 11.4797 6.76101 11.3887C7.21501 11.2997 7.56901 11.0267 7.64601 10.8857C7.64701 10.6067 7.41201 10.1317 7.04801 9.78872C6.85701 9.60872 6.64301 9.46672 6.46601 9.39472C6.37801 9.35872 6.30501 9.34272 6.24901 9.33772C6.23701 9.33672 6.22601 9.33572 6.21401 9.33572ZM12.39 9.88672C12.311 9.88372 12.227 9.89472 12.129 9.92372C11.745 10.0867 11.613 10.3187 11.574 10.6777C11.534 11.0407 11.65 11.5287 11.886 11.9827C12.122 12.4367 12.473 12.8547 12.83 13.1057C13.186 13.3567 13.509 13.4317 13.778 13.3407L14.049 14.1397C13.454 14.3417 12.84 14.1447 12.344 13.7957C11.848 13.4457 11.431 12.9357 11.137 12.3717C10.955 12.0207 10.818 11.6477 10.757 11.2717C9.98601 11.2597 9.21201 11.2417 8.43401 11.2157C8.33201 11.4607 8.16301 11.6537 7.95301 11.8047C8.22601 12.3597 8.55401 12.8827 8.94301 13.3707L9.06501 13.5227L9.02701 13.7147C8.74401 15.1677 8.37701 16.6497 7.29401 17.5857C8.78401 20.0517 10.614 22.0257 14.362 22.3967C14.714 21.1347 15.025 19.6847 17.197 18.1907L17.311 18.1137L17.448 18.1167C19.36 18.1727 20.344 17.8477 20.805 17.2497C21.008 16.9867 21.134 16.6327 21.188 16.1787L19.358 16.1417L19.375 15.2977L21.212 15.3357C21.195 14.9217 21.141 14.4537 21.052 13.9257L20.97 13.4417L22.667 13.4137C22.614 13.0927 22.48 12.6457 22.278 12.2307C21.987 11.6297 21.549 11.0637 21.382 10.9477L21.283 10.8777C18.928 11.1057 16.576 11.2287 14.203 11.2697C13.845 11.4527 13.936 11.4047 13.837 11.4597C13.642 11.1117 13.388 10.6207 13.082 10.2867C12.929 10.1207 12.768 9.99872 12.615 9.93772C12.541 9.90872 12.468 9.89072 12.389 9.88672H12.39ZM5.02401 11.7717C4.69801 12.4297 4.34701 13.1877 3.97001 13.9417C3.54501 14.7927 3.08901 15.6387 2.58701 16.3447C2.20601 16.8827 1.80001 17.3457 1.33301 17.6567C1.79501 18.3067 2.17601 18.8507 2.48801 19.3287C2.69201 18.7647 2.92901 18.1767 3.17901 17.5767C3.70401 16.3217 4.28701 15.0227 4.74301 13.8477C4.99701 13.1907 5.20901 12.5697 5.35101 12.0257C5.23101 11.9567 5.12101 11.8707 5.02401 11.7717ZM6.81001 12.2367C6.60001 12.2697 6.38101 12.2827 6.16501 12.2657C6.01101 12.8527 5.78801 13.4857 5.52901 14.1527C5.06201 15.3587 4.47601 16.6607 3.95801 17.9017C3.43901 19.1427 2.99001 20.3247 2.79301 21.2487C2.69501 21.7107 2.66301 22.1067 2.69801 22.3947C2.70401 22.4387 2.71201 22.4737 2.72001 22.5117C2.87001 22.4017 3.03101 22.3087 3.20201 22.2357C3.67801 22.0297 4.26901 21.8837 4.85801 21.7777C5.44801 21.6727 6.02901 21.6117 6.47401 21.5967C6.51901 21.5957 6.55701 21.5967 6.59901 21.5967C6.11201 18.8477 6.49701 14.9047 6.81001 12.2367Z" fill="#FF3D3D"/>
</svg>
