<svg width="24" height="24" viewBox="0 0 24 24" fill="none" xmlns="http://www.w3.org/2000/svg">
<path d="M19.94 9.06C19.5 5.73 16.57 3 13 3C9.46997 3 6.56997 5.61 6.07997 9L4.14997 12.48C3.73997 13.14 4.21997 14 4.99997 14H5.99997V16C5.99997 17.1 6.89997 18 7.99997 18H8.99997V21H16V16.32C18.75 15.011 20.341 12.079 19.94 9.06ZM14.89 14.63L14 15.05V19H11V16H7.99997V12H6.69997L8.02997 9.67C8.20997 7.06 10.35 5 13 5C15.76 5 18 7.24 18 10C18 12.09 16.71 13.88 14.89 14.63Z" fill="#FF3D3D"/>
<path d="M12.5 12.54C12.09 12.54 11.76 12.85 11.76 13.27C11.76 13.68 12.09 14.01 12.5 14.01C12.92 14.01 13.23 13.68 13.23 13.27C13.236 13.075 13.16 12.886 13.022 12.748C12.884 12.61 12.695 12.534 12.5 12.54ZM12.5 7C11.47 7 10.76 7.67 10.5 8.45L11.46 8.85C11.59 8.46 11.89 7.99 12.51 7.99C13.46 7.99 13.64 8.88 13.31 9.35C12.99 9.8 12.45 10.1 12.17 10.61C11.94 11.01 11.99 11.48 11.99 11.77H13.05C13.05 11.22 13.09 11.12 13.18 10.95C13.41 10.53 13.83 10.33 14.27 9.68C14.67 9.09 14.52 8.3 14.26 7.88C13.95 7.39 13.36 7 12.5 7Z" fill="#FF3D3D"/>
</svg>
