<svg width="24" height="24" viewBox="0 0 24 24" fill="none" xmlns="http://www.w3.org/2000/svg">
<path d="M3.03503 0.84375L4.01903 1.82775C4.41103 2.22275 4.56103 2.79775 4.41103 3.33375C4.26203 3.86975 3.83603 4.28375 3.29603 4.41875L4.16203 5.28475C4.91503 4.89075 5.43503 4.16275 5.56403 3.32275C5.69203 2.48275 5.41403 1.63275 4.81403 1.03075L4.62703 0.84375H3.03503ZM2.45603 1.33075C1.70303 1.72275 1.18203 2.44975 1.05303 3.28875C0.924033 4.12775 1.20303 4.97775 1.80403 5.57775L5.92903 9.69975C5.97403 9.27175 6.09303 8.85375 6.28103 8.46575L2.59903 4.78075C1.99903 4.17875 2.00003 3.20275 2.60203 2.60275C2.79603 2.39875 3.04703 2.25975 3.32203 2.20275L2.45603 1.33075ZM6.32203 2.53875C6.33403 2.64675 6.34103 2.75675 6.34203 2.86675C6.34903 3.24575 6.29203 3.62375 6.17503 3.98375L9.58803 7.39775C10.021 7.83575 10.153 8.48875 9.92303 9.06075C9.69403 9.63275 9.14703 10.0138 8.53103 10.0308C8.50903 10.3588 8.63003 10.6798 8.86203 10.9108L9.04903 11.0988C10.007 10.8948 10.776 10.1838 11.054 9.24475C11.333 8.30675 11.076 7.29175 10.385 6.59875L6.32203 2.53875ZM12.727 3.70575L12.684 5.99575L13.809 6.01775L13.852 3.72675L12.727 3.70575ZM16.571 4.24475L15.274 6.36175L16.234 6.94975L17.53 4.83175L16.571 4.24475ZM19.384 6.77075L17.288 7.74275L17.762 8.76375L19.858 7.79075L19.384 6.77075ZM8.47903 7.35175C8.20403 7.46775 7.94803 7.62475 7.71903 7.81675C7.65303 7.87175 7.58903 7.92975 7.52803 7.99075C6.44003 9.08175 6.35403 10.8188 7.32803 12.0118C7.39303 12.0918 7.46103 12.1678 7.53403 12.2397L11.854 16.5597C12.045 16.7507 12.261 16.9157 12.496 17.0497C12.241 16.5037 12.135 15.8997 12.187 15.2987L8.33103 11.4427C8.28503 11.3977 8.24203 11.3507 8.20103 11.3018C8.16203 11.2528 8.12403 11.2017 8.08903 11.1497C7.59503 10.4067 7.69303 9.41775 8.32403 8.78675C8.36103 8.74875 8.40003 8.71375 8.44003 8.68075C8.67603 8.48175 8.95703 8.34375 9.25903 8.27975C9.22303 8.14675 9.15303 8.02575 9.05603 7.92775L8.47903 7.35175ZM11.824 7.71675C11.915 8.11675 11.935 8.52875 11.882 8.93575L12.697 9.23375C12.889 9.31675 13.11 9.28675 13.273 9.15675C13.435 9.02575 13.512 8.81675 13.473 8.61175C13.434 8.40675 13.284 8.24075 13.085 8.17975V8.18175L11.824 7.71675ZM18.279 10.1558L18.245 11.2808L20.384 11.3457L20.418 10.2207L18.279 10.1558ZM15.412 10.6648C15.229 10.6637 15.057 10.7528 14.951 10.9028C14.845 11.0527 14.819 11.2448 14.881 11.4178L15.742 13.7858C15.99 14.4738 15.817 15.2418 15.3 15.7578L15.296 15.7627C15.189 15.8687 15.07 15.9628 14.941 16.0408C14.968 16.0798 14.998 16.1158 15.031 16.1488L15.74 16.8587C15.865 16.7677 15.982 16.6668 16.091 16.5578L16.095 16.5538C16.921 15.7278 17.195 14.4987 16.798 13.3997L15.935 11.0297C15.909 10.9587 15.87 10.8948 15.819 10.8398C15.726 10.7428 15.602 10.6818 15.469 10.6678C15.45 10.6658 15.431 10.6648 15.412 10.6648ZM14.689 13.0898C13.832 13.4018 13.195 14.1298 12.997 15.0198C12.799 15.9088 13.068 16.8377 13.711 17.4837L13.912 17.6847L17.709 21.4818C17.661 20.9978 17.711 20.5077 17.856 20.0427V20.0408L15.405 17.5898L14.504 16.6887C14.139 16.3217 13.982 15.7957 14.086 15.2887C14.189 14.7807 14.54 14.3588 15.02 14.1648C15.02 14.1597 15.017 14.1547 15.015 14.1497L15.027 14.1617C15.058 14.1497 15.089 14.1378 15.121 14.1278C15.121 14.1248 15.121 14.1208 15.121 14.1178C15.101 14.1237 15.081 14.1298 15.061 14.1368C15.056 14.1088 15.047 14.0758 15.036 14.0448L14.689 13.0898ZM17.695 13.9097L17.692 13.9128C17.716 14.0898 17.727 14.2677 17.726 14.4458C17.723 14.6068 17.711 14.7678 17.691 14.9278C17.67 15.0888 17.638 15.2468 17.597 15.4038L20.048 17.8547L21.497 19.3038C21.89 19.6978 22.04 20.2738 21.89 20.8097C21.741 21.3457 21.315 21.7607 20.774 21.8948L21.641 22.7617C22.393 22.3667 22.913 21.6388 23.042 20.7997C23.17 19.9597 22.892 19.1097 22.293 18.5077L21.491 17.7068L17.695 13.9097ZM19.805 18.6728C19.565 18.7968 19.346 18.9578 19.156 19.1497C18.115 20.1927 18.114 21.8818 19.153 22.9258L19.383 23.1558H20.973L19.947 22.1308C19.555 21.7358 19.405 21.1597 19.555 20.6238C19.705 20.0878 20.131 19.6728 20.672 19.5387L19.805 18.6728Z" fill="#FF3D3D"/>
</svg>
