<svg width="24" height="24" viewBox="0 0 24 24" fill="none" xmlns="http://www.w3.org/2000/svg">
<path d="M21.19 21.1896L2.81001 2.80957L1.39001 4.21957L3.30001 6.12957C2.54001 6.40957 2.00001 7.14957 2.00001 7.99957V15.9996C2.00001 17.0996 2.90001 17.9996 4.00001 17.9996H15.17L19.78 22.6096L21.19 21.1896ZM9.00001 12.9996V14.9996H7.00001V12.9996H5.00001V10.9996H7.00001V9.82957L10.17 12.9996H9.00001ZM20.7 17.8696C21.46 17.5896 22 16.8496 22 15.9996V7.99957C22 6.89957 21.1 5.99957 20 5.99957H8.83001L20.7 17.8696ZM17.5 8.99957C18.33 8.99957 19 9.66957 19 10.4996C19 11.3296 18.33 11.9996 17.5 11.9996C16.67 11.9996 16 11.3296 16 10.4996C16 9.66957 16.67 8.99957 17.5 8.99957Z" fill="#FF3E3D"/>
</svg>
