<svg width="40" height="40" viewBox="0 0 40 40" fill="none" xmlns="http://www.w3.org/2000/svg">
<path d="M20 35C18.0302 35 16.0796 34.612 14.2597 33.8582C12.4399 33.1044 10.7863 31.9995 9.3934 30.6066C8.00052 29.2137 6.89563 27.5601 6.14181 25.7403C5.38799 23.9204 5 21.9698 5 20C5 18.0302 5.38799 16.0796 6.14181 14.2597C6.89563 12.4399 8.00052 10.7863 9.3934 9.3934C10.7863 8.00052 12.4399 6.89563 14.2597 6.14181C16.0796 5.38799 18.0302 5 20 5C23.9782 5 27.7936 6.58035 30.6066 9.3934C33.4196 12.2064 35 16.0218 35 20C35 23.9782 33.4196 27.7936 30.6066 30.6066C27.7936 33.4196 23.9782 35 20 35Z" stroke="#FD8A24" stroke-width="3.33333" stroke-linecap="round" stroke-linejoin="round"/>
<path d="M16.6666 16.667C15.8333 15.0003 12.5 15.0003 11.6666 16.667M28.3333 16.667C27.5 15.0003 24.1666 15.0003 23.3333 16.667M24.1666 25.0003C23.6235 25.5547 22.9752 25.995 22.2597 26.2957C21.5443 26.5963 20.776 26.7512 20 26.7512C19.2239 26.7512 18.4556 26.5963 17.7402 26.2957C17.0247 25.995 16.3764 25.5547 15.8333 25.0003" stroke="#FD8A24" stroke-width="3.33333" stroke-linecap="round" stroke-linejoin="round"/>
</svg>
