<svg width="40" height="40" viewBox="0 0 40 40" fill="none" xmlns="http://www.w3.org/2000/svg">
<path d="M20 13.3337C19.1159 13.3337 18.2681 12.9825 17.643 12.3573C17.0179 11.7322 16.6667 10.8844 16.6667 10.0003C16.6667 9.11627 17.0179 8.26842 17.643 7.6433C18.2681 7.01818 19.1159 6.66699 20 6.66699C20.8841 6.66699 21.7319 7.01818 22.357 7.6433C22.9821 8.26842 23.3333 9.11627 23.3333 10.0003C23.3333 10.8844 22.9821 11.7322 22.357 12.3573C21.7319 12.9825 20.8841 13.3337 20 13.3337ZM20 13.3337V26.667M20 26.667C20.8841 26.667 21.7319 27.0182 22.357 27.6433C22.9821 28.2684 23.3333 29.1163 23.3333 30.0003C23.3333 30.8844 22.9821 31.7322 22.357 32.3573C21.7319 32.9825 20.8841 33.3337 20 33.3337C19.1159 33.3337 18.2681 32.9825 17.643 32.3573C17.0179 31.7322 16.6667 30.8844 16.6667 30.0003C16.6667 29.1163 17.0179 28.2684 17.643 27.6433C18.2681 27.0182 19.1159 26.667 20 26.667ZM10.5267 20.827L17.8067 12.507M29.4733 20.827L22.1967 12.5103M11.6667 23.3337C11.6667 22.4496 11.3155 21.6018 10.6904 20.9766C10.0652 20.3515 9.21739 20.0003 8.33333 20.0003C7.44928 20.0003 6.60143 20.3515 5.97631 20.9766C5.35119 21.6018 5 22.4496 5 23.3337C5 24.2177 5.35119 25.0656 5.97631 25.6907C6.60143 26.3158 7.44928 26.667 8.33333 26.667C9.21739 26.667 10.0652 26.3158 10.6904 25.6907C11.3155 25.0656 11.6667 24.2177 11.6667 23.3337ZM35 23.3337C35 22.4496 34.6488 21.6018 34.0237 20.9766C33.3986 20.3515 32.5507 20.0003 31.6667 20.0003C30.7826 20.0003 29.9348 20.3515 29.3096 20.9766C28.6845 21.6018 28.3333 22.4496 28.3333 23.3337C28.3333 24.2177 28.6845 25.0656 29.3096 25.6907C29.9348 26.3158 30.7826 26.667 31.6667 26.667C32.5507 26.667 33.3986 26.3158 34.0237 25.6907C34.6488 25.0656 35 24.2177 35 23.3337Z" stroke="#27B4FF" stroke-width="3.33333" stroke-linecap="round" stroke-linejoin="round"/>
</svg>
