<svg width="40" height="40" viewBox="0 0 40 40" fill="none" xmlns="http://www.w3.org/2000/svg">
<path d="M18.6951 32.3063C19.1714 33.5891 20.0834 34.6636 21.2716 35.3421C22.4598 36.0206 23.8487 36.2599 25.1955 36.0183C26.5423 35.7767 27.7614 35.0694 28.6396 34.0201C29.5178 32.9708 29.9994 31.6463 30.0001 30.278V21.6663L20.0001 16.083" stroke="#27B4FF" stroke-width="3.33333" stroke-linecap="round" stroke-linejoin="round"/>
<path d="M8.68996 25.0233C7.81657 26.0772 7.34146 27.4046 7.34772 28.7733C7.35397 30.142 7.8412 31.465 8.72419 32.5108C9.60718 33.5567 10.8297 34.2588 12.178 34.4945C13.5263 34.7302 14.9146 34.4843 16.1 33.8L23.3333 29.5767V18" stroke="#27B4FF" stroke-width="3.33333" stroke-linecap="round" stroke-linejoin="round"/>
<path d="M10 12.7169C7.68169 12.3236 5.35503 13.3753 4.11003 15.5319C3.34245 16.8616 3.13441 18.4417 3.53165 19.9247C3.9289 21.4078 4.89891 22.6723 6.22836 23.4403L13.3334 27.6303L23.3334 22.0503" stroke="#27B4FF" stroke-width="3.33333" stroke-linecap="round" stroke-linejoin="round"/>
<path d="M21.305 7.69333C20.8287 6.41062 19.9167 5.3361 18.7284 4.65759C17.5402 3.97908 16.1513 3.73973 14.8045 3.98137C13.4577 4.22301 12.2387 4.93027 11.3605 5.97955C10.4823 7.02882 10.0007 8.35336 10 9.72166V18.1667L20 23.9167" stroke="#27B4FF" stroke-width="3.33333" stroke-linecap="round" stroke-linejoin="round"/>
<path d="M31.3101 14.9763C32.1835 13.9224 32.6586 12.595 32.6523 11.2263C32.6461 9.85758 32.1588 8.53461 31.2759 7.48877C30.3929 6.44292 29.1703 5.74078 27.822 5.50512C26.4737 5.26946 25.0855 5.51528 23.9001 6.19961L16.6667 10.4229V21.9996" stroke="#27B4FF" stroke-width="3.33333" stroke-linecap="round" stroke-linejoin="round"/>
<path d="M30.0001 27.1702C32.3184 27.5635 34.6451 26.5118 35.8901 24.3552C36.6577 23.0255 36.8657 21.4454 36.4685 19.9624C36.0712 18.4793 35.1012 17.2148 33.7717 16.4468L26.5917 12.2568L16.6667 17.9568" stroke="#27B4FF" stroke-width="3.33333" stroke-linecap="round" stroke-linejoin="round"/>
</svg>
