<svg width="40" height="40" viewBox="0 0 40 40" fill="none" xmlns="http://www.w3.org/2000/svg">
<path d="M26.6667 29.9998C27.5507 29.9998 28.3986 30.351 29.0237 30.9761C29.6488 31.6013 30 32.4491 30 33.3332C30 32.4491 30.3512 31.6013 30.9763 30.9761C31.6014 30.351 32.4493 29.9998 33.3333 29.9998C32.4493 29.9998 31.6014 29.6486 30.9763 29.0235C30.3512 28.3984 30 27.5506 30 26.6665C30 27.5506 29.6488 28.3984 29.0237 29.0235C28.3986 29.6486 27.5507 29.9998 26.6667 29.9998ZM26.6667 9.99984C27.5507 9.99984 28.3986 10.351 29.0237 10.9761C29.6488 11.6013 30 12.4491 30 13.3332C30 12.4491 30.3512 11.6013 30.9763 10.9761C31.6014 10.351 32.4493 9.99984 33.3333 9.99984C32.4493 9.99984 31.6014 9.64865 30.9763 9.02353C30.3512 8.39841 30 7.55056 30 6.6665C30 7.55056 29.6488 8.39841 29.0237 9.02353C28.3986 9.64865 27.5507 9.99984 26.6667 9.99984ZM15 29.9998C15 27.3477 16.0536 24.8041 17.9289 22.9288C19.8043 21.0534 22.3478 19.9998 25 19.9998C22.3478 19.9998 19.8043 18.9463 17.9289 17.0709C16.0536 15.1955 15 12.652 15 9.99984C15 12.652 13.9464 15.1955 12.0711 17.0709C10.1957 18.9463 7.65217 19.9998 5 19.9998C7.65217 19.9998 10.1957 21.0534 12.0711 22.9288C13.9464 24.8041 15 27.3477 15 29.9998Z" stroke="#FF8926" stroke-width="3.33333" stroke-linecap="round" stroke-linejoin="round"/>
</svg>
