<svg width="40" height="40" viewBox="0 0 40 40" fill="none" xmlns="http://www.w3.org/2000/svg">
<path d="M18.3335 19.9997C18.3335 20.4417 18.5091 20.8656 18.8217 21.1782C19.1342 21.4907 19.5581 21.6663 20.0002 21.6663C20.4422 21.6663 20.8661 21.4907 21.1787 21.1782C21.4912 20.8656 21.6668 20.4417 21.6668 19.9997C21.6668 19.5576 21.4912 19.1337 21.1787 18.8212C20.8661 18.5086 20.4422 18.333 20.0002 18.333C19.5581 18.333 19.1342 18.5086 18.8217 18.8212C18.5091 19.1337 18.3335 19.5576 18.3335 19.9997Z" stroke="#FD8926" stroke-width="3.33333" stroke-linecap="round" stroke-linejoin="round"/>
<path d="M20.0001 11.667C18.3519 11.667 16.7407 12.1557 15.3703 13.0714C13.9999 13.9871 12.9318 15.2886 12.3011 16.8113C11.6704 18.334 11.5053 20.0096 11.8269 21.6261C12.1484 23.2426 12.9421 24.7274 14.1075 25.8929C15.273 27.0583 16.7578 27.852 18.3743 28.1735C19.9908 28.4951 21.6664 28.3301 23.1891 27.6993C24.7118 27.0686 26.0133 26.0005 26.929 24.6301C27.8447 23.2597 28.3334 21.6485 28.3334 20.0003" stroke="#FD8926" stroke-width="3.33333" stroke-linecap="round" stroke-linejoin="round"/>
<path d="M21.6667 5.09158C18.5768 4.74493 15.4556 5.36704 12.7347 6.87186C10.0139 8.37668 7.82787 10.6898 6.47913 13.4913C5.13038 16.2929 4.68555 19.4443 5.20616 22.5096C5.72677 25.575 7.18709 28.4029 9.38513 30.602C11.5832 32.8011 14.4103 34.2629 17.4754 34.785C20.5405 35.3072 23.6921 34.8639 26.4943 33.5166C29.2965 32.1693 31.6107 29.9844 33.1169 27.2643C34.6231 24.5442 35.2468 21.4233 34.9017 18.3332" stroke="#FD8926" stroke-width="3.33333" stroke-linecap="round" stroke-linejoin="round"/>
<path d="M25 15V10L30 5V10H35L30 15H25ZM25 15L20 20" stroke="#FD8926" stroke-width="3.33333" stroke-linecap="round" stroke-linejoin="round"/>
</svg>
