<svg width="40" height="40" viewBox="0 0 40 40" fill="none" xmlns="http://www.w3.org/2000/svg">
<path d="M11.667 21.6673V8.33326C11.667 7.41326 10.92 6.66726 10 6.66726H6.667C5.746 6.66726 5 7.41326 5 8.33326V20.0003C5 20.9203 5.746 21.6673 6.667 21.6673H11.667ZM11.667 21.6673C15.349 21.6673 18.333 24.6513 18.333 28.3333V30.0003C18.333 31.8413 19.826 33.3333 21.667 33.3333C23.508 33.3333 25 31.8413 25 30.0003V21.6673H30C31.841 21.6673 33.333 20.1743 33.333 18.3333L31.667 10.0003C31.174 7.90026 29.815 6.54126 28.333 6.66726H16.667C13.905 6.66726 11.667 8.90526 11.667 11.6673" stroke="#FF3D3D" stroke-width="3" stroke-linecap="round" stroke-linejoin="round"/>
</svg>
