<svg width="24" height="24" viewBox="0 0 24 24" fill="none" xmlns="http://www.w3.org/2000/svg">
<g clip-path="url(#clip0_1_346)">
<path d="M1.5 0.000362762L0 1.50036L3.3 6.12186C3.43893 6.31648 3.62236 6.47506 3.83502 6.58439C4.04768 6.69372 4.28339 6.75063 4.5225 6.75036H4.6275C4.82472 6.75021 5.02003 6.78895 5.20226 6.86436C5.3845 6.93978 5.55007 7.05039 5.6895 7.18986L9.702 11.2024L5.7765 15.1834C5.10509 14.9857 4.39686 14.9473 3.708 15.071C3.01913 15.1948 2.36858 15.4773 1.80795 15.8963C1.24732 16.3153 0.792031 16.8592 0.478205 17.4848C0.164379 18.1104 0.000648302 18.8005 0 19.5004C0.000899195 20.1453 0.140406 20.7825 0.409067 21.3687C0.677729 21.955 1.06927 22.4767 1.55716 22.8985C2.04505 23.3202 2.61789 23.6322 3.23687 23.8132C3.85586 23.9942 4.50652 24.0401 5.14477 23.9477C5.78303 23.8553 6.39396 23.6267 6.93619 23.2776C7.47842 22.9285 7.93926 22.4669 8.28751 21.9241C8.63576 21.3813 8.86326 20.7699 8.95462 20.1315C9.04597 19.4931 8.99904 18.8425 8.817 18.2239L12.798 14.2984L14.25 15.7504L13.7925 17.1214C13.7046 17.3856 13.692 17.6691 13.7561 17.9402C13.8202 18.2112 13.9585 18.459 14.1555 18.6559L19.0605 23.5609C19.1995 23.7006 19.3647 23.8116 19.5467 23.8873C19.7287 23.9629 19.9239 24.0019 20.121 24.0019C20.3181 24.0019 20.5133 23.9629 20.6953 23.8873C20.8773 23.8116 21.0425 23.7006 21.1815 23.5609L23.5605 21.1819C23.7003 21.0429 23.8112 20.8776 23.8869 20.6956C23.9626 20.5136 24.0016 20.3185 24.0016 20.1214C24.0016 19.9242 23.9626 19.7291 23.8869 19.5471C23.8112 19.3651 23.7003 19.1998 23.5605 19.0609L18.6555 14.1559C18.4586 13.9589 18.2108 13.8206 17.9398 13.7565C17.6688 13.6923 17.3853 13.705 17.121 13.7929L15.75 14.2504L14.31 12.8104L18.33 8.84586C18.9969 9.02388 19.6957 9.04636 20.3727 8.91158C21.0496 8.7768 21.6866 8.48836 22.2344 8.06849C22.7823 7.64862 23.2264 7.10855 23.5325 6.48991C23.8386 5.87127 23.9985 5.19059 24 4.50036C24 4.09686 23.9475 3.70536 23.847 3.33486L20.637 6.54636L18 6.00036L17.454 3.36486L20.6655 0.153363C19.9015 -0.0520453 19.0969 -0.0524288 18.3328 0.152251C17.5686 0.356931 16.8719 0.759441 16.3129 1.31921C15.7539 1.87897 15.3524 2.57621 15.1487 3.34064C14.9451 4.10508 14.9466 4.90968 15.153 5.67336L11.193 9.69036L7.1895 5.68986C6.90818 5.40862 6.75008 5.02715 6.75 4.62936V4.52286C6.75002 4.284 6.693 4.04859 6.58368 3.83622C6.47437 3.62384 6.31591 3.44064 6.1215 3.30186L1.5 0.000362762ZM15.969 15.9694C16.0387 15.8995 16.1214 15.8441 16.2126 15.8063C16.3037 15.7685 16.4013 15.749 16.5 15.749C16.5987 15.749 16.6963 15.7685 16.7874 15.8063C16.8786 15.8441 16.9613 15.8995 17.031 15.9694L21.402 20.3419C21.5386 20.4833 21.6142 20.6728 21.6125 20.8694C21.6108 21.0661 21.5319 21.2542 21.3929 21.3932C21.2538 21.5323 21.0657 21.6112 20.8691 21.6129C20.6724 21.6146 20.483 21.539 20.3415 21.4024L15.969 17.0314C15.8992 16.9617 15.8437 16.8789 15.8059 16.7878C15.7681 16.6967 15.7487 16.599 15.7487 16.5004C15.7487 16.4017 15.7681 16.304 15.8059 16.2129C15.8437 16.1218 15.8992 16.039 15.969 15.9694ZM4.5 16.5004L5.2065 16.8634L6 16.9024L6.4305 17.5699L7.098 18.0004L7.137 18.7939L7.5 19.5004L7.137 20.2069L7.098 21.0004L6.4305 21.4309L6 22.0984L5.2065 22.1374L4.5 22.5004L3.7935 22.1374L3 22.0984L2.5695 21.4309L1.902 21.0004L1.863 20.2069L1.5 19.5004L1.863 18.7939L1.902 18.0004L2.5695 17.5699L3 16.9024L3.7935 16.8634L4.5 16.5004Z" fill="#0DB94F"/>
</g>
<defs>
<clipPath id="clip0_1_346">
<rect width="24" height="24" fill="white"/>
</clipPath>
</defs>
</svg>
