<svg width="264px" height="210px" viewBox="0 0 220 175" xmlns="http://www.w3.org/2000/svg">
  <defs>
    <style>
      @keyframes floatCloud1 {
        0%   { transform: translateX(0px); }
        50%  { transform: translateX(6px); }
        100% { transform: translateX(0px); }
      }
      @keyframes floatCloud2 {
        0%   { transform: translateX(0px); }
        50%  { transform: translateX(-8px); }
        100% { transform: translateX(0px); }
      }
      @keyframes waveFlag {
        0%   { d: path("M139.35587,26.7926337 C139.504907,22.9509696 139.129975,15.9658085 138.863647,12.0654984 L139.150693,12.4089966 C144.284115,12.6376463 148.61521,12.7029249 153.765339,12.2924027 C163.873121,11.4863689 153.030848,21.4111622 150.579089,23.5950287 C152.481149,24.9330658 156.558947,27.7110724 157.283414,30.1550061 C157.404715,31.7939532 156.283596,32.5099234 154.949949,32.6010342 C153.690487,32.6869088 152.427348,32.8949626 151.282504,33.0230762 C145.424281,33.678655 138.594311,34.3604151 132.737759,34.1450306 C131.464262,34.2965329 130.593431,32.8858864 130.019004,31.9081035 C129.938136,30.1742057 130.144315,28.5439856 130.099538,26.8257966 C131.077634,26.6442732 137.782293,26.8146259 139.35587,26.7926337 Z"); }
        25%  { d: path("M139.35587,26.7926337 C139.504907,22.9509696 139.129975,15.9658085 138.863647,12.0654984 L139.150693,12.4089966 C145.5,13.2 150,11.8 154.5,11.0 C164.873121,10.4863689 155.030848,20.8 151.5,23.2 C153.7,24.7 157.5,27.2 158.5,29.8 C158.7,31.5 157.5,32.5 155.8,32.8 C154.4,33.0 153.0,33.2 151.6,33.4 C145.4,34.0 138.3,34.5 132.737759,34.1450306 C131.464262,34.2965329 130.593431,32.8858864 130.019004,31.9081035 C129.938136,30.1742057 130.144315,28.5439856 130.099538,26.8257966 C131.077634,26.6442732 137.782293,26.8146259 139.35587,26.7926337 Z"); }
        50%  { d: path("M139.35587,26.7926337 C139.504907,22.9509696 139.129975,15.9658085 138.863647,12.0654984 L139.150693,12.4089966 C146.2,13.8 151.5,11.5 156,10.5 C165.873121,9.5 156.8,20.5 152.5,23.0 C154.8,24.6 158.3,27.0 159.3,29.5 C159.5,31.2 158.2,32.3 156.4,32.7 C155.0,33.0 153.5,33.3 152.0,33.5 C145.6,34.2 138.1,34.7 132.737759,34.1450306 C131.464262,34.2965329 130.593431,32.8858864 130.019004,31.9081035 C129.938136,30.1742057 130.144315,28.5439856 130.099538,26.8257966 C131.077634,26.6442732 137.782293,26.8146259 139.35587,26.7926337 Z"); }
        75%  { d: path("M139.35587,26.7926337 C139.504907,22.9509696 139.129975,15.9658085 138.863647,12.0654984 L139.150693,12.4089966 C145.5,13.2 150,11.8 154.5,11.0 C164.873121,10.4863689 155.030848,20.8 151.5,23.2 C153.7,24.7 157.5,27.2 158.5,29.8 C158.7,31.5 157.5,32.5 155.8,32.8 C154.4,33.0 153.0,33.2 151.6,33.4 C145.4,34.0 138.3,34.5 132.737759,34.1450306 C131.464262,34.2965329 130.593431,32.8858864 130.019004,31.9081035 C129.938136,30.1742057 130.144315,28.5439856 130.099538,26.8257966 C131.077634,26.6442732 137.782293,26.8146259 139.35587,26.7926337 Z"); }
        100% { d: path("M139.35587,26.7926337 C139.504907,22.9509696 139.129975,15.9658085 138.863647,12.0654984 L139.150693,12.4089966 C144.284115,12.6376463 148.61521,12.7029249 153.765339,12.2924027 C163.873121,11.4863689 153.030848,21.4111622 150.579089,23.5950287 C152.481149,24.9330658 156.558947,27.7110724 157.283414,30.1550061 C157.404715,31.7939532 156.283596,32.5099234 154.949949,32.6010342 C153.690487,32.6869088 152.427348,32.8949626 151.282504,33.0230762 C145.424281,33.678655 138.594311,34.3604151 132.737759,34.1450306 C131.464262,34.2965329 130.593431,32.8858864 130.019004,31.9081035 C129.938136,30.1742057 130.144315,28.5439856 130.099538,26.8257966 C131.077634,26.6442732 137.782293,26.8146259 139.35587,26.7926337 Z"); }
      }
      @keyframes waveFlagDark {
        0%   { d: path("M138.733578,12.0654984 L139.016412,12.409452 C140.958717,15.7668448 142.600736,20.0110366 141.786476,24.0829021 C141.035764,27.8363308 137.405672,30.3611041 134.682363,32.5531093 C134.114061,33.0106655 133.0331,33.5867179 132.697584,34.1743053 C131.442775,34.3260084 130.584723,32.9134916 130.018725,31.9344123 C129.939044,30.1982155 130.142198,28.565834 130.098077,26.8453669 C131.061821,26.6636028 137.668093,26.8341814 139.218578,26.81216 C139.365428,22.9654024 138.995998,15.9709798 138.733578,12.0654984 Z"); }
        25%  { d: path("M138.733578,12.0654984 L139.016412,12.409452 C141.5,16.0 143.5,20.3 142.5,24.2 C141.6,28.0 137.8,30.5 134.9,32.7 C134.3,33.2 133.1,33.8 132.7,34.2 C131.3,34.4 130.4,32.9 129.9,31.9 C129.8,30.1 130.0,28.5 130.0,26.8 C131.1,26.6 137.8,26.8 139.4,26.8 C139.5,22.9 139.1,15.9 138.733578,12.0654984 Z"); }
        50%  { d: path("M138.733578,12.0654984 L139.016412,12.409452 C142.2,16.2 144.3,20.5 143.2,24.5 C142.2,28.2 138.3,30.8 135.2,33.0 C134.5,33.5 133.2,34.1 132.8,34.5 C131.4,34.6 130.3,33.1 129.8,32.0 C129.7,30.2 129.9,28.5 129.9,26.8 C131.0,26.6 137.7,26.8 139.3,26.8 C139.5,22.9 139.0,15.9 138.733578,12.0654984 Z"); }
        75%  { d: path("M138.733578,12.0654984 L139.016412,12.409452 C141.5,16.0 143.5,20.3 142.5,24.2 C141.6,28.0 137.8,30.5 134.9,32.7 C134.3,33.2 133.1,33.8 132.7,34.2 C131.3,34.4 130.4,32.9 129.9,31.9 C129.8,30.1 130.0,28.5 130.0,26.8 C131.1,26.6 137.8,26.8 139.4,26.8 C139.5,22.9 139.1,15.9 138.733578,12.0654984 Z"); }
        100% { d: path("M138.733578,12.0654984 L139.016412,12.409452 C140.958717,15.7668448 142.600736,20.0110366 141.786476,24.0829021 C141.035764,27.8363308 137.405672,30.3611041 134.682363,32.5531093 C134.114061,33.0106655 133.0331,33.5867179 132.697584,34.1743053 C131.442775,34.3260084 130.584723,32.9134916 130.018725,31.9344123 C129.939044,30.1982155 130.142198,28.565834 130.098077,26.8453669 C131.061821,26.6636028 137.668093,26.8341814 139.218578,26.81216 C139.365428,22.9654024 138.995998,15.9709798 138.733578,12.0654984 Z"); }
      }

      .cloud-left  { animation: floatCloud1 4.5s ease-in-out infinite; transform-origin: 22px 73px; }
      .cloud-right { animation: floatCloud2 5.85s ease-in-out infinite; transform-origin: 183px 53px; }
      .flag-main   { animation: waveFlag 1.8s ease-in-out infinite; }
      .flag-dark   { animation: waveFlagDark 1.8s ease-in-out infinite; }
    </style>
  </defs>

  <g id="Page-1" stroke="none" stroke-width="1" fill="none" fill-rule="evenodd">
    <g id="Full-Screen-Copy-52" transform="translate(-291, -134)">
      <g id="Group" transform="translate(274, 134)">
        <g transform="translate(17, 0)" fill-rule="nonzero" id="Path">

          <!-- Mountain body -->
          <path d="M115.207212,43.2719167 C123.091314,42.7640399 130.830436,47.5106548 135.143163,54.0775634 C136.711209,56.4649977 137.66986,59.152541 138.98839,61.6757307 C140.762767,65.4331229 143.245592,69.7421506 144.693336,73.5495036 C146.737109,77.9222743 149.111285,83.5719727 151.305864,87.7307736 C155.420143,85.5001127 159.394584,84.1969988 164.088783,85.5655785 C167.900763,86.6767743 171.848127,90.1133841 173.637585,93.6399233 C174.2744,94.8947992 175.953838,98.0567973 175.999765,99.3192535 C176.348677,99.6441706 179.71612,107.588273 180.156202,108.617809 C183.221689,115.723949 186.325564,122.812861 189.468511,129.884545 L192.163494,135.954258 C192.597064,136.931766 193.467629,138.755506 193.689726,139.689944 C194.98632,141.886838 198.880902,152.32312 199.64933,153.066329 L200.191891,152.830307 C201.783587,151.638141 205.22472,150.884251 207.173896,151.236732 C215.403482,152.724184 219.426935,162.555769 220,169.95616 C218.874777,171.626572 216.9304,173.410687 215.3932,174.759282 C213.806988,174.844388 211.752591,174.860927 210.158839,174.770997 L189.450689,174.886424 L152.846491,174.859204 C139.322221,174.679001 125.310228,174.834396 111.767449,174.857137 C105.820527,175.056635 98.7946513,174.872642 92.7606722,174.866095 L58.4593604,174.869885 L38.7523607,174.853691 C36.3819546,174.856103 30.6790646,175.017355 28.5173886,174.781334 L28.1249486,174.765484 C25.9032927,174.894349 9.25331484,175.009086 8.01179922,174.649024 C6.71218877,173.285613 5.14253163,171.322328 4,169.819027 C4.06824,166.070248 7.00310848,162.080969 9.82093045,159.798625 C13.3196101,156.965334 16.8980802,156.045023 21.3297388,156.532915 C21.7177231,156.349266 23.1860313,153.752686 23.9160726,152.896807 C23.9109314,152.542258 23.930125,152.475759 24.087101,152.140849 C26.7711163,146.412592 29.3512808,140.663317 31.91705,134.881653 L36.7877616,124.032248 C37.5260286,122.380098 38.2889731,120.414056 39.075224,118.828406 C39.6503457,117.291338 40.3423425,116.030604 40.9603069,114.59587 C43.176479,109.449913 45.59624,106.616967 50.1166689,103.31439 C53.9903429,100.484889 58.6307316,99.364735 63.3948503,99.395056 C64.1413431,99.3998798 67.3905406,100.026629 68.337195,100.183402 C69.4158052,97.9541193 70.298024,95.6710858 71.2532469,93.3859849 C72.594055,90.2439711 73.9520002,87.1095377 75.3274253,83.9826844 C76.1558335,82.0838317 77.095633,79.7618633 77.9967027,77.9277872 C79.5088819,74.3016712 81.2702349,70.5384215 82.9195111,66.9598542 C85.3142519,61.7635927 87.8807066,55.9512635 91.1011138,51.2349696 C95.639708,45.6410895 102.211793,43.2650256 109.234241,43.2953466 C109.248293,45.4343554 109.171519,48.2717809 109.338777,50.3287851 L109.375793,50.9755183 C110.874948,50.122051 112.200333,49.5307915 113.937694,49.3402516 C114.26844,49.2778868 114.600215,49.2196567 114.932332,49.1648722 C115.322373,48.6993759 115.205155,44.2149687 115.207212,43.2719167 Z" fill="#2F97D1"/>
          <path d="M39.1113979,118.936781 C39.6871127,117.402681 40.3798232,116.144382 40.998425,114.712418 C43.2168826,109.576399 45.6391392,106.748924 50.1642301,103.452724 C54.0418991,100.628688 58.6870736,99.5106964 63.4561056,99.540362 C64.2033683,99.5457734 67.4559168,100.171312 68.4035475,100.327783 C75.1656232,101.729828 81.9729875,104.820724 87.8416417,108.441902 C89.8216477,109.664092 92.5478872,111.158988 92.067553,113.870572 C95.9133142,116.220382 100.916338,120.009379 104.560015,122.844764 C106.040474,124.373017 110.012151,127.025108 111.007129,128.227353 C112.788826,127.279932 115.227551,126.069778 117.141682,125.460746 C124.669205,123.065198 132.692158,123.364384 139.795271,126.856945 C140.877738,129.320584 141.474039,132.27977 142.369176,134.844512 C144.524847,141.019427 146.326786,147.295103 148.134558,153.578687 C148.243663,153.958 148.561712,154.73485 148.5648,155.093185 L148.666357,155.202543 C149.17654,157.308878 153.050778,173.507541 152.732728,174.603523 L152.714201,174.703596 L153,174.859379 C139.461782,174.679523 125.435338,174.834618 111.878592,174.857315 C105.925537,175.056428 98.8924153,174.87279 92.8522132,174.866257 L58.5155257,174.870039 L38.7882016,174.853876 C36.4153509,174.856284 30.7065794,175.017225 28.542674,174.781659 L28.1498293,174.76584 C25.9258821,174.894456 9.25873271,175.008971 8.01593669,174.649605 C6.71498592,173.288826 5.14370995,171.329333 4,169.828934 C4.06831038,166.087395 7.00620566,162.10582 9.82693371,159.827883 C13.3292216,157.000063 16.9113823,156.081529 21.3476113,156.56848 C21.7359958,156.385186 23.2058184,153.79362 23.9366125,152.939393 C23.931466,152.585529 23.9506794,152.519158 24.1078173,152.184895 C26.7946007,146.4677 29.3774261,140.729527 31.9458415,134.959028 L36.8215764,124.130574 C37.5606048,122.481614 38.3243361,120.51937 39.1113979,118.936781 Z" fill="#62A537"/>
          <path d="M39.0622689,118.951971 C39.6371781,117.41667 40.3289193,116.157386 40.9466555,114.7243 C43.162009,109.584259 45.5808763,106.754569 50.0996355,103.455788 C53.9718788,100.62954 58.6105536,99.5106732 63.3729126,99.540362 C64.1191297,99.5457776 67.3671271,100.171806 68.3134318,100.328399 C75.0660458,101.731543 81.8638851,104.82486 87.7243276,108.448873 C89.7015632,109.67202 92.423988,111.168087 91.9443259,113.881795 C89.2647281,119.130247 81.0350976,118.422996 76.3995063,116.816798 C75.9527354,117.820371 75.5186412,118.849412 74.983818,119.806867 C76.7188242,121.371078 81.3033657,140.523969 81.8556623,144.037162 C78.456914,146.007139 75.0358956,147.937536 71.5926073,149.828012 C69.5968705,150.920722 66.2885727,152.589902 64.5628171,153.838861 C63.2745819,154.959793 57.9818536,157.777093 56.207104,158.794432 L35.6542699,170.715129 C34.0443185,171.667766 32.4271721,172.608014 30.8028308,173.536215 C30.2529325,173.851122 28.9468812,174.525677 28.508333,174.840585 L28.116038,174.824753 C25.8952026,174.953469 9.25137451,175.068075 8.01031745,174.708427 C6.71118702,173.346583 5.14210963,171.385554 4,169.883981 C4.0682148,166.139512 7.00199927,162.154818 9.81878047,159.875097 C13.3161679,157.045063 16.8933162,156.12581 21.323338,156.613141 C21.711179,156.429704 23.1789449,153.836108 23.9087165,152.981213 C23.9035772,152.627071 23.9227637,152.560648 24.0796817,152.226124 C26.7627057,146.504451 29.3419172,140.761784 31.9067387,134.986766 L36.7756513,124.149832 C37.5136456,122.499581 38.2763083,120.535799 39.0622689,118.951971 Z" fill="#3BABE5"/>
          <path d="M49.2139043,148.488876 C51.0515031,145.975888 55.0673037,140.80686 58.5216444,143.561804 C61.3147947,145.789373 63.6265458,150.699333 65,153.957354 C63.7024654,155.071994 58.3715307,157.873481 56.5839698,158.88511 L35.8827716,170.738897 C34.2611984,171.686187 32.6323784,172.621157 30.9963115,173.544149 C30.4424437,173.857289 29.1269645,174.528058 28.6852506,174.841197 L28.2901237,174.825455 C26.0532568,174.953448 9.28928244,175.067411 8.0392666,174.709781 C6.73075818,173.355581 5.15035414,171.40556 4,169.912414 C4.06870722,166.188962 7.02366971,162.226634 9.86078431,159.959709 C13.3834182,157.145559 16.9863888,156.231466 21.4483894,156.716062 C21.8390301,156.533654 23.3173914,153.954616 24.0524309,153.104519 C31.4159397,145.685335 39.7812419,142.556677 49.2139043,148.488876 Z" fill="#35722E"/>
          <path d="M24.5322462,151.915959 C31.6927379,144.099748 39.8274028,140.803664 49,147.053316 C47.7828708,149.43975 46.6623871,151.110866 45.7345232,153.788619 C45.3576729,154.875656 44.7667259,157.857707 44.4556482,158.494786 C39.1871264,156.262304 35.197815,160.188257 32.6491256,164.895145 C29.9242596,160.672466 26.8832822,157.033506 22,155.720769 C22.3798705,155.528599 23.8174723,152.811548 24.5322462,151.915959 Z" fill="#62A537"/>
          <path d="M7,174.947703 C7.69881908,174.876171 27.1733551,174.883853 28,174.972914 C25.6803844,175.000811 8.29625786,175.02565 7,174.947703 Z" fill="#2A6229"/>
          <path d="M39,118.034128 C39.5755855,116.491897 40.2681404,115.226929 40.8866032,113.787375 C43.1045625,108.624134 45.526275,105.781672 50.0503495,102.468002 C53.9271476,99.6289977 58.5712787,98.505081 63.3392395,98.5355038 C64.0863344,98.5403438 67.3381523,99.1691979 68.2855701,99.3264978 C75.046127,100.735974 81.8519623,103.843253 87.7192983,107.483623 C89.6988596,108.712291 92.4244867,110.215111 91.9442604,112.941067 C89.2615107,118.213208 81.0221999,117.502765 76.381156,115.889317 C75.9338595,116.89742 75.4992548,117.931105 74.9638025,118.892882 C70.4249782,125.831019 61.1051583,127.24499 56.9831018,119.154242 C53.1934305,121.405878 48.3472614,123.253029 43.9370691,121.791349 C41.8185852,121.08955 40.4379347,119.66417 39,118.034128 Z" fill="#EAF2F7"/>
          <path d="M63.2889988,103.587978 C63.745427,103.573096 64.2018553,103.564641 64.6586319,103.562195 C67.2344898,103.555508 70.0570281,103.98506 71.9001619,105.798985 C74.2091313,108.071887 72.6098904,111.673693 69.6281249,112.374166 C68.4208548,112.657602 67.8243623,112.661323 66.6209249,112.519604 C65.9031828,112.439106 64.2638737,112.559177 63.4147779,112.586912 C59.3560508,112.718483 55.0245121,109.82121 57.9686484,105.598414 C59.0619856,104.029368 61.4016158,103.773666 63.2889988,103.587978 Z" fill="#FDFDFD"/>
          <path d="M111,174.947651 C115.935405,167.764765 124.654012,159.8285 132.64128,156.092749 C137.954795,153.60767 142.91473,153.042895 148.470039,155.058713 L148.573765,155.168761 C149.094849,157.288397 153.051863,173.589353 152.727018,174.692256 L152.708095,174.792961 L153,174.949727 C139.172527,174.768736 124.846396,174.924811 111,174.947651 Z" fill="#35722E"/>
          <path d="M152.981685,174.985323 L127.548743,174.993467 L120.317848,174.992361 C119.210151,174.991959 117.040543,175.00322 116,174.954455 C118.233709,174.878845 122.267002,174.914337 124.670969,174.914136 C130.426178,174.907299 136.181726,174.91494 141.936595,174.936859 C143.752459,174.938569 152.035428,174.882364 153,174.956064 L152.981685,174.985323 Z" fill="#2A6229"/>
          <path d="M91.4930615,113.616777 C95.454028,116.047491 100.606924,119.966942 104.359754,122.899949 C105.884561,124.48082 109.975216,127.224223 111,128.46786 C101.212253,133.905218 90.6764147,139.236924 81.0876176,144.785981 C80.5179791,141.154673 75.7894847,121.357852 74,119.741052 C74.5516164,118.751407 74.999341,117.687769 75.4601404,116.650456 C80.2412874,118.310655 88.7293252,119.041684 91.4930615,113.616777 Z" fill="#298CC6"/>
          <path d="M79.8264053,158.881562 C81.8894028,158.757244 83.2976422,159.223524 84.9237096,160.696885 C85.6778279,161.38046 87.8236255,164.293404 86.6621942,165.239196 C85.6873817,166.032812 82.4998946,165.865314 81.2419693,165.877502 C78.1207223,165.862528 69.9913404,166.636295 76.3905178,160.357012 C77.2318946,159.531359 78.6831264,159.044533 79.8264053,158.881562 Z" fill="#35722E"/>
          <path d="M125.852759,142.78488 C130.195065,142.554199 131.568123,146.43445 130.79624,149.71641 L126.99563,149.736765 C126.337328,149.743549 122.202695,150.058114 122.094826,149.360212 C121.651254,146.485335 122.740695,143.865811 125.852759,142.78488 Z" fill="#35722E"/>
          <path d="M132.136775,132.726652 C132.53325,132.719456 133.117476,132.679883 133.449703,132.950424 C135.515633,134.633749 136.545935,139.006295 137,141.590824 C136.092868,141.685441 135.398455,141.706308 134.490324,141.735448 C132.888113,141.799486 131.600485,141.771424 130.007928,141.668533 C129.96332,138.889732 130.037222,134.64778 132.136775,132.726652 Z" fill="#35722E"/>
          <path d="M139,126.687733 C143.095663,128.408599 147.603553,131.156801 151.485327,133.347968 C152.862297,134.125468 155.267242,135.712604 156.603437,136.323545 C157.583383,137.062343 160.128617,138.468062 161.285133,139.135675 C163.014205,134.270255 167.294386,129.761794 172.503718,128.808061 L173.424231,128.888576 C180.192286,129.741406 186.450326,134.111645 191.653093,138.232048 C192.231869,138.6906 192.87457,139.2504 193.475115,139.651244 C194.782285,141.854505 198.708635,152.321032 199.483331,153.066395 L200.030318,152.82969 C201.634997,151.634068 205.104199,150.877993 207.069274,151.231496 C215.365989,152.723259 219.42226,162.583336 220,170.005175 C218.865598,171.680428 216.905361,173.469713 215.355623,174.822217 C213.756472,174.907569 211.685317,174.924156 210.078565,174.833966 L189.2015,174.949727 L152.298724,174.922428 L152.010891,174.765892 L152.02955,174.665335 C152.349864,173.56405 148.448048,157.287009 147.934233,155.170482 L147.831953,155.060595 C147.828843,154.700527 147.50853,153.919917 147.398649,153.53877 C145.578008,147.224781 143.763242,140.918741 141.592227,134.713948 C140.690718,132.136796 140.090173,129.163292 139,126.687733 Z" fill="#4B8C33"/>
          <path d="M172.273065,129.704108 L173.198049,129.783059 C179.99897,130.619328 186.287401,134.904699 191.515433,138.945086 C192.09702,139.394733 192.742842,139.943662 193.346304,140.336722 C194.659822,142.497197 198.605239,152.76047 199.383697,153.491358 L199.93334,153.259249 C201.545812,152.086846 205.031861,151.345453 207.006479,151.692092 C215.343485,153.154885 219.419455,162.823485 220,170.101196 C218.86009,171.743916 216.890333,173.498454 215.333069,174.824693 C213.726152,174.908388 211.644939,174.924653 210.030384,174.836214 L189.051935,174.949727 C189.164781,170.633182 188.516528,167.075988 184.166952,165.201837 C184.377365,163.618754 182.582258,157.660844 182.084003,155.900206 C181.794425,154.877572 181.273253,153.522193 181.324294,152.436195 L180.002095,151.517925 C175.705643,148.71229 171.356414,145.983911 166.957186,143.334482 C165.242286,142.302361 162.714553,140.697592 161,139.831165 C162.737469,135.060229 167.038435,130.63932 172.273065,129.704108 Z" fill="#235424"/>
          <path d="M182.003403,152.829647 C191.153643,159.013361 200.279162,165.16678 208.067752,172.969833 C208.516443,173.419612 209.702679,174.403067 210,174.838198 L189.54005,174.949727 C189.650106,170.708619 189.017876,167.213592 184.775803,165.372194 C184.981015,163.816777 183.230276,157.962989 182.744335,156.23312 C182.461914,155.228358 181.953624,153.896665 182.003403,152.829647 Z" fill="#35722E"/>
          <path d="M172.595662,129.704108 L173.547115,129.784167 L173.087818,129.932603 C173.120676,130.457971 173.373896,130.939014 173.5064,131.360614 C174.257848,133.750711 181.366964,150.191734 180.985168,151.557553 C180.829449,151.658916 180.714089,151.746191 180.545871,151.824188 C176.126469,148.979162 171.65278,146.212477 167.127661,143.525851 C165.363686,142.479239 162.763618,140.851939 161,139.973348 C162.78719,135.135428 167.211235,130.65245 172.595662,129.704108 Z" fill="#2A6229"/>
          <path d="M199.856867,152.829647 C200.491156,153.74741 198.79866,154.378827 199.020133,153.162099 L199.856867,152.829647 Z" fill="#0A2E0E"/>
          <path d="M114.821852,43.2717392 C122.623607,42.7662849 130.281895,47.4902593 134.549577,54.025845 C136.101245,56.4018916 137.049883,59.0766158 138.354641,61.5877703 C140.110485,65.3272404 142.567378,69.6157149 144,73.4049075 C142.171575,74.5694412 140.482546,75.0625506 138.280025,74.6428247 C137.515213,74.4970865 136.383428,73.8445224 135.655246,73.8760704 C135.330668,74.2765932 135.31778,74.3585495 135.123779,74.8506302 C134.952163,75.1712542 134.79547,75.484677 134.589598,75.7847262 C132.471868,77.8610665 129.941715,78.4556783 127.109709,77.5510729 C124.089806,76.5861147 122.129108,74.2556755 120.215553,71.843623 C119.89267,72.753715 119.572501,73.9453389 119.287265,74.8880077 C118.382041,77.1721536 117.620282,78.9745062 115.894623,80.7744584 C106.251217,90.8334788 95.835537,86.9606154 92.5636366,73.9196204 C90.9000447,76.8076367 88.3688752,79.2162601 85.1169854,80.0910321 C82.0061871,80.9277407 80.0977199,80.0536545 78,77.7623075 C79.4963848,74.1534873 81.2393408,70.4081876 82.8713906,66.8466895 C85.2411188,61.6752132 87.7807674,55.8906078 90.967538,51.1968098 C95.4587275,45.6296114 101.962168,43.2648809 108.911268,43.2950573 C108.925174,45.4238634 108.849201,48.2477549 109.014712,50.2949476 L109.051342,50.938596 C110.534839,50.0891996 111.84638,49.5007603 113.565595,49.3111292 C113.892886,49.2490619 114.221196,49.1911095 114.549844,49.1365863 C114.935811,48.6733104 114.819817,44.210293 114.821852,43.2717392 Z" fill="#EAF2F7"/>
          <path d="M116.279604,43.2723937 C124.226347,42.7580067 132.026957,47.565466 136.37395,54.2165523 C137.954454,56.6345898 138.920721,59.3565832 140.249727,61.9121163 C142.038202,65.7176725 144.540754,70.0819354 146,73.9380928 C144.137596,75.1232068 142.417177,75.6250308 140.173725,75.1978872 C139.3947,75.0495734 138.241882,74.3854768 137.500167,74.4175824 C137.169557,74.8251835 137.156429,74.9085881 136.958823,75.4093651 C136.504881,74.3722158 136.03263,72.986093 135.555887,71.8540229 L129.288107,56.9235399 C128.250329,54.4664173 126.905432,50.8105707 125.410602,48.6933484 C124.330332,46.9739558 120.759601,46.5939237 119.16735,47.6150202 C116.954298,49.0342955 117.855963,49.6104508 115,49.4185153 C115.333374,49.3553511 115.667785,49.2963746 116.002541,49.2408878 C116.395681,48.7694246 116.277531,44.2275342 116.279604,43.2723937 Z" fill="#CDDCEA"/>
          <path d="M92,50.2729101 C96.4703764,45.3143033 102.943679,43.2080789 109.860575,43.2349565 C109.874416,45.1310471 109.798796,47.6462382 109.96354,49.4696372 L110,50.0429236 C109.818376,50.1150043 109.511506,50.2832946 109.385247,50.2142681 C108.729309,49.8556968 107.897485,49.0350146 107.303325,48.5793176 C104.754853,46.6548222 101.248636,46.1426212 98.1603556,47.24338 C96.4686885,47.8417114 92.647499,50.1763952 92,50.2729101 Z" fill="#CDDCEA"/>
          <path d="M92.3665265,75.4093651 C95.6715598,88.4010736 106.192714,92.2593002 115.933774,82.2382963 C117.676908,80.4451467 118.446381,78.6496059 119.360772,76.3740926 C119.866788,76.62279 119.941474,76.5876034 120.157995,77.2769873 C120.889097,79.6057929 121.49104,82.0527981 122.113539,84.4147406 L125.313395,96.4833989 C125.810161,98.3698101 126.355232,100.853027 127,102.64276 C124.743656,104.34094 122.662037,106.225985 120.542389,108.091215 C116.266436,111.890684 112.077502,115.786488 107.978672,119.775213 C106.693933,121.032023 105.385898,122.454859 104.1039,123.671359 C100.46552,120.854724 95.4697702,117.090783 91.6296004,114.756512 C92.1092362,112.062859 89.3869604,110.577848 87.4098331,109.36374 C81.5497114,105.766509 74.7522443,102.696052 68,101.303278 C69.0781528,99.093014 69.9599974,96.8294573 70.9148153,94.563851 C72.2550548,91.4486422 73.6124241,88.340949 74.9872658,85.2407714 C75.8153228,83.358118 76.7547238,81.0559586 77.6554113,79.2375294 C79.7743737,81.5202166 81.7021671,82.3909993 84.8444668,81.5574529 C88.1292868,80.685987 90.6860882,78.2864666 92.3665265,75.4093651 Z" fill="#3BABE5"/>
          <path d="M85.1217352,90.5110651 C91.067636,90.1144737 93.7979529,95.779393 87.0410907,97.484555 C85.0590089,97.6475378 83.0841647,97.4240703 81.579423,95.8485701 C80.837047,95.0709611 81.0021344,94.1542736 81.0479728,93.1354501 C82.2049627,91.2310868 83.0345351,90.8895474 85.1217352,90.5110651 Z" fill="#FDFDFD"/>
          <path d="M175.832738,98.5349038 C176.17134,98.8585946 179.439283,106.772715 179.866361,107.798365 C182.84127,114.877686 185.853432,121.939845 188.903513,128.98484 L191.518865,135.031645 C191.939623,136.005464 192.784465,137.82232 193,138.753232 C192.421915,138.355054 191.803251,137.798979 191.246121,137.343478 C186.237935,133.250488 180.213944,128.909323 173.699012,128.062167 L172.812926,127.982188 C167.798421,128.929576 163.678318,133.408042 162.013912,138.241093 C160.900649,137.577922 158.450607,136.181555 157.50731,135.447672 C157.448105,134.59468 155.836585,130.268619 155.545879,129.106353 C153.103819,119.340707 149.71048,109.7563 147,100.105645 C148.703322,101.009439 150.181131,101.790348 152.054751,102.266445 C155.781038,103.212803 160.808182,102.550661 162.790901,98.7192325 C163.471431,99.2045971 164.196865,99.7431665 164.899348,100.182535 C168.369521,101.712429 173.479819,102.304889 175.832738,98.5349038 Z" fill="#298CC6"/>
          <path d="M175.434711,98.5349038 C175.781163,98.8585946 179.124875,106.772715 179.561854,107.798365 C182.605738,114.877686 185.687737,121.939845 188.808535,128.98484 L191.484525,135.031645 C191.915038,136.005464 192.779468,137.82232 193,138.753232 C192.408512,138.355054 191.775504,137.798979 191.205457,137.343478 C186.081155,133.250488 179.917496,128.909323 173.251514,128.062167 L172.344883,127.982188 L172.494627,127.859645 C173.029961,126.133065 165.206868,105.161469 164.25123,101.790691 C164.066092,101.136444 163.794852,100.814127 164.247827,100.182535 C167.798457,101.712429 173.027238,102.304889 175.434711,98.5349038 Z" fill="#1F7AB2"/>
          <path d="M151.166154,88.1374776 C155.30375,85.9487373 159.300714,84.6701126 164.021516,86.0129728 C167.8551,87.103286 171.824834,90.4753119 173.624433,93.9355772 C174.264857,95.1668704 175.953812,98.2694453 176,99.5081763 C173.5617,103.221327 168.265964,102.637798 164.669868,101.130968 C163.941894,100.698224 163.190137,100.167773 162.484912,99.6897261 C160.430246,103.463393 155.220681,104.115552 151.359178,103.183461 C149.417569,102.714542 147.886134,101.945407 146.121004,101.055238 C146.099978,101.04949 143.225307,101.803412 142.755157,101.880495 C138.886071,102.517103 131.153414,100.469342 135.084199,95.2527431 C136.349881,93.5731537 139.069099,92.9182896 141.179259,92.7181453 C142.676225,92.6637142 143.855046,92.7049601 145.331676,92.9662972 C146.959277,90.5605085 148.68339,89.6091468 151.166154,88.1374776 Z" fill="#EAF2F7"/>
          <path d="M157.643188,87.5242144 C164.423196,86.8433346 166.75728,93.4147438 159.757873,94.4913789 C158.089451,94.5213751 156.486813,94.628458 154.981251,93.8237233 C153.034048,92.783535 152.310069,90.7647635 153.779717,89.0898186 C154.837949,87.8838453 156.043394,87.7193505 157.643188,87.5242144 Z" fill="#FDFDFD"/>
          <path d="M136.535726,75.7801846 C136.730288,75.311741 136.743213,75.2337214 137.06873,74.8524377 C137.799018,74.822405 138.934076,75.4436234 139.701099,75.582361 C141.90999,75.9819255 143.603903,75.5125025 145.437616,74.4039069 C147.46589,78.546777 149.822063,83.8994396 152,87.8395895 C149.549948,89.2605897 147.848551,90.1791963 146.242395,92.5021546 C144.785221,92.2498152 143.621931,92.2099893 142.144688,92.2625464 C142.084823,92.2429599 142.020876,92.2315345 141.964413,92.2037869 C141.286167,91.8704901 137.801739,78.887582 136.840154,77.1512393 C136.628925,76.7693026 136.401369,76.7699555 136,76.6694115 C136.206467,76.3837751 136.363613,76.0854075 136.535726,75.7801846 Z" fill="#1F7AB2"/>

          <!-- Right cloud (animated) -->
          <g class="cloud-right">
            <path d="M170.367252,45.7811398 C172.411859,42.4792027 174.142756,40.1384038 177.916545,38.4503404 C186.30709,34.6979426 194.361271,39.8336608 196.481388,48.1315867 C200.719564,48.2473624 207.037013,48.2523527 207.876548,53.4735719 C208.025852,55.2501305 208.274006,57.0792539 206.984843,58.5530656 C205.792813,59.8794962 203.402575,60.8306536 201.61024,60.9317911 C199.961031,61.0249439 198.192035,60.8176788 196.537678,60.8376401 C186.244965,60.9574081 175.906604,61.7212618 165.620069,61.0788395 C163.959191,60.9750406 161.51438,61.1353967 160.096163,60.8758993 C157.609821,60.4211136 153.888203,58.5573906 154.085216,55.6679877 C154.106496,55.3582544 154.048491,54.6805671 154.001125,54.3871355 C153.981904,53.1874595 154.209121,51.9961006 154.669733,50.8825909 C157.346222,44.26674 164.189153,43.3531764 170.367252,45.7811398 Z" fill="#EAF2F7"/>
            <path d="M207.876546,54.2947429 C208.025853,55.8856814 208.274012,57.5236926 206.984821,58.8435162 C205.792767,60.0313573 203.402479,60.8831351 201.610107,60.9737054 C199.960863,61.0571254 198.191831,60.8715159 196.537439,60.8893916 C186.244512,60.9966459 175.905935,61.6806898 165.619186,61.1053898 C163.958273,61.0124361 161.513411,61.1560376 160.095165,60.9236534 C157.608771,60.516385 153.887076,58.8473892 154.084093,56.2598797 C154.105373,55.9825082 154.047366,55.3756277 154,55.1128547 C154.133862,55.0940852 154.669994,55.024072 154.776054,55.0896163 C155.912848,55.7724686 157.388414,56.8038972 158.806661,56.9930819 C160.574664,57.2287434 162.736357,57.1170201 164.530102,57.1098699 L177.370518,57.0097659 L195.595259,57.096761 C198.675106,57.1042092 206.93162,57.9384092 207.876546,54.2947429 Z" fill="#CDDCEA"/>
            <path d="M178.911664,42.2464521 C179.783025,42.1744384 180.509105,42.3231234 181.226939,42.7935412 C186.14202,46.0126607 183.833724,50.434158 179.64853,52.4856525 C178.601438,52.9990636 177.571159,53.8965476 176.353728,54.2945934 C173.004367,54.3189563 169.712738,51.3620956 171.506528,47.2282948 C172.509211,44.9166911 176.691868,42.9716049 178.911664,42.2464521 Z" fill="#FDFDFD"/>
          </g>

          <!-- Left cloud (animated) -->
          <g class="cloud-left">
            <path d="M13.7324591,66.65661 C14.2085838,65.8046295 14.6453946,65.0539812 15.2002823,64.2562601 C18.8972825,58.9424315 26.2152893,57.3908281 30.8836555,62.2436314 C32.7274271,64.1603179 33.4323092,65.6713167 34.3226155,68.2639102 C34.9896697,68.2790022 35.6648298,68.2940942 36.3315463,68.3239189 C40.8388062,68.5255052 45.0870127,68.2290548 45.9445573,74.0405607 C46.4778629,79.7967291 43.1091548,81.5836962 38.1932186,81.4334947 C37.3748528,81.4087006 36.5200102,81.3756419 35.6986047,81.3609092 C33.2600572,81.3422239 30.8215097,81.3371932 28.3829622,81.3468952 C21.8117183,81.3195859 15.1833611,81.660953 8.62816034,81.0270881 C6.07133313,80.7802258 3.73326593,81.0853002 1.52070624,79.3069571 C0.123675197,78.1843983 -0.0853914119,76.3859325 0.0253564735,74.6625675 C0.138536151,74.1102714 0.288294042,73.567318 0.473549349,73.03766 C2.32674414,67.8025255 8.71205719,64.6317639 13.7324591,66.65661 Z" fill="#EAF2F7"/>
            <path d="M45.9445573,74.4039069 C46.4778629,79.877502 43.1091548,81.5767459 38.1932186,81.4339178 C37.3748528,81.4103409 36.5200102,81.3789051 35.6986047,81.3648956 C33.2600572,81.3471276 30.8215097,81.3423438 28.3829622,81.3515696 C21.8117183,81.3256008 15.1833611,81.6502101 8.62816034,81.047462 C6.07133313,80.8127183 3.73326593,81.1028164 1.52070624,79.4117731 C0.123675197,78.3443213 -0.0853914119,76.6341432 0.0253564735,74.9953791 C0.74705846,75.2742014 2.20424259,76.994972 3.62569288,77.1295994 C6.68735347,77.4190142 10.1225982,77.0906463 13.2267814,77.1087561 L32.3974464,77.3113806 C34.7292652,77.3182144 39.4915256,77.4569422 41.5703705,77.0510098 C42.7450614,76.8326674 43.8346395,76.28049 44.7107604,75.4590578 C45.1852976,75.0069967 45.3528211,74.726466 45.9445573,74.4039069 Z" fill="#CDDCEA"/>
            <path d="M19.8686414,62.3390653 C22.3611672,62.2895907 24.5363195,65.0441638 23.8824414,67.5782838 C23.3669232,69.5758223 18.8027587,71.8905804 17.0809482,72.3911474 C13.7587763,72.4904604 11.7860734,68.5546803 13.8319874,65.8433975 C14.6968897,64.6971138 18.1150594,62.7679667 19.4200825,62.4467454 L19.8686414,62.3390653 Z" fill="#FDFDFD"/>
          </g>

          <!-- Flagpole (original paths, unchanged) -->
          <path d="M110.020524,5.09573591 C110.106523,3.02132638 110.372307,2.93841912 111.412084,1.25957244 C113.631132,-2.3228887 116.013374,2.63674103 116.17894,4.97952344 L116.245301,5.07777888 C121.882305,5.09980165 127.158384,5.51857312 132.340337,7.98681756 C134.573605,9.05034801 137.416993,10.4628547 138.466927,12.909754 C138.736774,16.6952989 139.11666,23.4749244 138.965654,27.203549 C137.371284,27.2248941 130.578033,27.0595539 129.587012,27.2357361 C127.299571,27.3793923 125.093728,27.3329751 122.810012,27.3726161 C120.588594,27.4109018 118.386475,27.5047527 116.159979,27.5223709 C116.044185,32.5801545 115.975454,37.6389544 115.953784,42.6977544 C115.951753,43.6250825 116.067547,48.0347189 115.682244,48.4924537 C115.354161,48.5463248 115.026416,48.603584 114.699687,48.664909 C112.98343,48.8522719 111.674144,49.4336731 110.193199,50.2729101 L110.156633,49.6369602 C110.252112,47.901227 110.163404,45.3001683 110.139704,43.5125969 L110.059122,34.2477865 C109.996485,24.5306622 109.983619,14.813199 110.020524,5.09573591 Z" fill="#76BFFE"/>
          <path d="M109.022545,5.09573591 C109.117011,3.02132638 109.408965,2.93841912 110.551117,1.25957244 C112.988652,-2.3228887 115.605449,2.63674103 115.787316,4.97952344 L115.860212,5.07777888 C116.107907,12.104737 115.994845,20.4584823 115.766489,27.5223709 C115.639294,32.5801545 115.563795,37.6389544 115.539992,42.6977544 C115.537761,43.6250825 115.664956,48.0347189 115.241716,48.4924537 C114.88133,48.5463248 114.521316,48.603584 114.162417,48.664909 C112.277177,48.8522719 110.83898,49.4336731 109.212221,50.2729101 L109.172055,49.6369602 C109.276935,47.901227 109.179493,45.3001683 109.153459,43.5125969 L109.064943,34.2477865 C108.996139,24.5306622 108.982006,14.813199 109.022545,5.09573591 Z" fill="#4FA0E6"/>
          <path d="M110,5.02729101 C110.083787,2.98074453 110.342735,2.89895086 111.355764,1.24265412 C113.51773,-2.29168813 115.838694,2.60132486 116,4.91263948 C115.555666,5.011915 110.670955,5.02628823 110,5.02729101 Z" fill="#2C2B2C"/>

          <!-- Flag body (animated, original paths) -->
          <path class="flag-main" d="M139.35587,26.7926337 C139.504907,22.9509696 139.129975,15.9658085 138.863647,12.0654984 L139.150693,12.4089966 C144.284115,12.6376463 148.61521,12.7029249 153.765339,12.2924027 C163.873121,11.4863689 153.030848,21.4111622 150.579089,23.5950287 C152.481149,24.9330658 156.558947,27.7110724 157.283414,30.1550061 C157.404715,31.7939532 156.283596,32.5099234 154.949949,32.6010342 C153.690487,32.6869088 152.427348,32.8949626 151.282504,33.0230762 C145.424281,33.678655 138.594311,34.3604151 132.737759,34.1450306 C131.464262,34.2965329 130.593431,32.8858864 130.019004,31.9081035 C129.938136,30.1742057 130.144315,28.5439856 130.099538,26.8257966 C131.077634,26.6442732 137.782293,26.8146259 139.35587,26.7926337 Z" fill="#76BFFE"/>
          <path class="flag-dark" d="M138.733578,12.0654984 L139.016412,12.409452 C140.958717,15.7668448 142.600736,20.0110366 141.786476,24.0829021 C141.035764,27.8363308 137.405672,30.3611041 134.682363,32.5531093 C134.114061,33.0106655 133.0331,33.5867179 132.697584,34.1743053 C131.442775,34.3260084 130.584723,32.9134916 130.018725,31.9344123 C129.939044,30.1982155 130.142198,28.565834 130.098077,26.8453669 C131.061821,26.6636028 137.668093,26.8341814 139.218578,26.81216 C139.365428,22.9654024 138.995998,15.9709798 138.733578,12.0654984 Z" fill="#4FA0E6"/>

        </g>
      </g>
    </g>
  </g>
</svg>