<svg width="157" height="206" viewBox="0 0 157 206" fill="none" xmlns="http://www.w3.org/2000/svg">
<path d="M72.4746 154.5C72.4745 182.943 31.7441 206 20.9746 206C10.2051 206 1.47461 182.943 1.47461 154.5C1.47461 126.28 -7.82713 103.361 20.3086 103.004L20.9746 103C-7.46792 103 1.47464 79.9426 1.47461 51.5C1.47458 23.0573 10.2051 2.45494e-06 20.9746 0C31.7442 0 72.4745 23.0573 72.4746 51.5V154.5Z" fill="black"/>
<path d="M84.4746 154.5C84.4748 182.943 125.205 206 135.975 206C146.744 206 155.475 182.943 155.475 154.5C155.475 126.28 164.776 103.361 136.641 103.004L135.975 103C164.417 103 155.475 79.9426 155.475 51.5C155.475 23.0573 146.744 2.45494e-06 135.975 0C125.205 0 84.4747 23.0573 84.4746 51.5V154.5Z" fill="black"/>
</svg>
