<svg width="185" height="206" viewBox="0 0 185 206" fill="none" xmlns="http://www.w3.org/2000/svg">
<path d="M86.5 154.5C86.4998 182.943 63.4426 206 35 206C6.55734 206 1.65897e-06 182.943 0 154.5C0 126.28 6.19827 103.361 34.334 103.004L35 103C6.55747 103 8.07886e-05 79.9426 0 51.5C-7.88644e-05 23.0573 6.55734 2.45494e-06 35 0C63.4427 0 86.4999 23.0573 86.5 51.5V154.5Z" fill="black"/>
<path d="M98.5 154.5C98.5002 182.943 121.557 206 150 206C178.443 206 185 182.943 185 154.5C185 126.28 178.802 103.361 150.666 103.004L150 103C178.443 103 185 79.9426 185 51.5C185 23.0573 178.443 2.45494e-06 150 0C121.557 0 98.5001 23.0573 98.5 51.5V154.5Z" fill="black"/>
</svg>
