<svg width="184" height="226" viewBox="0 0 184 226" fill="none" xmlns="http://www.w3.org/2000/svg">
<path d="M159.097 132.759C156.713 131.873 154 130.909 151.008 129.891C150.19 133.49 148.424 136.664 146.643 139.218C143.859 143.212 140.002 147.166 135.71 150.998C127.104 158.679 115.201 167.206 102.307 176.1C89.195 185.143 75.0019 194.603 60.9582 204.607C53.4022 209.989 46.3483 213.626 39.8958 214.935C33.1399 216.307 25.8749 215.232 20.7136 209.55C16.1147 204.487 15.0692 197.717 15.2088 192.034C15.3553 186.077 16.8289 179.497 19.1774 172.892C25.5896 154.858 40.0436 132.712 60.7475 117.469C60.539 117.451 60.3309 117.432 60.1231 117.414C48.7666 116.428 38.3546 115.564 30.8263 114.742C27.0982 114.334 23.7833 113.907 21.3083 113.433C20.144 113.21 18.6978 112.892 17.3697 112.403C16.7659 112.181 15.5671 111.705 14.3381 110.814C13.4399 110.162 10.0317 107.483 10.0001 102.478C9.96816 97.4135 13.4118 94.6841 14.3559 94.0018C15.6138 93.0927 16.8474 92.6111 17.4798 92.3832C18.8709 91.882 20.4283 91.5484 21.8008 91.2991C24.6987 90.7728 28.8467 90.2684 34.2451 89.7521C36.4597 89.5402 38.7242 89.3898 41.0306 89.2948C36.4463 85.4893 32.5751 81.008 29.4327 76.2719C22.1898 65.3557 18.2377 52.2844 18.2176 40.7336C18.1987 29.8164 22.0048 16.3325 34.9052 11.5185C42.6845 8.61566 51.5594 10.3066 59.0449 12.9901C66.9401 15.8204 75.3147 20.4889 83.2467 26.1088C95.8778 35.0582 108.565 47.2746 116.919 60.232C126.086 55.8273 134.628 53.9314 142.496 54.9688C153.551 56.4264 160.978 63.3213 165.526 71.494C169.921 79.3904 171.993 88.9832 172.852 98.0072C173.724 107.167 173.416 116.53 172.517 124.505L171.086 137.215L159.097 132.759ZM103.567 96.0936C105.41 94.2476 106.191 92.3759 106.496 90.5562C106.52 90.4141 106.542 90.2693 106.561 90.1218C103.549 91.9469 100.57 93.5274 97.6272 94.8717C99.6205 95.2669 101.602 95.674 103.567 96.0936Z" fill="#89FF12" stroke="black" stroke-width="20"/>
</svg>
