<svg width="191" height="223" viewBox="0 0 191 223" fill="none" xmlns="http://www.w3.org/2000/svg">
<path d="M28.9219 73.5687C31.1473 74.7993 33.6869 76.1565 36.494 77.6083C37.8378 74.1706 40.057 71.2951 42.1977 69.0339C45.545 65.4984 49.9466 62.1618 54.7613 59.0115C64.4138 52.6957 77.4524 46.0332 91.5264 39.1562C105.837 32.1635 121.279 24.9201 136.655 17.1162C144.927 12.9175 152.444 10.3706 159.019 10.0351C165.904 9.6839 172.928 11.8273 177.187 18.2136C180.982 23.9043 181.009 30.7549 180.025 36.3531C178.994 42.2229 176.559 48.5106 173.254 54.6929C164.231 71.5724 146.644 91.322 123.903 103.316C124.107 103.365 124.31 103.415 124.512 103.464C135.596 106.127 145.764 108.53 153.086 110.463C156.712 111.421 159.926 112.336 162.303 113.173C163.422 113.566 164.804 114.096 166.045 114.777C166.609 115.087 167.724 115.736 168.807 116.8C169.598 117.578 172.57 120.734 171.857 125.688C171.135 130.701 167.324 132.888 166.288 133.422C164.909 134.134 163.618 134.427 162.959 134.558C161.508 134.847 159.919 134.945 158.524 134.988C155.58 135.077 151.404 134.959 145.988 134.667C143.767 134.547 141.505 134.359 139.21 134.11C143.178 138.555 146.339 143.562 148.742 148.713C154.281 160.585 156.245 174.098 154.547 185.524C152.942 196.322 147.173 209.09 133.7 211.932C125.576 213.645 117.051 210.653 110.048 206.886C102.661 202.913 95.0741 197.051 88.0662 190.314C76.9066 179.586 66.1771 165.618 59.8433 151.562C50.1235 154.555 41.3949 155.159 33.7679 152.963C23.0531 149.877 16.7343 141.955 13.4517 133.196C10.2802 124.734 9.65792 114.94 10.1509 105.888C10.6512 96.7012 12.3484 87.4882 14.4231 79.7351L17.729 67.3794L28.9219 73.5687ZM78.3807 118.085C76.2837 119.637 75.2331 121.371 74.6604 123.125C74.6156 123.263 74.5724 123.402 74.5319 123.546C77.7814 122.189 80.9628 121.069 84.0727 120.177C82.1603 119.49 80.2614 118.793 78.3807 118.085Z" fill="#FF12FB" stroke="black" stroke-width="20"/>
</svg>
