<svg width="222" height="214" viewBox="0 0 222 214" fill="none" xmlns="http://www.w3.org/2000/svg">
<path d="M159.309 186.132C158.393 183.759 157.318 181.088 156.099 178.172C152.861 179.944 149.314 180.722 146.221 181.08C141.384 181.64 135.867 181.37 130.154 180.693C118.699 179.333 104.426 176.065 89.2219 172.297C73.7619 168.464 57.2737 164.098 40.4768 160.204C31.4395 158.108 24.0427 155.233 18.7874 151.266C13.2849 147.114 9.27776 140.959 10.1155 133.329C10.8621 126.53 15.2415 121.262 19.5908 117.603C24.1512 113.766 30.0567 110.511 36.5605 107.895C54.3179 100.753 80.4827 96.9121 105.616 102.325C105.492 102.157 105.368 101.988 105.244 101.821C98.4598 92.6605 92.2102 84.2879 87.8396 78.1034C85.6751 75.0407 83.7993 72.2744 82.515 70.1063C81.9108 69.0864 81.191 67.7923 80.6776 66.4734C80.4442 65.8738 80.0065 64.6606 79.8604 63.1493C79.7536 62.0448 79.5031 57.7167 83.2311 54.3783C87.0044 50.9993 91.3302 51.7711 92.4668 52.0264C93.981 52.3666 95.159 52.9717 95.7485 53.2945C97.0455 54.0047 98.3271 54.9504 99.423 55.8135C101.737 57.6358 104.862 60.4091 108.825 64.1113C110.451 65.6301 112.063 67.2268 113.662 68.8918C113.477 62.9366 114.269 57.0681 115.736 51.5768C119.116 38.9199 126.29 27.3007 134.93 19.6344C143.096 12.3886 155.719 6.30813 167.871 12.7837C175.198 16.6886 179.81 24.4573 182.759 31.8426C185.868 39.632 187.918 48.9983 188.962 58.6632C190.625 74.0539 189.877 91.6509 185.704 106.492C195.075 110.442 202.154 115.585 206.589 122.167C212.819 131.414 212.574 141.545 209.464 150.366C206.46 158.889 200.646 166.796 194.455 173.417C188.17 180.137 180.952 186.108 174.382 190.718L163.912 198.065L159.309 186.132ZM149.993 120.244C152.597 120.402 154.517 119.747 156.082 118.771C156.204 118.694 156.327 118.615 156.45 118.531C153.088 117.484 149.931 116.299 146.974 114.985C147.999 116.74 149.006 118.494 149.993 120.244Z" fill="#FF12FB" stroke="black" stroke-width="20"/>
</svg>
