<svg width="184" height="226" viewBox="0 0 184 226" fill="none" xmlns="http://www.w3.org/2000/svg">
<path d="M159.097 132.759C156.713 131.873 154 130.908 151.008 129.89C150.191 133.49 148.424 136.663 146.643 139.218C143.859 143.212 140.003 147.166 135.71 150.997C127.104 158.678 115.202 167.206 102.307 176.1C89.1954 185.143 75.0023 194.603 60.9587 204.606C53.4027 209.989 46.3488 213.625 39.8963 214.935C33.1403 216.306 25.8754 215.231 20.7141 209.55C16.1151 204.486 15.0696 197.716 15.2093 192.034C15.3558 186.076 16.8294 179.496 19.1779 172.891C25.59 154.857 40.0441 132.712 60.748 117.468C60.5395 117.45 60.3314 117.431 60.1236 117.413C48.7671 116.428 38.3551 115.564 30.8268 114.741C27.0987 114.334 23.7838 113.907 21.3088 113.433C20.1445 113.21 18.6983 112.892 17.3702 112.403C16.7664 112.181 15.5676 111.705 14.3386 110.813C13.4404 110.162 10.0322 107.482 10.0006 102.478C9.96865 97.4131 13.4123 94.6836 14.3564 94.0013C15.6143 93.0922 16.8479 92.6106 17.4803 92.3827C18.8714 91.8816 20.4288 91.5479 21.8013 91.2986C24.6992 90.7724 28.8472 90.2679 34.2456 89.7516C36.4602 89.5398 38.7247 89.3893 41.0311 89.2943C36.4468 85.4888 32.5756 81.0075 29.4331 76.2714C22.1903 65.3552 18.2382 52.2839 18.2181 40.7331C18.1992 29.8159 22.0053 16.332 34.9057 11.518C42.685 8.61517 51.5599 10.3062 59.0454 12.9896C66.9406 15.8199 75.3152 20.4884 83.2472 26.1084C95.8783 35.0578 108.566 47.2741 116.92 60.2315C126.086 55.8269 134.628 53.9309 142.497 54.9683C153.551 56.4259 160.978 63.3208 165.527 71.4935C169.922 79.3899 171.994 88.9827 172.853 98.0067C173.724 107.166 173.416 116.529 172.518 124.505L171.086 137.214L159.097 132.759ZM103.567 96.0931C105.41 94.2472 106.191 92.3754 106.497 90.5557C106.521 90.4136 106.543 90.2688 106.561 90.1213C103.55 91.9464 100.57 93.5269 97.6277 94.8712C99.621 95.2664 101.603 95.6735 103.567 96.0931Z" fill="#89FF12" stroke="black" stroke-width="20"/>
</svg>
