<svg width="206" height="217" viewBox="0 0 206 217" fill="none" xmlns="http://www.w3.org/2000/svg">
<path d="M26.3515 47.865C28.3627 49.4211 30.6147 51.2157 33.0594 53.2184C30.4348 55.8137 28.6731 58.9902 27.4445 61.8512C25.5235 66.3249 24.2026 71.688 23.2164 77.3566C21.2392 88.7211 20.2846 103.332 19.5429 118.979C18.7888 134.889 18.2524 151.937 17.175 169.146C16.5953 178.405 17.2329 186.315 19.5287 192.486C21.9326 198.947 26.6823 204.548 34.233 205.93C40.9613 207.161 47.2624 204.473 52.0137 201.353C56.9954 198.082 61.8045 193.356 66.1728 187.873C78.0995 172.903 89.2704 148.933 91.2792 123.302C91.4047 123.469 91.5308 123.636 91.6558 123.803C98.4905 132.926 104.724 141.311 109.398 147.269C111.713 150.22 113.826 152.809 115.536 154.66C116.34 155.531 117.374 156.591 118.491 157.461C118.999 157.856 120.036 158.623 121.442 159.195C122.47 159.614 126.545 161.093 130.811 158.477C135.129 155.829 135.627 151.463 135.708 150.301C135.816 148.753 135.573 147.451 135.433 146.793C135.124 145.347 134.584 143.849 134.071 142.552C132.987 139.813 131.225 136.024 128.812 131.168C127.822 129.175 126.754 127.173 125.617 125.164C131.269 127.047 137.119 127.967 142.801 128.134C155.895 128.519 169.082 124.971 178.901 118.888C188.181 113.138 197.621 102.784 194.895 89.2873C193.252 81.1485 187.128 74.5055 180.896 69.5664C174.323 64.3571 165.936 59.7116 156.974 55.9444C142.703 49.9454 125.629 45.624 110.214 45.3739C109.113 35.2637 106.211 27.0093 101.174 20.8754C94.0983 12.2583 84.3209 9.5934 74.9786 10.0474C65.9523 10.4861 56.7122 13.7932 48.596 17.8301C40.358 21.9276 32.5702 27.1342 26.2724 32.1095L16.2359 40.0379L26.3515 47.865ZM86.8143 75.6525C87.4085 73.1126 88.5854 71.4609 89.9692 70.2404C90.0774 70.1451 90.1888 70.05 90.3041 69.9561C90.3449 73.4774 90.5764 76.8421 90.9891 80.0509C89.6007 78.567 88.2085 77.0994 86.8143 75.6525Z" fill="#FF9C12" stroke="black" stroke-width="20"/>
</svg>
