<svg width="220" height="158" viewBox="0 0 220 158" fill="none" xmlns="http://www.w3.org/2000/svg">
<path d="M69.4183 -27.5716C69.9541 -25.0858 70.6013 -22.2799 71.353 -19.2103C74.8267 -20.458 78.4525 -20.6765 81.5636 -20.5502C86.4283 -20.3526 91.8363 -19.2299 97.3755 -17.6734C108.481 -14.5529 122.073 -9.10905 136.508 -3.02611C151.186 3.15917 166.797 10.032 182.786 16.4861C191.388 19.9586 198.249 23.9474 202.825 28.6813C207.616 33.6379 210.62 40.3398 208.608 47.7475C206.815 54.3484 201.671 58.8727 196.806 61.8126C191.706 64.8951 185.367 67.1937 178.536 68.7683C159.885 73.0677 133.441 72.8012 109.452 63.5527C109.549 63.7382 109.645 63.9239 109.741 64.1087C115.022 74.211 119.896 83.4522 123.254 90.2402C124.917 93.6016 126.341 96.6255 127.273 98.9668C127.711 100.068 128.222 101.458 128.524 102.841C128.662 103.469 128.906 104.736 128.815 106.251C128.749 107.359 128.325 111.674 124.124 114.393C119.872 117.145 115.719 115.712 114.635 115.283C113.192 114.712 112.123 113.931 111.59 113.521C110.419 112.618 109.3 111.485 108.351 110.462C106.348 108.303 103.691 105.078 100.351 100.805C98.9808 99.0528 97.6355 97.2251 96.3143 95.3321C95.5735 101.244 93.8795 106.918 91.5784 112.115C86.2748 124.094 77.3839 134.459 67.6587 140.692C58.467 146.582 45.0536 150.63 34.0543 142.347C27.4215 137.352 24.0712 128.961 22.3051 121.208C20.4423 113.03 19.8709 103.459 20.3396 93.7494C21.0861 78.2872 24.5558 61.0195 30.9822 47.0058C22.337 41.6496 16.1427 35.4702 12.7829 28.2795C8.06298 18.1775 9.87813 8.20742 14.3192 -0.0243755C18.61 -7.97771 25.5806 -14.8861 32.7247 -20.4657C39.976 -26.129 48.0335 -30.9076 55.2394 -34.4419L66.7226 -40.0745L69.4183 -27.5716ZM68.3941 38.963C65.8464 38.4029 63.8486 38.7519 62.1504 39.4736C62.0177 39.53 61.8839 39.5894 61.7495 39.6529C64.9084 41.2093 67.8438 42.8701 70.5604 44.627C69.8208 42.7342 69.0977 40.845 68.3941 38.963Z" fill="#89FF12" stroke="black" stroke-width="20"/>
</svg>
