<svg width="134" height="202" viewBox="0 0 134 202" fill="none" xmlns="http://www.w3.org/2000/svg">
<path d="M-45.3931 47.865C-43.3819 49.4211 -41.13 51.2157 -38.6852 53.2184C-41.3099 55.8137 -43.0715 58.9902 -44.3001 61.8512C-46.2212 66.3249 -47.542 71.688 -48.5282 77.3566C-50.5054 88.7211 -51.4601 103.332 -52.2017 118.979C-52.9558 134.889 -53.4922 151.937 -54.5697 169.146C-55.1493 178.405 -54.5117 186.315 -52.2159 192.486C-49.8121 198.947 -45.0623 204.548 -37.5116 205.93C-30.7834 207.161 -24.4822 204.473 -19.7309 201.353C-14.7492 198.082 -9.94011 193.356 -5.57186 187.873C6.35484 172.903 17.5257 148.933 19.5345 123.302C19.6601 123.469 19.7861 123.636 19.9112 123.803C26.7458 132.926 32.9789 141.311 37.6534 147.269C39.9682 150.22 42.0817 152.809 43.7914 154.66C44.5957 155.531 45.6296 156.591 46.7462 157.461C47.2539 157.856 48.291 158.623 49.6973 159.195C50.725 159.614 54.8002 161.093 59.0662 158.477C63.3839 155.829 63.8828 151.463 63.9636 150.301C64.0711 148.753 63.8286 147.451 63.6881 146.793C63.3789 145.347 62.8397 143.849 62.3264 142.552C61.2428 139.813 59.4803 136.024 57.0676 131.168C56.0778 129.175 55.0095 127.173 53.872 125.164C59.5247 127.047 65.3746 127.967 71.0559 128.134C84.1507 128.519 97.3375 124.971 107.156 118.888C116.437 113.138 125.876 102.784 123.151 89.2873C121.507 81.1485 115.384 74.5055 109.151 69.5664C102.578 64.3571 94.1909 59.7116 85.2294 55.9444C70.9588 49.9454 53.8843 45.624 38.4694 45.3739C37.3682 35.2637 34.4668 27.0093 29.4298 20.8754C22.3536 12.2583 12.5763 9.5934 3.23398 10.0474C-5.79232 10.4861 -15.0324 13.7932 -23.1486 17.8301C-31.3866 21.9276 -39.1744 27.1342 -45.4722 32.1095L-55.5088 40.0379L-45.3931 47.865ZM15.0697 75.6525C15.6639 73.1126 16.8408 71.4609 18.2246 70.2404C18.3327 70.1451 18.4441 70.05 18.5594 69.9561C18.6002 73.4774 18.8318 76.8421 19.2444 80.0509C17.8561 78.567 16.4639 77.0994 15.0697 75.6525Z" fill="#FF9C12" stroke="black" stroke-width="20"/>
</svg>
