<svg width="220" height="212" viewBox="0 0 220 212" fill="none" xmlns="http://www.w3.org/2000/svg">
<path d="M69.4185 27.1134C69.9544 29.5993 70.6015 32.4052 71.3532 35.4748C74.827 34.227 78.4527 34.0086 81.5638 34.1349C86.4286 34.3324 91.8365 35.4552 97.3758 37.0117C108.481 40.1322 122.073 45.576 136.508 51.659C151.186 57.8442 166.797 64.7171 182.786 71.1712C191.388 74.6437 198.249 78.6325 202.825 83.3664C207.616 88.323 210.62 95.0249 208.608 102.433C206.815 109.033 201.671 113.558 196.807 116.498C191.706 119.58 185.367 121.879 178.536 123.453C159.885 127.753 133.441 127.486 109.452 118.238C109.549 118.423 109.645 118.609 109.742 118.794C115.022 128.896 119.896 138.137 123.254 144.925C124.917 148.287 126.341 151.311 127.273 153.652C127.712 154.753 128.222 156.143 128.524 157.526C128.662 158.154 128.906 159.421 128.816 160.937C128.75 162.044 128.325 166.359 124.124 169.078C119.872 171.83 115.719 170.397 114.636 169.968C113.193 169.397 112.123 168.616 111.59 168.206C110.419 167.303 109.3 166.17 108.352 165.147C106.349 162.988 103.691 159.763 100.351 155.491C98.9811 153.738 97.6357 151.91 96.3146 150.017C95.5738 155.929 93.8797 161.603 91.5787 166.801C86.275 178.779 77.3841 189.144 67.659 195.377C58.4673 201.267 45.0538 205.315 34.0545 197.032C27.4218 192.037 24.0715 183.646 22.3053 175.893C20.4425 167.715 19.8711 158.144 20.3399 148.434C21.0864 132.972 24.5561 115.705 30.9824 101.691C22.3372 96.3346 16.1429 90.1553 12.7831 82.9645C8.06322 72.8626 9.87837 62.8925 14.3194 54.6607C18.6102 46.7074 25.5809 39.799 32.7249 34.2194C39.9762 28.556 48.0338 23.7775 55.2396 20.2432L66.7228 14.6105L69.4185 27.1134ZM68.3943 93.6481C65.8467 93.088 63.8488 93.4369 62.1507 94.1586C62.018 94.215 61.8842 94.2745 61.7497 94.338C64.9086 95.8943 67.844 97.5552 70.5606 99.3121C69.8211 97.4193 69.098 95.5301 68.3943 93.6481Z" fill="#89FF12" stroke="black" stroke-width="20"/>
</svg>
