<svg width="289" height="249" viewBox="0 0 289 249" fill="none" xmlns="http://www.w3.org/2000/svg">
<path d="M128.844 24.2538C128.312 28.8283 127.783 34.2092 127.301 40.2222C132.993 39.0708 138.741 40.4199 143.616 42.3037C149.402 44.5393 155.591 48.1696 161.921 52.5198C174.604 61.2358 189.517 74.0225 205.396 88.1468C221.472 102.446 238.583 118.159 256.308 133.45C265.667 141.524 272.306 149.255 275.805 156.681C279.435 164.387 280.073 172.894 275.164 180.173C270.723 186.759 263.206 190.019 256.06 191.582C248.644 193.205 239.903 193.401 230.691 192.462C202.96 189.635 165.887 175.864 138.915 149.829C139.466 153.449 140.013 157.015 140.553 160.503C142.92 175.808 145.128 189.741 146.465 199.869C147.129 204.897 147.618 209.281 147.783 212.541C147.862 214.096 147.897 215.868 147.714 217.478C147.631 218.219 147.436 219.576 146.839 221.038C146.397 222.122 144.576 226.103 139.687 227.332C134.74 228.576 131.229 225.866 130.294 225.07C129.064 224.023 128.249 222.873 127.815 222.22C126.874 220.802 126.028 219.075 125.278 217.394C123.715 213.891 121.753 208.709 119.34 201.785C117.247 195.779 115.442 189.374 113.889 182.689C110.587 193.611 104.492 203.277 97.1614 211.226C85.5631 223.802 70.2246 232.836 55.7373 236.408C41.8651 239.828 24.9001 238.862 15.6777 225.3C10.0687 217.051 9.33627 205.875 10.4311 195.406C11.5712 184.503 14.9151 172.291 19.6779 160.241C27.6923 139.964 40.3365 118.645 55.2599 103.756C45.529 92.6093 39.9741 81.7928 38.8171 71.2134C37.3271 57.588 43.334 46.6289 52.0408 38.552C60.5154 30.6905 71.9641 25.072 83.3454 21.1113C94.8556 17.1057 107.041 14.542 117.636 13.1802L130.322 11.5492L128.844 24.2538ZM105.496 107.684C101.263 104.591 97.2744 103.713 93.49 103.992C91.2267 104.16 88.7813 104.765 86.1791 105.847C94.9554 113.859 101.689 122.043 106.562 130.276C106.037 122.7 105.693 115.127 105.496 107.684Z" fill="#FF12FB" stroke="black" stroke-width="20"/>
</svg>
