<svg width="222" height="214" viewBox="0 0 222 214" fill="none" xmlns="http://www.w3.org/2000/svg">
<g transform="rotate(25, 111, 107)">
<path d="M159.308 186.131C158.393 183.759 157.318 181.087 156.099 178.171C152.861 179.943 149.313 180.722 146.22 181.08C141.383 181.64 135.867 181.37 130.153 180.692C118.698 179.333 104.425 176.065 89.2211 172.296C73.7612 168.464 57.273 164.097 40.4761 160.203C31.4387 158.108 24.0419 155.232 18.7866 151.266C13.2842 147.113 9.27702 140.959 10.1148 133.328C10.8614 126.529 15.2408 121.261 19.5901 117.602C24.1504 113.765 30.056 110.511 36.5598 107.895C54.3172 100.753 80.482 96.9116 105.616 102.325C105.491 102.156 105.368 101.988 105.243 101.82C98.459 92.66 92.2095 84.2874 87.8388 78.1029C85.6744 75.0402 83.7986 72.2739 82.5142 70.1058C81.91 69.0859 81.1903 67.7918 80.6769 66.4729C80.4435 65.8733 80.0058 64.6601 79.8596 63.1488C79.7528 62.0443 79.5024 57.7163 83.2304 54.3778C87.0036 50.9988 91.3295 51.7706 92.466 52.0259C93.9802 52.3661 95.1582 52.9712 95.7478 53.294C97.0447 54.0042 98.3264 54.9499 99.4223 55.813C101.736 57.6353 104.862 60.4086 108.824 64.1108C110.45 65.6296 112.063 67.2263 113.662 68.8913C113.476 62.9362 114.269 57.0676 115.735 51.5763C119.115 38.9194 126.29 27.3002 134.93 19.6339C143.096 12.3881 155.718 6.30764 167.87 12.7832C175.198 16.6881 179.81 24.4568 182.758 31.8421C185.867 39.6315 187.917 48.9978 188.961 58.6627C190.624 74.0534 189.876 91.6504 185.703 106.492C195.075 110.441 202.153 115.584 206.588 122.166C212.819 131.413 212.573 141.544 209.464 150.366C206.459 158.889 200.645 166.795 194.454 173.416C188.169 180.136 180.951 186.107 174.381 190.717L163.911 198.064L159.308 186.131ZM149.993 120.244C152.596 120.402 154.516 119.747 156.081 118.77C156.204 118.694 156.327 118.615 156.45 118.531C153.087 117.484 149.93 116.299 146.974 114.985C147.998 116.74 149.005 118.494 149.993 120.244Z" fill="#FF12FB" stroke="black" stroke-width="20"/>
</g>
</svg>
