<svg width="200" height="222" viewBox="0 0 200 222" fill="none" xmlns="http://www.w3.org/2000/svg">
<path d="M25.1718 128.419C27.7128 128.519 30.5915 128.589 33.7516 128.625C33.4069 124.95 34.0969 121.384 34.9929 118.402C36.3939 113.739 38.8262 108.78 41.7112 103.802C47.4952 93.8214 56.1481 82.0095 65.6295 69.5406C75.2704 56.8619 85.8093 43.4507 96.0366 29.5689C101.539 22.1001 107.109 16.4466 112.832 13.1915C118.824 9.78339 126.062 8.54093 132.737 12.3317C138.685 15.7096 141.788 21.8171 143.426 27.2599C145.143 32.9668 145.793 39.6784 145.62 46.6864C145.146 65.8204 138.312 91.3674 123.389 112.303C123.593 112.255 123.796 112.209 123.999 112.161C135.098 109.558 145.26 107.135 152.67 105.571C156.34 104.796 159.623 104.169 162.122 103.848C163.298 103.697 164.771 103.549 166.186 103.6C166.829 103.623 168.116 103.701 169.562 104.166C170.618 104.505 174.691 105.989 176.281 110.734C177.889 115.537 175.468 119.204 174.783 120.146C173.871 121.402 172.849 122.244 172.319 122.657C171.154 123.567 169.778 124.37 168.551 125.034C165.961 126.437 162.177 128.209 157.208 130.382C155.17 131.273 153.065 132.122 150.903 132.931C156.445 135.118 161.52 138.17 165.982 141.691C176.265 149.807 184.094 160.996 187.712 171.966C191.132 182.333 191.717 196.332 180.959 204.926C174.471 210.108 165.511 211.267 157.562 211.05C149.178 210.82 139.766 208.994 130.478 206.125C115.687 201.557 99.8242 193.903 87.8488 184.193C80.511 191.235 72.9854 195.698 65.1851 197.164C54.2268 199.224 45.0212 194.986 38.1523 188.638C31.5158 182.504 26.5578 174.035 22.9299 165.727C19.2477 157.296 16.6229 148.303 14.9915 140.444L12.3913 127.921L25.1718 128.419ZM89.3618 145.957C88.1858 148.285 88.027 150.307 88.3037 152.131C88.3254 152.274 88.3497 152.418 88.3777 152.564C90.6707 149.891 93.0094 147.461 95.3866 145.267C93.3694 145.512 91.3597 145.743 89.3618 145.957Z" fill="#FF9C12" stroke="black" stroke-width="20"/>
</svg>
