<svg width="191" height="190" viewBox="0 0 191 190" fill="none" xmlns="http://www.w3.org/2000/svg">
<path d="M28.9222 40.7206C31.1475 41.9512 33.6872 43.3084 36.4943 44.7602C37.838 41.3224 40.0573 38.4469 42.1979 36.1858C45.5452 32.6502 49.9468 29.3136 54.7615 26.1633C64.4141 19.8475 77.4527 13.1851 91.5267 6.30808C105.837 -0.684608 121.28 -7.92807 136.655 -15.7319C144.927 -19.9306 152.444 -22.4776 159.019 -22.8131C165.904 -23.1642 172.928 -21.0209 177.187 -14.6346C180.982 -8.9438 181.009 -2.09329 180.026 3.50492C178.995 9.37477 176.559 15.6624 173.254 21.8447C164.231 38.7242 146.644 58.4739 123.903 70.4683C124.107 70.5172 124.31 70.567 124.513 70.6158C135.596 73.2791 145.764 75.6823 153.086 77.6152C156.712 78.5724 159.927 79.4878 162.304 80.3247C163.422 80.7183 164.805 81.2479 166.045 81.929C166.609 82.2386 167.724 82.8874 168.807 83.9519C169.598 84.7298 172.57 87.8863 171.857 92.8395C171.135 97.8529 167.324 100.04 166.289 100.574C164.91 101.286 163.618 101.579 162.959 101.71C161.509 101.999 159.919 102.097 158.525 102.139C155.581 102.229 151.404 102.111 145.989 101.818C143.767 101.699 141.505 101.511 139.211 101.261C143.178 105.706 146.34 110.714 148.743 115.864C154.281 127.736 156.245 141.25 154.547 152.675C152.942 163.474 147.173 176.242 133.7 179.084C125.576 180.797 117.051 177.805 110.048 174.038C102.662 170.065 95.0744 164.203 88.0664 157.466C76.9069 146.737 66.1773 132.77 59.8435 118.714C50.1237 121.706 41.3951 122.311 33.7681 120.115C23.0533 117.029 16.7345 109.106 13.4519 100.348C10.2804 91.8859 9.65817 82.0915 10.1511 73.0402C10.6515 63.8531 12.3486 54.6401 14.4233 46.8869L17.7292 34.5313L28.9222 40.7206ZM78.3809 85.2372C76.2839 86.7886 75.2333 88.5233 74.6606 90.2773C74.6159 90.4144 74.5727 90.5543 74.5321 90.6974C77.7817 89.3405 80.9631 88.2207 84.0729 87.329C82.1605 86.6417 80.2616 85.9444 78.3809 85.2372Z" fill="#FF12FB" stroke="black" stroke-width="20"/>
</svg>
