<svg width="294" height="290" viewBox="0 0 294 290" fill="none" xmlns="http://www.w3.org/2000/svg">
<path d="M26.9625 158.01C12.0715 133.777 19.6448 102.061 43.8779 87.17C68.111 72.279 99.8274 79.8523 114.718 104.085L141.681 147.963L97.803 174.926C73.5699 189.817 41.8535 182.243 26.9625 158.01Z" fill="black"/>
<path d="M151.729 262.682C127.495 277.573 95.7792 270 80.8882 245.767C65.9973 221.534 73.5706 189.817 97.8037 174.926L141.682 147.964L168.644 191.842C183.535 216.075 175.962 247.791 151.729 262.682Z" fill="black"/>
<path d="M212.699 43.8785C197.808 19.6453 166.092 12.0719 141.858 26.9629C117.625 41.8538 110.052 73.5702 124.943 97.8034L151.905 141.681L195.783 114.719C220.016 99.828 227.59 68.1117 212.699 43.8785Z" fill="black"/>
<path d="M249.709 202.475C273.942 187.584 281.515 155.868 266.625 131.635C251.734 107.402 220.017 99.8283 195.784 114.719L151.906 141.681L178.868 185.559C193.759 209.793 225.476 217.366 249.709 202.475Z" fill="black"/>
</svg>
