<svg width="273" height="266" viewBox="0 0 273 266" fill="none" xmlns="http://www.w3.org/2000/svg">
<path d="M50.0462 48.7236C59.2592 21.8144 88.5421 7.46891 115.451 16.682C142.36 25.8951 156.706 55.178 147.493 82.0872L130.811 130.811L82.088 114.129C55.1788 104.916 40.8332 75.6329 50.0462 48.7236Z" fill="black"/>
<path d="M48.724 211.576C21.8147 202.363 7.46921 173.08 16.6823 146.171C25.8954 119.261 55.1783 104.916 82.0875 114.129L130.811 130.811L114.129 179.534C104.916 206.443 75.6332 220.789 48.724 211.576Z" fill="black"/>
<path d="M256.291 119.337C265.504 92.4282 251.159 63.1454 224.25 53.9323C197.34 44.7192 168.057 59.0647 158.844 85.9738L142.162 134.697L190.886 151.379C217.795 160.592 247.078 146.247 256.291 119.337Z" fill="black"/>
<path d="M157.523 248.826C184.432 258.04 213.715 243.694 222.928 216.785C232.141 189.876 217.796 160.593 190.887 151.38L142.163 134.698L125.482 183.421C116.269 210.33 130.614 239.613 157.523 248.826Z" fill="black"/>
</svg>
