<svg width="329" height="317" viewBox="0 0 329 317" fill="none" xmlns="http://www.w3.org/2000/svg">
<path d="M43.1125 63.9242C51.049 28.6203 86.1023 6.43465 121.406 14.3712C156.71 22.3078 178.896 57.3612 170.959 92.6651L156.589 156.588L92.6656 142.218C57.3617 134.281 35.1761 99.2281 43.1125 63.9242Z" fill="black"/>
<path d="M63.9241 270.064C28.6202 262.128 6.43459 227.074 14.3712 191.771C22.3078 156.467 57.3611 134.281 92.665 142.217L156.588 156.588L142.218 220.511C134.281 255.815 99.228 278.001 63.9241 270.064Z" fill="black"/>
<path d="M313.7 124.754C321.637 89.4497 299.451 54.3964 264.147 46.4598C228.844 38.5232 193.79 60.7088 185.853 96.0127L171.483 159.936L235.406 174.306C270.71 182.243 305.763 160.057 313.7 124.754Z" fill="black"/>
<path d="M206.665 302.153C241.969 310.09 277.022 287.904 284.959 252.6C292.896 217.296 270.71 182.243 235.406 174.306L171.483 159.935L157.112 223.859C149.176 259.163 171.361 294.216 206.665 302.153Z" fill="black"/>
</svg>
