<svg width="330" height="320" viewBox="0 0 330 320" fill="none" xmlns="http://www.w3.org/2000/svg">
<path d="M56.2451 60.155C66.5994 26.9327 101.925 8.39453 135.147 18.7489C168.37 29.1032 186.908 64.4291 176.554 97.6514L157.806 157.806L97.6513 139.057C64.4291 128.703 45.8909 93.3773 56.2451 60.155Z" fill="black"/>
<path d="M60.1548 259.366C26.9325 249.011 8.39438 213.686 18.7487 180.463C29.1031 147.241 64.4289 128.703 97.6512 139.057L157.805 157.805L139.057 217.959C128.703 251.182 93.3771 269.72 60.1548 259.366Z" fill="black"/>
<path d="M310.879 139.516C321.234 106.294 302.696 70.9678 269.473 60.6134C236.251 50.2591 200.925 68.7972 190.571 102.019L171.822 162.174L231.977 180.922C265.199 191.276 300.525 172.738 310.879 139.516Z" fill="black"/>
<path d="M194.479 301.231C227.701 311.585 263.027 293.047 273.382 259.825C283.736 226.602 265.198 191.276 231.976 180.922L171.821 162.174L153.073 222.328C142.719 255.55 161.257 290.876 194.479 301.231Z" fill="black"/>
</svg>
