<svg width="227" height="240" viewBox="0 0 227 240" fill="none" xmlns="http://www.w3.org/2000/svg">
<mask id="path-1-outside-1_300_327" maskUnits="userSpaceOnUse" x="-24.5833" y="-21.4752" width="319.633" height="324.333" fill="black">
<rect fill="white" x="-24.5833" y="-21.4752" width="319.633" height="324.333"/>
<path d="M100.827 192.715C66.0499 245.138 37.2567 196.861 26.9 164.832C41.9237 163.792 66.6858 160.878 92.7221 155.498C94.4997 152.782 96.8233 150.029 99.7483 147.249C90.0353 150.388 80.5159 153.277 71.8554 155.567C16.2406 170.271 63.9781 107.392 103.273 39.8479C142.569 -27.6957 161.892 95.0037 102.927 144.417C101.797 145.364 100.738 146.308 99.7483 147.249C152.408 130.231 210.756 105.878 168.742 129.95C148.418 141.594 119.877 149.887 92.7221 155.498C83.6534 169.352 88.7989 182.225 100.827 192.715C102.2 190.645 103.582 188.419 104.973 186.028C150.749 107.345 225.74 188.893 202.082 212.394C187.051 227.326 127.286 215.788 100.827 192.715Z"/>
</mask>
<path d="M100.827 192.715C66.0499 245.138 37.2567 196.861 26.9 164.832C41.9237 163.792 66.6858 160.878 92.7221 155.498C94.4997 152.782 96.8233 150.029 99.7483 147.249C90.0353 150.388 80.5159 153.277 71.8554 155.567C16.2406 170.271 63.9781 107.392 103.273 39.8479C142.569 -27.6957 161.892 95.0037 102.927 144.417C101.797 145.364 100.738 146.308 99.7483 147.249C152.408 130.231 210.756 105.878 168.742 129.95C148.418 141.594 119.877 149.887 92.7221 155.498C83.6534 169.352 88.7989 182.225 100.827 192.715C102.2 190.645 103.582 188.419 104.973 186.028C150.749 107.345 225.74 188.893 202.082 212.394C187.051 227.326 127.286 215.788 100.827 192.715Z" fill="#31E300"/>
<path d="M26.9 164.832L25.5196 144.879L-0.000358403 146.645L7.8701 170.985L26.9 164.832ZM202.082 212.394L216.178 226.583V226.583L202.082 212.394ZM102.927 144.417L115.773 159.746L115.773 159.746L102.927 144.417ZM71.8554 155.567L76.9677 174.902L76.9677 174.902L71.8554 155.567ZM168.742 129.95L178.685 147.303L178.685 147.303L168.742 129.95ZM26.9 164.832L7.8701 170.985C10.8047 180.06 15.0684 190.391 20.5714 200.007C25.9392 209.386 33.2449 219.429 42.7941 226.509C52.8516 233.966 66.5088 238.764 81.8532 234.121C96.0188 229.835 107.646 218.615 117.493 203.771L100.827 192.715L84.1609 181.658C76.6195 193.027 71.6062 195.431 70.2683 195.835C70.1093 195.884 69.4002 196.44 66.6177 194.377C63.3268 191.937 59.3188 187.181 55.2881 180.138C51.3929 173.332 48.1736 165.617 45.9298 158.678L26.9 164.832ZM100.827 192.715L117.493 203.771C119.1 201.349 120.688 198.788 122.26 196.086L104.973 186.028L87.6854 175.971C86.4761 178.05 85.3002 179.941 84.1609 181.659L100.827 192.715ZM104.973 186.028L122.26 196.086C131.741 179.79 140.977 174.606 147.324 173.127C153.952 171.582 161.449 173.139 168.94 177.837C176.581 182.627 182.422 189.637 185.12 195.572C188.342 202.66 184.856 201.315 187.987 198.205L202.082 212.394L216.178 226.583C231.137 211.722 227.149 191.371 221.534 179.018C215.394 165.512 204.062 152.646 190.19 143.948C176.168 135.156 157.813 129.61 138.245 134.171C118.397 138.796 101.093 152.926 87.6854 175.971L104.973 186.028ZM202.082 212.394L187.987 198.205C189.344 196.857 188.729 198.386 182.028 198.928C176.195 199.4 168.377 198.884 159.547 197.172C141.407 193.655 123.606 186.042 113.972 177.641L100.827 192.715L87.6822 207.788C104.507 222.461 129.818 232.153 151.934 236.441C163.231 238.631 174.826 239.642 185.253 238.798C194.813 238.025 207.305 235.397 216.178 226.583L202.082 212.394ZM100.827 192.715L113.972 177.641C109.702 173.917 108.473 171.294 108.198 170.253C108.092 169.85 108.089 169.585 108.147 169.269C108.212 168.911 108.454 167.983 109.456 166.451L92.7221 155.498L75.9883 144.544C68.6716 155.722 66.2772 168.193 69.5283 180.483C72.5657 191.965 79.9243 201.023 87.6822 207.788L100.827 192.715ZM92.7221 155.498L109.456 166.451C110.258 165.225 111.534 163.639 113.528 161.745L99.7483 147.249L85.9689 132.753C82.1122 136.419 78.7409 140.339 75.9883 144.544L92.7221 155.498ZM99.7483 147.249L113.528 161.745C114.198 161.107 114.944 160.44 115.773 159.746L102.927 144.417L90.081 129.088C88.6498 130.287 87.2782 131.508 85.9689 132.753L99.7483 147.249ZM102.927 144.417L115.773 159.746C151.735 129.609 162.605 79.2704 159.878 46.6094C159.171 38.1351 157.484 29.7208 154.398 22.4283C151.527 15.6436 146.104 6.74739 136.033 2.38838C124.426 -2.63471 113.203 0.967533 105.254 6.70489C97.8074 12.0797 91.5144 20.2882 85.9861 29.7906L103.273 39.8479L120.561 49.9052C124.856 42.5217 127.763 39.7894 128.664 39.1391C129.063 38.8513 125.335 41.3441 120.145 39.0979C116.489 37.5157 116.403 35.2826 117.561 38.0178C118.504 40.2453 119.539 44.2078 120.017 49.9378C122.034 74.0938 113.083 109.811 90.081 129.088L102.927 144.417ZM103.273 39.8479L85.9861 29.7906C76.2488 46.5278 66.1991 62.6217 56.833 78.1735C47.7389 93.2736 39.2071 107.995 33.6885 120.447C30.9403 126.647 28.5144 133.209 27.3321 139.568C26.2334 145.477 25.5791 154.474 30.3218 162.952C35.7783 172.706 45.2421 176.543 53.3867 177.461C60.9365 178.312 69.0702 176.99 76.9677 174.902L71.8554 155.567L66.743 136.231C63.9116 136.98 61.756 137.387 60.1762 137.581C59.3983 137.677 58.82 137.713 58.4178 137.721C58.0132 137.73 57.8422 137.71 57.8656 137.712C58.1294 137.742 62.5053 138.552 65.2304 143.423C67.2416 147.018 66.2123 149.278 66.6581 146.88C67.0205 144.931 68.0588 141.616 70.2578 136.654C74.6337 126.781 81.9281 114.037 91.0986 98.8101C99.9971 84.0347 110.65 66.9398 120.561 49.9052L103.273 39.8479ZM71.8554 155.567L76.9677 174.902C86.1048 172.486 95.9969 169.479 105.898 166.28L99.7483 147.249L93.5982 128.218C84.0737 131.296 74.927 134.067 66.743 136.231L71.8554 155.567ZM99.7483 147.249L105.898 166.28C119.328 161.94 133.058 157.152 145.292 152.847C157.683 148.487 168.283 144.713 175.966 142.2C179.876 140.921 182.471 140.155 183.931 139.805C184.806 139.595 184.433 139.741 183.406 139.816C183.02 139.844 181.159 139.984 178.708 139.481C177.06 139.142 168.973 137.267 164.923 128.464C160.822 119.551 164.779 112.122 165.661 110.582C166.927 108.37 168.294 107.056 168.555 106.801C169.272 106.106 169.558 105.989 168.632 106.629C167.035 107.732 163.957 109.641 158.8 112.596L168.742 129.95L178.685 147.303C184.031 144.24 188.32 141.645 191.368 139.539C192.765 138.574 194.693 137.177 196.423 135.497C197.191 134.751 198.907 133.019 200.372 130.459C201.453 128.572 205.458 120.866 201.261 111.745C197.114 102.733 188.787 100.716 186.76 100.3C183.932 99.7182 181.555 99.8451 180.522 99.9198C178.2 100.088 176.008 100.57 174.59 100.911C171.464 101.661 167.579 102.857 163.53 104.182C155.295 106.875 144.061 110.876 132.014 115.115C119.809 119.41 106.498 124.049 93.5982 128.218L99.7483 147.249ZM168.742 129.95L158.8 112.596C141.282 122.633 115.254 130.42 88.6751 135.912L92.7221 155.498L96.7692 175.084C124.5 169.354 155.554 160.556 178.685 147.303L168.742 129.95ZM92.7221 155.498L88.6751 135.912C63.5705 141.099 39.7019 143.898 25.5196 144.879L26.9 164.832L28.2803 184.784C44.1455 183.686 69.8011 180.657 96.7692 175.084L92.7221 155.498Z" fill="black" mask="url(#path-1-outside-1_300_327)"/>
</svg>
