<svg width="378" height="351" viewBox="0 0 378 351" fill="none" xmlns="http://www.w3.org/2000/svg">
<mask id="path-1-outside-1_300_326" maskUnits="userSpaceOnUse" x="-102.84" y="-33.9706" width="506.757" height="496.26" fill="black">
<rect fill="white" x="-102.84" y="-33.9706" width="506.757" height="496.26"/>
<path d="M65.7036 151.332C-22.4292 91.785 59.604 43.7966 113.902 26.7453C115.445 52.1601 120.017 94.0661 128.74 138.162C133.306 141.206 137.927 145.173 142.586 150.158C137.419 133.692 132.67 117.557 128.923 102.882C104.858 8.64624 210.483 90.2538 324.114 157.655C437.744 225.057 230.025 255.969 147.329 155.573C145.744 153.649 144.163 151.846 142.586 150.158C170.604 239.432 210.941 338.427 170.846 267.051C151.45 232.523 137.838 184.152 128.74 138.162C105.447 122.631 83.6094 131.146 65.7036 151.332C69.1826 153.682 72.9268 156.051 76.9483 158.436C209.32 236.954 70.3768 362.57 30.9833 322.238C5.95345 296.611 26.3151 195.735 65.7036 151.332Z"/>
</mask>
<path d="M65.7036 151.332C-22.4292 91.785 59.604 43.7966 113.902 26.7453C115.445 52.1601 120.017 94.0661 128.74 138.162C133.306 141.206 137.927 145.173 142.586 150.158C137.419 133.692 132.67 117.557 128.923 102.882C104.858 8.64624 210.483 90.2538 324.114 157.655C437.744 225.057 230.025 255.969 147.329 155.573C145.744 153.649 144.163 151.846 142.586 150.158C170.604 239.432 210.941 338.427 170.846 267.051C151.45 232.523 137.838 184.152 128.74 138.162C105.447 122.631 83.6094 131.146 65.7036 151.332C69.1826 153.682 72.9268 156.051 76.9483 158.436C209.32 236.954 70.3768 362.57 30.9833 322.238C5.95345 296.611 26.3151 195.735 65.7036 151.332Z" fill="#12B4FF"/>
<path d="M113.902 26.7453L133.866 25.5339L132.316 -6.8911e-05L107.91 7.66406L113.902 26.7453ZM30.9833 322.238L16.6756 336.212L16.6756 336.212L30.9833 322.238ZM147.329 155.573L131.891 168.289L131.891 168.289L147.329 155.573ZM128.923 102.882L109.544 107.831L109.544 107.831L128.923 102.882ZM170.846 267.051L153.408 276.846V276.846L170.846 267.051ZM113.902 26.7453L107.91 7.66406C93.2645 12.2633 76.6443 18.9707 61.2836 27.5899C46.1606 36.0757 30.9129 47.16 20.4269 61.0553C9.55978 75.4558 3.13899 94.0208 9.22677 114.772C14.9679 134.341 30.7456 151.849 54.5068 167.904L65.7036 151.332L76.9004 134.76C56.5953 121.04 49.5774 110.22 47.6091 103.511C45.9876 97.9842 46.9438 92.3215 52.3557 85.1501C58.1487 77.4736 68.0819 69.642 80.8574 62.4735C93.3952 55.4383 107.391 49.753 119.894 45.8266L113.902 26.7453ZM65.7036 151.332L54.5068 167.904C58.3358 170.491 62.4133 173.068 66.7449 175.638L76.9483 158.436L87.1516 141.235C83.4402 139.033 80.0294 136.874 76.9005 134.76L65.7036 151.332ZM76.9483 158.436L66.7449 175.638C96.4798 193.275 108.177 211.776 111.634 227.201C115.155 242.906 111.006 259.297 101.524 274.138C91.947 289.127 77.9738 300.781 65.2769 306.424C51.422 312.581 46.231 309.225 45.291 308.263L30.9833 322.238L16.6756 336.212C35.4324 355.416 62.3817 351.483 81.5215 342.977C101.819 333.956 121.695 316.861 135.231 295.674C148.863 274.337 157.092 247.122 150.666 218.452C144.177 189.501 123.602 162.856 87.1516 141.235L76.9483 158.436ZM30.9833 322.238L45.291 308.263C44.0713 307.014 41.1497 301.847 40.2577 289.523C39.4286 278.066 40.595 263.553 43.7881 247.798C50.2711 215.81 64.137 183.236 80.6654 164.604L65.7036 151.332L50.7419 138.059C27.8817 163.83 11.8725 203.896 4.58509 239.853C0.892865 258.071 -0.799735 276.357 0.362048 292.41C1.46103 307.595 5.38045 324.648 16.6756 336.212L30.9833 322.238ZM65.7036 151.332L80.6654 164.604C88.0829 156.242 94.7756 152.104 100.153 150.731C104.72 149.564 110.226 149.855 117.645 154.802L128.74 138.162L139.835 121.521C123.962 110.938 106.903 107.721 90.2509 111.976C74.4093 116.023 61.2301 126.236 50.7419 138.059L65.7036 151.332ZM128.74 138.162L117.645 154.802C120.73 156.858 124.193 159.769 127.974 163.814L142.586 150.158L157.198 136.502C151.662 130.578 145.882 125.553 139.835 121.521L128.74 138.162ZM142.586 150.158L127.974 163.815C129.25 165.18 130.557 166.668 131.891 168.289L147.329 155.573L162.766 142.857C160.932 140.63 159.076 138.511 157.198 136.502L142.586 150.158ZM147.329 155.573L131.891 168.289C178.615 225.013 258.521 243.405 310.839 239.482C324.228 238.478 336.938 235.96 347.556 231.572C357.664 227.394 368.923 220.224 374.345 207.982C380.444 194.211 376.575 180.366 368.849 169.468C361.481 159.076 349.575 149.504 334.317 140.454L324.114 157.655L313.91 174.857C327.06 182.657 333.519 188.795 336.218 192.602C338.559 195.904 336.459 194.748 337.771 191.784C338.406 190.35 338.324 192.106 332.279 194.604C326.744 196.891 318.491 198.796 307.848 199.594C264.041 202.879 198.739 186.53 162.766 142.857L147.329 155.573ZM324.114 157.655L334.317 140.454C306.057 123.691 278.648 106.259 252.756 90.3652C227.313 74.7474 203.226 60.5454 183.141 51.4393C173.123 46.8976 163.181 43.1909 153.968 41.3972C145.204 39.6908 133.885 39.0702 123.673 44.6699C112.18 50.9727 107.202 62.1519 105.885 73.0075C104.641 83.2688 106.294 95.1032 109.544 107.831L128.923 102.882L148.301 97.9336C145.535 87.1019 145.225 80.8725 145.595 77.8227C145.892 75.3672 146.106 77.9879 142.906 79.7427C140.988 80.7944 141.065 79.6361 146.324 80.6599C151.134 81.5964 157.841 83.888 166.624 87.8701C184.141 95.8116 206.261 108.76 231.83 124.455C256.949 139.874 285.355 157.919 313.91 174.857L324.114 157.655ZM128.923 102.882L109.544 107.831C113.414 122.983 118.277 139.492 123.504 156.147L142.586 150.158L161.669 144.17C156.56 127.892 151.926 112.131 148.301 97.9335L128.923 102.882ZM142.586 150.158L123.504 156.147C130.592 178.731 138.438 201.867 145.539 222.602C152.693 243.493 158.998 261.689 163.197 274.905C165.319 281.582 166.72 286.426 167.426 289.476C167.812 291.147 167.779 291.402 167.742 290.821C167.732 290.659 167.6 288.975 168.097 286.659C168.422 285.144 170.315 277.156 179.08 273.213C187.954 269.22 195.254 273.222 196.668 274.048C198.75 275.264 199.909 276.519 199.993 276.606C200.345 276.976 200.022 276.692 198.843 274.954C196.659 271.734 193.241 266.083 188.283 257.255L170.846 267.051L153.408 276.846C158.473 285.863 162.567 292.731 165.742 297.411C167.242 299.623 169.06 302.133 171.062 304.23C171.97 305.181 173.831 307.033 176.498 308.59C178.495 309.756 186.261 313.844 195.491 309.691C204.61 305.589 206.747 297.196 207.208 295.043C207.841 292.089 207.741 289.533 207.661 288.276C207.484 285.505 206.909 282.679 206.397 280.465C205.306 275.746 203.485 269.608 201.319 262.792C196.944 249.022 190.418 230.191 183.381 209.643C176.291 188.938 168.59 166.222 161.669 144.17L142.586 150.158ZM170.846 267.051L188.283 257.255C170.471 225.548 157.343 179.693 148.36 134.28L128.74 138.162L109.12 142.043C118.332 188.61 132.428 239.499 153.408 276.846L170.846 267.051ZM128.74 138.162L148.36 134.28C139.822 91.1183 135.357 50.1068 133.866 25.5339L113.902 26.7453L93.9391 27.9568C95.5324 54.2134 100.213 97.0138 109.12 142.043L128.74 138.162Z" fill="black" mask="url(#path-1-outside-1_300_326)"/>
</svg>
