<svg width="209" height="201" viewBox="0 0 209 201" fill="none" xmlns="http://www.w3.org/2000/svg">
<mask id="path-1-outside-1_300_328" maskUnits="userSpaceOnUse" x="-3.59991" y="-8.44044" width="220.082" height="212.597" fill="black">
<rect fill="white" x="-3.59991" y="-8.44044" width="220.082" height="212.597"/>
<path d="M158 103.303C209.92 109.632 184.756 149.014 164.804 168.64C158.436 157.859 147.048 140.538 133.353 123.187C130.673 122.877 127.761 122.175 124.605 121.036C130.555 127.088 136.248 133.088 141.175 138.673C172.817 174.538 108.298 162.469 43.4556 158.413C-21.3867 154.356 62.626 94.2984 121.316 119.728C122.44 120.215 123.537 120.651 124.605 121.036C92.3438 88.2289 52.512 53.9253 86.0519 76.1921C102.277 86.9635 119.07 105.091 133.353 123.187C147.029 124.769 154.682 116.15 158 103.303C155.951 103.053 153.781 102.855 151.486 102.711C75.9495 97.9855 108.641 11.8723 134.921 20.706C151.618 26.3188 165.298 75.0415 158 103.303Z"/>
</mask>
<path d="M158 103.303C209.92 109.632 184.756 149.014 164.804 168.64C158.436 157.859 147.048 140.538 133.353 123.187C130.673 122.877 127.761 122.175 124.605 121.036C130.555 127.088 136.248 133.088 141.175 138.673C172.817 174.538 108.298 162.469 43.4556 158.413C-21.3867 154.356 62.626 94.2984 121.316 119.728C122.44 120.215 123.537 120.651 124.605 121.036C92.3438 88.2289 52.512 53.9253 86.0519 76.1921C102.277 86.9635 119.07 105.091 133.353 123.187C147.029 124.769 154.682 116.15 158 103.303C155.951 103.053 153.781 102.855 151.486 102.711C75.9495 97.9855 108.641 11.8723 134.921 20.706C151.618 26.3188 165.298 75.0415 158 103.303Z" fill="#FF12F7"/>
<path d="M164.804 168.64L147.583 178.811L160.593 200.837L178.829 182.898L164.804 168.64ZM134.921 20.706L128.548 39.6636L128.548 39.6636L134.921 20.706ZM121.316 119.728L129.267 101.377L129.267 101.377L121.316 119.728ZM141.175 138.673L156.173 125.441L156.173 125.441L141.175 138.673ZM86.0519 76.1921L74.9899 92.8544L74.9899 92.8544L86.0519 76.1921ZM164.804 168.64L178.829 182.898C184.618 177.204 190.867 170.01 196.116 162.111C201.215 154.439 206.233 144.821 208.054 134.439C209.983 123.434 208.379 110.317 198.293 99.6685C189.055 89.9146 175.47 85.2843 160.42 83.4497L158 103.303L155.58 123.156C160.808 123.793 164.291 124.76 166.499 125.655C168.672 126.537 169.292 127.217 169.252 127.175C168.428 126.304 169.02 125.446 168.655 127.531C168.18 130.239 166.411 134.541 162.802 139.971C159.344 145.174 154.966 150.263 150.779 154.382L164.804 168.64ZM158 103.303L160.42 83.4497C157.951 83.1488 155.39 82.9162 152.735 82.7501L151.486 102.711L150.237 122.672C152.172 122.793 153.95 122.957 155.58 123.156L158 103.303ZM151.486 102.711L152.735 82.7501C137.747 81.8125 131.433 77.1477 128.717 73.8788C125.816 70.3884 124.291 65.2046 124.931 58.5335C125.588 51.687 128.389 45.3694 131.355 41.6992C135.118 37.0435 134.063 41.5175 128.548 39.6636L134.921 20.706L141.293 1.74838C122.638 -4.52235 107.643 7.4031 100.245 16.5568C92.0508 26.696 86.4729 40.5457 85.1138 54.7141C83.7379 69.0578 86.5607 85.7362 97.9536 99.445C109.531 113.375 127.456 121.247 150.237 122.672L151.486 102.711ZM134.921 20.706L128.548 39.6636C125.889 38.7696 126.723 37.8036 129.496 42.3762C131.818 46.2048 134.24 51.905 136.199 58.9024C140.248 73.3676 141.092 88.7905 138.635 98.3019L158 103.303L177.365 108.304C182.207 89.5538 179.859 66.4848 174.719 48.12C172.082 38.7025 168.41 29.4033 163.699 21.6345C159.439 14.6099 152.302 5.44878 141.293 1.74838L134.921 20.706ZM158 103.303L138.635 98.3019C138.126 100.274 137.557 101.654 137.072 102.554C136.594 103.439 136.287 103.696 136.328 103.66C136.424 103.575 136.663 103.426 136.901 103.356C137.097 103.299 136.776 103.45 135.651 103.32L133.353 123.187L131.055 143.055C142.94 144.429 154.081 141.341 162.794 133.652C170.881 126.516 175.127 116.967 177.365 108.304L158 103.303ZM133.353 123.187L135.651 103.32C134.739 103.214 133.34 102.926 131.393 102.224L124.605 121.036L117.816 139.849C122.182 141.424 126.606 142.54 131.055 143.055L133.353 123.187ZM124.605 121.036L131.393 102.224C130.739 101.988 130.031 101.708 129.267 101.377L121.316 119.728L113.364 138.08C114.85 138.723 116.334 139.314 117.816 139.849L124.605 121.036ZM121.316 119.728L129.267 101.377C92.1647 85.3006 49.5231 96.3739 25.646 110.939C19.412 114.742 13.4744 119.346 8.90202 124.709C4.68742 129.652 -0.537081 137.831 0.0440075 148.2C0.718634 160.238 8.59975 168.136 16.5207 172.272C23.8923 176.12 32.8782 177.79 42.2068 178.374L43.4556 158.413L44.7044 138.452C41.4486 138.248 39.0533 137.89 37.3692 137.513C35.6471 137.128 34.9971 136.795 35.0336 136.814C35.367 136.988 39.6319 139.727 39.9813 145.962C40.2372 150.527 37.9784 152.258 39.3401 150.661C40.344 149.483 42.5933 147.456 46.4763 145.087C63.0674 134.967 91.777 128.726 113.364 138.08L121.316 119.728ZM43.4556 158.413L42.2068 178.374C58.2457 179.377 73.8534 180.846 88.978 182.023C103.577 183.159 117.893 184.037 129.442 183.491C135.188 183.219 141.267 182.561 146.797 180.967C151.888 179.5 159.732 176.337 164.922 168.69C170.934 159.833 170.09 150.151 167.493 143.085C165.102 136.581 160.775 130.658 156.173 125.441L141.175 138.673L126.178 151.904C129.486 155.654 130.064 157.199 129.948 156.884C129.626 156.008 128.426 151.235 131.826 146.226C134.404 142.428 137.379 142.053 135.72 142.532C134.499 142.883 131.945 143.328 127.552 143.536C118.821 143.949 106.827 143.291 92.0805 142.143C77.8596 141.037 61.0866 139.476 44.7044 138.452L43.4556 158.413ZM141.175 138.673L156.173 125.441C150.919 119.487 144.954 113.206 138.865 107.014L124.605 121.036L110.344 135.059C116.156 140.969 121.576 146.689 126.178 151.904L141.175 138.673ZM124.605 121.036L138.865 107.014C130.605 98.6132 121.906 90.1638 114.148 82.6713C106.27 75.0633 99.558 68.6282 94.8635 63.888C92.4653 61.4664 91.0113 59.9035 90.2999 59.0591C89.848 58.5228 90.2403 58.9147 90.8229 59.8943C91.0485 60.2736 92.0263 61.9137 92.6821 64.3617C93.1261 66.0191 95.0703 74.1123 89.0019 81.6917C82.8579 89.3655 74.421 89.1623 72.6151 89.0617C70.036 88.9181 68.2043 88.2746 67.8037 88.1349C66.7484 87.7668 66.3579 87.4881 67.1356 87.9148C68.4197 88.6193 70.8877 90.131 74.9899 92.8544L86.0519 76.1921L97.1138 59.5298C92.831 56.6865 89.207 54.3994 86.3756 52.846C85.0956 52.1437 83.1416 51.1214 80.9774 50.3665C80.0223 50.0333 77.7499 49.2857 74.8387 49.1236C72.7008 49.0045 64.0405 48.8685 57.777 56.6916C51.589 64.4204 53.5174 72.745 54.0445 74.7125C54.7834 77.4705 55.943 79.4993 56.4444 80.3423C57.5787 82.2493 58.8981 83.8687 59.7096 84.8319C61.5247 86.9863 63.9416 89.5096 66.4425 92.0348C71.5461 97.1881 78.7445 104.089 86.3605 111.444C94.096 118.915 102.474 127.056 110.344 135.059L124.605 121.036ZM86.0519 76.1921L74.9899 92.8544C88.5199 101.837 103.735 117.944 117.654 135.579L133.353 123.187L149.052 110.796C134.404 92.238 116.033 72.0901 97.1138 59.5298L86.0519 76.1921ZM133.353 123.187L117.654 135.579C130.76 152.182 141.645 168.757 147.583 178.811L164.804 168.64L182.024 158.469C175.228 146.962 163.337 128.893 149.052 110.796L133.353 123.187Z" fill="black" mask="url(#path-1-outside-1_300_328)"/>
</svg>
