<svg width="604" height="152" viewBox="0 0 604 152" fill="none" xmlns="http://www.w3.org/2000/svg">
<path d="M549.923 1.5L443.967 1.5L427.334 38.4371L478.464 147.996H585.036L601.668 111.685L590.58 94.1557L524.05 94.1557L515.425 77.2523L564.707 77.2523L553.619 55.3405H507.417L498.793 35.3068H564.707L549.923 1.5Z" fill="#31E300" stroke="black" stroke-width="3"/>
<path d="M445.668 6L495.715 111.059L600.439 111.059L586.887 147.996H480.315L426.721 38.4365L445.668 6Z" fill="#31E300"/>
<path d="M480.315 147.996H586.887L600.439 111.059L495.715 111.059L445.668 6L426.721 38.4365L480.315 147.996ZM495.715 111.059L480.315 147.996" stroke="black" stroke-width="3"/>
<path d="M445.204 6.50781L339.248 6.50781L320.768 44.071L374.98 147.369L480.933 147.996L495.104 112.31L479.704 77.2511L407.011 77.8778L392.842 40.3146L460.168 39L445.204 6.50781Z" fill="#FF12F7" stroke="black" stroke-width="3"/>
<path d="M390.374 112.937L495.717 111.059L479.7 77.2523L414.402 77.2523L397.153 39.6892L461.168 39L443.352 1.5L337.396 1.5L390.374 112.937Z" fill="#FF12F7" stroke="black" stroke-width="3"/>
<path d="M265.941 144.867L282.573 105.425L265.325 69.1143L248.076 107.929L265.941 144.867Z" fill="#FFF712" stroke="black" stroke-width="3"/>
<path d="M336.07 1.5L389.454 110.885L376.209 147.37H268.405L283.913 109.628L235.756 4.63026L266.557 4.00421L281.459 37.333L317.048 37.333L300.481 1.5L336.07 1.5Z" fill="#FFF712"/>
<path d="M283.913 109.628L268.405 147.37H376.209L389.454 110.885L336.07 1.5L300.481 1.5L317.048 37.333L281.459 37.333L266.557 4.00421L235.756 4.63026L283.913 109.628ZM389.454 110.885L283.913 109.628" stroke="black" stroke-width="3"/>
<path d="M233.91 4.00439L265.943 70.992H334.322" stroke="black" stroke-width="3"/>
<path d="M202.491 148.622H160.602L177.85 114.188L211.115 115.441L202.491 148.622Z" fill="#12B4FF"/>
<path d="M160.602 148.622L159.26 147.95L158.173 150.122H160.602V148.622ZM202.491 148.622V150.122H203.651L203.943 148.999L202.491 148.622ZM211.115 115.441L212.567 115.818C212.682 115.378 212.59 114.91 212.319 114.545C212.048 114.181 211.626 113.959 211.172 113.942L211.115 115.441ZM177.85 114.188L177.907 112.69L176.942 112.653L176.509 113.517L177.85 114.188ZM160.602 148.622V150.122H202.491V148.622V147.122H160.602V148.622ZM202.491 148.622L203.943 148.999L212.567 115.818L211.115 115.441L209.664 115.063L201.039 148.245L202.491 148.622ZM211.115 115.441L211.172 113.942L177.907 112.69L177.85 114.188L177.794 115.687L211.059 116.94L211.115 115.441ZM177.85 114.188L176.509 113.517L159.26 147.95L160.602 148.622L161.943 149.294L179.191 114.86L177.85 114.188Z" fill="black"/>
<path d="M270.253 147.37L234.523 146.744L248.076 112.312H283.805L270.253 147.37Z" fill="#12B4FF" stroke="black" stroke-width="3"/>
<path d="M211.114 114.189H177.233L126.719 4.00439L233.907 4.62984L254.851 52.2104L235.139 62.2273L266.556 75.3744L281.956 111.685L247.459 112.311L230.827 75.3744H195.713L211.114 114.189Z" fill="#12B4FF" stroke="black" stroke-width="3"/>
<path d="M209.267 22.7856H177.85L179.082 29.6722H211.115L209.267 22.7856Z" fill="white" stroke="black" stroke-width="3"/>
<path d="M224.054 132.345L233.294 146.744L248.078 111.686L230.214 75.3745H217.277L233.294 109.181L224.054 132.345Z" fill="#12B4FF"/>
<path d="M233.294 146.744L232.032 147.554C232.332 148.023 232.868 148.286 233.422 148.238C233.977 148.191 234.46 147.84 234.676 147.327L233.294 146.744ZM224.054 132.345L222.66 131.789L222.374 132.506L222.791 133.155L224.054 132.345ZM233.294 109.181L234.687 109.737L234.929 109.13L234.649 108.539L233.294 109.181ZM217.277 75.3745V73.8745H214.907L215.922 76.0167L217.277 75.3745ZM230.214 75.3745L231.56 74.7123L231.148 73.8745H230.214V75.3745ZM248.078 111.686L249.461 112.268L249.727 111.638L249.424 111.023L248.078 111.686ZM233.294 146.744L234.556 145.934L225.316 131.535L224.054 132.345L222.791 133.155L232.032 147.554L233.294 146.744ZM224.054 132.345L225.447 132.901L234.687 109.737L233.294 109.181L231.901 108.626L222.66 131.789L224.054 132.345ZM233.294 109.181L234.649 108.539L218.633 74.7323L217.277 75.3745L215.922 76.0167L231.938 109.824L233.294 109.181ZM217.277 75.3745V76.8745H230.214V75.3745V73.8745H217.277V75.3745ZM230.214 75.3745L228.868 76.0367L246.733 112.348L248.078 111.686L249.424 111.023L231.56 74.7123L230.214 75.3745ZM248.078 111.686L246.696 111.103L231.912 146.161L233.294 146.744L234.676 147.327L249.461 112.268L248.078 111.686Z" fill="black"/>
<path d="M158.138 70.3666L177.85 112.938L167.994 148.622L54.0299 149.249L1.66797 46.5766L21.3807 4.00439L125.489 4.00439L147.665 52.8371L129.185 63.48L158.138 70.3666Z" fill="#FF9C12" stroke="black" stroke-width="3"/>
<path d="M1.66797 46.5752L15.8365 15.8986L20.7647 6.50781L70.6625 114.189L53.4139 148.622L1.66797 46.5752Z" fill="#FF9C12" stroke="black" stroke-width="3"/>
<path d="M167.993 148.622L54.0293 150.5L71.2779 114.189H177.545L167.993 148.622Z" fill="#FF9C12" stroke="black" stroke-width="3" stroke-linejoin="round"/>
<path d="M97.7648 22.1597H66.3477L67.5797 29.0462H99.6129L97.7648 22.1597Z" fill="white" stroke="black" stroke-width="3"/>
<path d="M121.791 84.1382H92.8379L96.534 91.0248H126.103L121.791 84.1382Z" fill="white" stroke="black" stroke-width="3"/>
</svg>
