<svg width="766" height="115" viewBox="0 0 766 115" fill="none" xmlns="http://www.w3.org/2000/svg">
<path d="M638.281 0.389181C642.531 -0.00374352 650.741 0.232689 655.131 0.245572L684.997 0.258236L710.249 0.359854C714.179 0.344816 720.573 -0.139261 724.288 0.448542L725.213 1.7992C723.963 2.48545 640.667 3.0259 638.759 2.13215L638.281 0.389181Z" fill="black"/>
<path d="M683.07 112.564C705.612 112.107 728.461 112.782 751.025 112.572C752.117 112.562 752.424 112.769 753.218 113.417L753.165 114.115L752.271 114.61C745.464 114.89 684.965 115.401 681.882 114.448L681.482 113.645L681.903 112.847L683.07 112.564Z" fill="black"/>
<path d="M681.088 84.7845C684.807 84.201 697.442 84.5026 701.757 84.4767C717.76 84.3799 733.9 84.7343 749.898 84.4041C751.446 84.372 752.117 84.3289 753.126 85.2932L752.986 86.5952C729.795 87.4007 705.617 86.4175 682.351 86.5591C681.671 86.5631 681.338 85.3482 681.088 84.7845Z" fill="black"/>
<path d="M681.225 28.5153C688.592 27.857 714.889 28.3486 724.226 28.6015C724.612 28.612 724.778 29.8779 724.927 30.4852C714.963 30.5107 692.882 30.9104 682.01 30.2917C681.637 30.2706 681.396 29.0777 681.225 28.5153Z" fill="black"/>
<path d="M695.43 56.5181C699.324 56.4302 723.322 55.7737 724.647 57.1557L724.454 58.6058C721.037 58.6019 697.438 59.0992 695.899 58.2405L695.43 56.5181Z" fill="black"/>
<path d="M635.032 8.32666C635.514 8.44846 636.085 8.76197 636.545 8.9871C636.707 10.6259 628.708 27.0024 627.3 29.1038L625.914 28.3541C625.581 26.8477 633.646 10.534 635.032 8.32666Z" fill="black"/>
<path d="M677.743 92.6929C678.726 92.8094 678.857 92.8305 679.686 93.3683C678.155 97.9496 673.024 108.223 670.792 113.011C669.928 112.886 669.757 112.811 668.954 112.459C668.722 110.731 676.467 95.3399 677.743 92.6929Z" fill="black"/>
<path d="M639.947 8.42773L641.338 8.71443C643.153 9.84096 651.157 26.8212 650.696 28.9213C649.793 28.7872 649.705 28.6764 648.907 28.1817C647.105 25.4234 640.276 11.0225 639.947 8.42773Z" fill="black"/>
<path d="M653.885 92.6821L655.762 92.9952C657.727 94.3644 664.108 109.574 665.537 112.895L663.665 112.697C661.582 111.05 655.328 96.1171 653.885 92.6821Z" fill="black"/>
<path d="M763.756 92.6587C764.343 92.7937 764.957 93.0228 765.532 93.2184C765.69 94.8801 757.958 110.474 756.726 113.067C756.287 112.96 755.598 112.713 755.147 112.565C754.765 110.457 762.326 95.654 763.756 92.6587Z" fill="black"/>
<path d="M625.709 36.6865L627.226 36.8277C629.143 38.3275 635.897 53.6888 636.892 56.6858C636.3 56.6616 635.173 56.7206 634.884 56.3613C632.963 53.979 625.928 38.7923 625.709 36.6865Z" fill="black"/>
<path d="M726.016 8.4585C726.893 8.61767 727.849 8.65944 728.327 9.54546C729.958 12.5847 737.159 26.4716 736.791 29.0013C736.3 28.9155 735.296 28.682 735.05 28.3114C733.063 25.3244 726.169 10.8545 726.016 8.4585Z" fill="black"/>
<path d="M653.984 36.5151L655.756 36.8401C657.765 38.3553 664.133 53.5077 665.58 56.7541L663.672 56.5303C661.598 54.8321 655.103 39.7281 653.984 36.5151Z" fill="black"/>
<path d="M725.977 36.604C726.52 36.6317 727.621 36.7073 727.902 37.1079C730.165 40.3481 736.59 54.1691 737.055 57.0707C736.134 56.8601 735.892 56.7154 735.033 56.2995C733.116 53.5491 726.345 39.2348 725.977 36.604Z" fill="black"/>
<path d="M754.482 64.6392L756.351 64.9777C758.438 66.8636 764.692 81.4967 765.999 84.8288L764.28 84.6626C762.166 83.0999 755.667 67.8213 754.482 64.6392Z" fill="black"/>
<path d="M669.983 65.3662C670.186 65.5598 670.455 65.9019 670.783 66.3994C671.154 66.9618 671.573 67.6818 672.025 68.5166C672.929 70.1854 673.947 72.2862 674.944 74.4443C676.686 78.214 678.35 82.1393 679.206 84.1973L678.372 84.1152C678.178 83.9128 677.918 83.5704 677.604 83.0801C677.237 82.5075 676.817 81.7753 676.364 80.9287C675.459 79.2365 674.429 77.1097 673.425 74.9316C671.688 71.165 670.037 67.2694 669.239 65.2393L669.983 65.3662Z" fill="black" stroke="black"/>
<path d="M639.93 64.7168C640.745 64.774 641.017 64.8632 641.811 65.08C643.548 67.2464 650.565 82.2467 651.065 85.0336C650.455 84.9038 649.806 84.7121 649.205 84.549C647.526 82.7704 640.478 67.4311 639.93 64.7168Z" fill="black"/>
<path d="M482.338 0.272086C491.701 0.217694 566.546 -0.391084 568.493 0.727404L568.901 2.39487C550.289 2.77065 504.341 2.42517 483.07 2.20654C482.684 2.20254 482.487 0.878709 482.338 0.272086Z" fill="black"/>
<path d="M525.064 84.7584C530.739 84.109 550.435 84.3468 557.141 84.4981C568.587 84.7562 585.99 83.8491 596.857 84.6542L597.3 85.2997L597.041 86.6505C576.999 86.8013 547.146 86.8184 526.275 86.5384C525.814 86.5322 525.371 85.3485 525.064 84.7584Z" fill="black"/>
<path d="M526.51 112.565L574.414 112.53C578.037 112.524 594.338 112.247 596.917 112.875L597.798 114.358C595.812 114.733 593.066 114.752 591.001 114.748C570.169 114.7 549.337 114.779 528.51 114.699C526.944 114.693 525.694 114.711 525.633 113.04L526.51 112.565Z" fill="black"/>
<path d="M539.623 56.5462C550.591 56.052 584.391 56.4196 596.895 56.7322C597.281 56.7419 597.342 57.9449 597.439 58.5641C591.036 58.6283 541.947 59.1313 540.084 58.2651L539.623 56.5462Z" fill="black"/>
<path d="M525.182 28.5039C532.94 27.6839 558.933 28.5294 568.086 28.5589C568.525 28.5602 568.827 29.6313 569.077 30.2126C566.81 30.7724 528.431 30.8146 525.958 30.2957L525.182 28.5039Z" fill="black"/>
<path d="M478.574 8.4043L480.175 8.85984L480.46 9.50753C478.482 14.9454 474.167 23.3966 471.579 28.8481C471.066 28.7255 470.439 28.5267 469.917 28.3759C469.492 26.7173 477.32 11.0676 478.574 8.4043Z" fill="black"/>
<path d="M483.832 8.48828L485.481 8.70858C487.591 10.1583 494.112 25.567 495.314 28.7013L493.608 28.568C491.555 27.0414 484.955 11.612 483.832 8.48828Z" fill="black"/>
<path d="M521.592 92.6675L523.167 93.0914L523.469 93.7144C521.456 99.213 517.216 107.535 514.61 113.038C514.04 112.924 513.431 112.705 512.878 112.523C512.505 110.813 520.321 95.3229 521.592 92.6675Z" fill="black"/>
<path d="M570.051 8.43652C570.902 8.57679 571.906 8.56888 572.309 9.30847C574.011 12.4392 581.138 26.2105 580.901 28.9221C579.962 28.7858 579.875 28.6856 579.033 28.1984C577.23 25.4401 570.441 11.0633 570.051 8.43652Z" fill="black"/>
<path d="M526.809 36.6025L528.664 36.8492C530.664 38.4383 536.931 53.3581 538.369 56.7403L536.558 56.5706C534.54 55.076 528.054 39.7302 526.809 36.6025Z" fill="black"/>
<path d="M607.591 92.666L609.293 93.1646C609.643 94.9323 601.833 110.392 600.535 113.104C599.6 112.929 599.421 112.928 598.789 112.235C599.263 109.612 606.017 95.9564 607.591 92.666Z" fill="black"/>
<path d="M498.176 92.9126L499.908 93.0449C501.763 94.6991 508.824 110.163 509.403 112.823L507.824 112.748C505.934 111.289 499.149 95.874 498.176 92.9126Z" fill="black"/>
<path d="M498.275 36.6396C499.078 36.6709 499.367 36.7808 500.144 36.9967C502.025 39.3118 508.972 54.1308 509.332 57.1389C508.687 56.9529 508.077 56.6697 507.459 56.4037C505.841 54.2777 498.644 39.1271 498.275 36.6396Z" fill="black"/>
<path d="M483.75 64.6406L485.667 64.9462C487.675 66.6303 494.043 81.6218 495.337 84.822L493.569 84.6544C491.429 83.0288 485.237 68.1504 483.75 64.6406Z" fill="black"/>
<path d="M598.557 64.7017L600.333 64.9958C602.087 66.8743 609.113 82.1766 609.705 84.9868L607.859 84.5717C606.074 82.4985 599.065 67.4402 598.557 64.7017Z" fill="black"/>
<path d="M469.414 36.5713L471.006 36.8017C473.085 38.1608 479.422 53.3726 480.878 56.7346L479.106 56.5781C477.054 55.0096 470.309 39.6035 469.414 36.5713Z" fill="black"/>
<path d="M512.375 64.6855L514.177 64.9555C516.094 66.5095 522.646 81.7146 523.808 84.8049L522.08 84.6523C520.028 83.1019 513.476 67.7881 512.375 64.6855Z" fill="black"/>
<path d="M368.523 84.7825C371.624 84.2311 392.14 84.4985 396.47 84.5024L426.187 84.5315C428.897 84.5332 439.326 83.9123 440.594 85.282L440.344 86.664L389.642 86.7217C383.807 86.7326 375.708 86.898 369.739 86.5458C369.051 86.5049 368.837 85.5239 368.523 84.7825Z" fill="black"/>
<path d="M370.734 112.569C377.237 112.505 438.13 112.043 440.331 112.901L440.932 114.575C433.85 114.878 370.668 115.03 369.144 114.344L368.898 113.622L369.457 112.77L370.734 112.569Z" fill="black"/>
<path d="M354.328 56.5092C373.025 55.887 392.197 56.8276 410.947 56.4424C410.947 56.4424 411.792 56.9098 411.876 56.956L412.113 58.5191C407.592 58.7262 356.041 58.95 354.778 58.2294L354.328 56.5092Z" fill="black"/>
<path d="M325.727 0.311425C333.411 0.0902076 346.659 -0.0516419 354.075 0.332664C355.083 0.972617 354.781 0.819687 355.13 2.35511C349.666 2.61871 332.467 2.65895 326.394 2.18076C326.009 2.15042 325.864 0.908287 325.727 0.311425Z" fill="black"/>
<path d="M383.158 0.301276C386.881 0.272255 410.074 -0.187945 411.813 0.654494L412.326 2.35239C406.934 2.58442 389.765 2.71941 383.855 2.18178C383.476 2.14735 383.303 0.891674 383.158 0.301276Z" fill="black"/>
<path d="M322.091 8.43994L323.708 8.7772L324.008 9.44512C322.055 14.9195 317.708 23.3448 315.078 28.7686C314.197 28.682 313.937 28.536 313.104 28.2097C313.444 26.1396 320.761 11.2796 322.091 8.43994Z" fill="black"/>
<path d="M350.821 64.6318C351.421 64.7774 352.025 64.9559 352.62 65.1226C352.897 66.7697 345.096 82.3512 343.853 84.9548C342.662 84.6843 342.675 84.8936 341.971 84.0802C342.414 82.1006 349.471 67.493 350.821 64.6318Z" fill="black"/>
<path d="M365.093 92.6978L366.795 93.1124L367.004 93.6449C365.382 98.2878 360.36 108.395 358.066 113.016C356.764 112.751 356.96 112.989 356.143 112.166C357.651 107.701 362.816 97.5047 365.093 92.6978Z" fill="black"/>
<path d="M327.375 8.44238L328.863 8.69698C330.6 9.99148 338.55 26.8609 338.058 28.9175C337.394 28.8084 337.021 28.5916 336.42 28.3111C334.756 25.9951 327.524 10.7627 327.375 8.44238Z" fill="black"/>
<path d="M341.605 92.8013L343.356 93.015C345.422 94.3675 351.795 109.684 353.251 113.062L351.435 112.792C349.229 111.084 342.956 96.1655 341.605 92.8013Z" fill="black"/>
<path d="M327.104 64.7319C327.715 64.7904 328.421 64.9175 329.038 65.0111C331.13 66.945 337.154 81.2962 338.7 84.8961L336.776 84.6226C334.764 82.9108 328.379 67.9541 327.104 64.7319Z" fill="black"/>
<path d="M355.77 64.5713L357.61 64.8857C359.704 66.4251 365.967 81.4456 367.434 84.8366L365.527 84.5948C363.5 82.919 357.101 67.7926 355.77 64.5713Z" fill="black"/>
<path d="M413.412 8.47949C414.042 8.56919 415.05 8.59425 415.355 9.05727C417.308 12.0209 424.371 26.4284 424.266 29.0341C423.332 28.8561 423.209 28.7659 422.406 28.2506C420.599 25.5609 413.521 10.8165 413.412 8.47949Z" fill="black"/>
<path d="M355.891 8.43799L357.603 8.73171C359.666 10.3094 366.08 25.4539 367.382 28.6479L365.613 28.5397C363.56 26.8315 356.957 11.6215 355.891 8.43799Z" fill="black"/>
<path d="M384.85 8.49561C385.409 8.57519 386.64 8.75723 386.909 9.16968C388.924 12.2648 395.781 26.4173 395.862 29.0621C395.461 28.9878 394.344 28.7218 394.154 28.4729C391.882 25.5097 385.19 10.9567 384.85 8.49561Z" fill="black"/>
<path d="M451.103 92.666C451.717 92.8129 452.314 93.0195 452.914 93.2117C453.235 94.5361 445.253 110.648 444.117 113.044L442.674 112.694L442.279 112.005C443.551 108.003 449.143 96.8538 451.103 92.666Z" fill="black"/>
<path d="M313.076 36.6987L314.618 36.8262C316.508 38.2562 323.316 53.77 324.296 56.727C323.171 56.7455 322.974 56.7789 322.047 56.1638C320.22 53.4152 313.51 39.2609 313.076 36.6987Z" fill="black"/>
<path d="M341.83 36.6113L343.551 36.8883C345.381 38.7536 352.483 54.2485 352.953 57.0754C352.341 56.9079 351.679 56.6643 351.073 56.4589C349.31 54.2507 342.295 39.3529 341.83 36.6113Z" fill="black"/>
<path d="M441.818 64.6299L443.577 64.8752C445.66 66.2999 452.129 81.6611 453.41 84.8288L451.66 84.6622C449.515 83.0722 443.187 67.9365 441.818 64.6299Z" fill="black"/>
<path d="M427.48 36.5503L429.09 36.8115C431.186 38.2836 437.493 53.407 438.953 56.7378L437.024 56.5008C435.116 54.8572 428.336 39.5276 427.48 36.5503Z" fill="black"/>
<path d="M368.705 28.431C372.104 28.3536 379.967 27.7239 383.08 28.8601C383.306 28.9424 383.503 30.0944 383.593 30.469C380.162 30.5438 372.728 31.0846 369.424 30.1217C368.925 29.9766 368.864 29.087 368.705 28.431Z" fill="black"/>
<path d="M169.516 0.280121C188.868 -0.063336 233.437 0.290324 255.245 0.47188C255.642 0.475178 255.851 1.77127 256.019 2.38941C237.136 2.81281 191.712 2.41926 170.237 2.21269C169.832 2.20882 169.663 0.900551 169.516 0.280121Z" fill="black"/>
<path d="M226.727 56.5164C232.057 56.3045 249.408 56.155 255.337 56.7257C255.71 56.7618 255.837 57.9859 255.961 58.5769C249.381 58.6811 234.654 58.9968 227.507 58.3852C227.091 58.3496 226.893 57.1162 226.727 56.5164Z" fill="black"/>
<path d="M268.665 41.1094L269.111 41.3477C269.488 42.3986 269.58 42.8119 268.391 43.4148C265.818 44.7189 262.713 45.7725 260.029 46.7746C262.766 47.9425 268.419 49.4674 269.454 51.6101L269.001 52.4055L268.123 52.2872C265.329 51.3071 257.841 49.463 257.562 46.3947C258.979 44.1865 265.938 42.1093 268.665 41.1094Z" fill="black"/>
<path d="M166.029 8.30322L167.409 8.83835C167.796 10.7269 159.962 26.5314 158.47 29.0645L157.081 28.3984C156.655 26.6329 164.569 10.8052 166.029 8.30322Z" fill="black"/>
<path d="M208.741 92.6279C209.27 92.7664 209.971 93.0268 210.503 93.2053C210.821 94.549 203.105 110.273 201.827 113.084L200.113 112.571C199.673 110.817 207.583 95.1057 208.741 92.6279Z" fill="black"/>
<path d="M171.143 8.4375C171.711 8.53643 173.063 8.75849 173.319 9.17181C175.094 12.0475 182.297 26.379 182.087 28.9042L180.609 28.5327C178.879 26.867 171.729 11.1681 171.143 8.4375Z" fill="black"/>
<path d="M266.247 92.6763L267.986 93.1736L268.172 93.6472C266.166 99.1017 261.848 107.597 259.267 113.077L257.713 112.645L257.396 112.012C258.625 108.165 264.211 97.0004 266.247 92.6763Z" fill="black"/>
<path d="M185.357 92.9233C185.958 92.9141 186.644 93.0381 187.25 93.1256C188.995 94.9939 195.942 110.055 196.61 112.83L194.991 112.748C193.165 111.425 186.331 95.814 185.357 92.9233Z" fill="black"/>
<path d="M257.227 8.45947C257.712 8.53466 259.011 8.75979 259.223 9.07595C261.236 12.0704 268.234 26.4124 268.169 28.9816C267.228 28.8426 267.046 28.6874 266.232 28.1809C264.369 25.3487 257.656 11.136 257.227 8.45947Z" fill="black"/>
<path d="M237.46 92.7544C238.352 92.8423 238.641 92.9804 239.495 93.282C238.706 96.1472 231.958 109.971 230.415 113.067C229.222 112.737 229.224 112.955 228.596 112.094C230.07 107.674 235.213 97.4953 237.46 92.7544Z" fill="black"/>
<path d="M185.451 36.6577L187.093 36.838C188.866 38.2442 195.65 53.6903 196.676 56.6091C195.71 56.6966 195.577 56.6526 194.651 56.3514C192.965 54.3266 186.017 39.4296 185.451 36.6577Z" fill="black"/>
<path d="M156.553 36.5859L158.339 36.8726C160.427 38.6728 166.675 53.4523 168.026 56.74L166.272 56.5804C164.232 54.9847 157.569 39.7127 156.553 36.5859Z" fill="black"/>
<path d="M228.418 64.8042L230.071 64.9278C231.875 66.3273 238.733 81.8205 239.672 84.7081L237.984 84.6395C236.134 83.1621 229.155 67.5796 228.418 64.8042Z" fill="black"/>
<path d="M294.729 92.6611C295.3 92.7979 295.88 92.9878 296.444 93.1606C296.859 94.9076 288.984 110.47 287.698 113.159L286.153 112.527C285.823 110.574 293.375 95.6054 294.729 92.6611Z" fill="black"/>
<path d="M171 64.708L172.665 64.8804C174.721 66.0144 181.192 81.6179 182.56 84.8485L180.743 84.6462C178.627 82.9793 172.314 67.9926 171 64.708Z" fill="black"/>
<path d="M257.045 64.729L258.819 64.933C260.785 66.2856 267.19 81.5747 268.594 84.8835L266.713 84.6272C264.656 82.9171 258.289 67.96 257.045 64.729Z" fill="black"/>
<path d="M285.525 64.7246L287.309 64.9344C289.499 66.76 295.677 81.4819 297.074 84.8567L295.217 84.6285C293.177 82.9466 286.805 67.9556 285.525 64.7246Z" fill="black"/>
<path d="M199.479 64.6772L201.339 64.9538C203.439 66.7988 209.727 81.4825 210.986 84.8063L209.25 84.6497C207.185 83.0479 200.777 67.9157 199.479 64.6772Z" fill="black"/>
<path d="M212.508 84.6473C215.315 84.547 225.402 83.7828 227.188 85.2202L227.336 86.5816C223.842 86.6893 216.741 87.2891 213.344 86.3591C212.804 86.2113 212.715 85.3425 212.508 84.6473Z" fill="black"/>
<path d="M213.531 112.563C216.322 112.503 225.827 111.759 227.259 113.638L226.894 114.588C224.13 114.675 215.032 115.273 212.996 114.12L212.84 113.096L213.531 112.563Z" fill="black"/>
<path d="M269.602 84.7734C272.126 84.3337 281.243 84.0769 283.914 84.8763C284.497 85.0508 284.605 85.7522 284.878 86.435C281.745 86.8427 273.835 87.1702 270.669 86.4047C270.03 86.2499 269.918 85.5227 269.602 84.7734Z" fill="black"/>
<path d="M270.995 112.563C274.046 112.494 281.717 112.134 284.178 113.182L284.394 114.081L283.612 114.592C280.44 114.712 272.839 115.15 270.221 114.128L270.046 113.044L269.779 113.209L270.323 113.44L270.451 112.569L270.995 112.563Z" fill="black"/>
<path d="M213.336 20.5699C215.721 20.2252 224.311 19.7077 226.182 20.9353L226.487 22.4382C222.989 22.5332 217.913 23.071 214.511 22.2795C213.844 22.1243 213.699 21.3574 213.336 20.5699Z" fill="black"/>
<path d="M227.533 20.5768C229.972 20.1552 237.544 19.8891 239.955 20.6652C240.63 20.8824 240.66 21.4299 240.975 22.2007C238.348 22.6197 231.135 23.0335 228.572 22.2209C227.924 22.0156 227.842 21.3375 227.533 20.5768Z" fill="black"/>
<path d="M227.77 14.8149C231.247 14.8478 236.963 14.1513 240.194 15.2339C240.473 15.3276 240.718 16.4581 240.845 16.8745C238.095 16.9844 230.243 17.6224 228.13 16.3798L227.77 14.8149Z" fill="black"/>
<path d="M213.652 14.8338C216.54 14.7493 223.047 14.2621 225.845 15.1908C226.308 15.3447 226.401 16.2791 226.563 16.9065C223.807 16.9584 216.836 17.494 214.207 16.5117C213.798 16.3591 213.757 15.4115 213.652 14.8338Z" fill="black"/>
<path d="M12.7422 0.381172C19.544 -0.245018 97.5122 -0.00862925 98.4854 0.438467C99.2143 0.773174 99.309 1.5417 99.5857 2.26001C94.2791 2.83792 14.5265 2.64598 13.7963 2.35353C13.0257 2.04495 12.9645 1.10537 12.7422 0.381172Z" fill="black"/>
<path d="M56.8991 112.564C64.7239 112.423 125.073 111.897 127.707 113.079L127.96 113.868L127.516 114.63C121.422 114.826 58.3489 115.239 56.2526 114.081L56.1465 113.093L56.8991 112.564Z" fill="black"/>
<path d="M55.5664 84.7663C55.9006 84.71 56.2361 84.6634 56.5729 84.6274C61.2493 84.1468 126.09 84.1327 127.364 84.5803C127.527 84.6375 127.831 84.9602 127.98 85.0811L127.843 86.6663L75.6574 86.7314C70.1179 86.7388 62.4882 86.8703 56.8431 86.5801C56.176 86.5458 55.8896 85.4808 55.5664 84.7663Z" fill="black"/>
<path d="M70.2734 56.5435C75.0327 56.2893 93.3567 56.1772 98.851 56.744C99.18 56.7778 99.3177 58.0068 99.4304 58.556C93.0467 58.7183 77.515 59.0577 70.8585 58.2856C70.6576 58.2623 70.3783 56.9295 70.2734 56.5435Z" fill="black"/>
<path d="M111.878 41.1289L112.608 41.5554L112.598 42.4551C111.366 44.0415 105.443 45.9837 103.246 46.8016C106.143 48.0618 111.589 49.3427 112.668 51.6217L112.173 52.4286L111.258 52.265C108.5 51.2893 101.209 49.4223 100.721 46.5044C102.007 44.2267 109.175 42.1112 111.878 41.1289Z" fill="black"/>
<path d="M9.23466 8.43506L10.9432 8.85586C11.4557 10.5281 3.63575 25.8269 2.19696 28.7584L0.416224 28.3341C0.0868639 27.0378 8.01545 11.0188 9.23466 8.43506Z" fill="black"/>
<path d="M14.4492 8.47803C15.068 8.55893 16.188 8.59147 16.4569 9.01403C18.3803 12.0362 25.4836 26.3795 25.3879 29.0098C24.4275 28.8524 24.247 28.6945 23.4204 28.1656C21.6612 25.4363 14.7323 10.881 14.4492 8.47803Z" fill="black"/>
<path d="M52.2602 92.708C52.8764 92.8228 53.4377 93.0233 54.0337 93.2141C54.2271 94.8652 46.5185 110.376 45.2778 112.985C44.4248 112.867 44.2604 112.798 43.4679 112.454C43.2381 110.771 51.0015 95.3274 52.2602 92.708Z" fill="black"/>
<path d="M100.473 8.49463C101.106 8.5729 102.176 8.58609 102.476 9.04514C104.449 12.0611 111.41 26.3367 111.477 29.0493C110.496 28.8659 110.37 28.7806 109.523 28.2437C107.714 25.5105 100.751 10.9262 100.473 8.49463Z" fill="black"/>
<path d="M0 36.5415C1.2631 36.669 2.04453 36.6805 2.69102 37.8294C6.06347 43.8218 8.8001 50.468 11.5896 56.7536L9.6646 56.521C7.61651 54.7842 1.13912 39.765 0 36.5415Z" fill="black"/>
<path d="M129.01 64.6919L130.703 64.8832C132.698 66.0374 139.322 81.8414 140.549 84.8411L138.777 84.6565C136.646 83.0295 130.289 67.9264 129.01 64.6919Z" fill="black"/>
<path d="M42.9746 64.6421L44.7394 64.8901C46.6484 66.0654 53.3277 81.8655 54.5338 84.8538L52.812 84.67C50.6385 83.0892 44.2412 67.8929 42.9746 64.6421Z" fill="black"/>
<path d="M28.7578 92.7915L30.4581 93.0065C32.5944 94.5455 39.0351 109.847 40.3534 113.057L38.5509 112.786C36.4041 111.13 29.9963 96.0476 28.7578 92.7915Z" fill="black"/>
<path d="M14.2227 64.7202L15.9883 64.9137C18.012 66.2851 24.4 81.573 25.8164 84.9002L24.0762 84.6971C21.9659 83.265 15.4976 67.891 14.2227 64.7202Z" fill="black"/>
<path d="M138.272 92.6743L140.005 93.191C140.254 94.9867 132.527 110.335 131.23 113.039C129.946 112.767 130.24 113.005 129.453 112.267C129.836 109.806 136.752 95.8517 138.272 92.6743Z" fill="black"/>
<path d="M28.9961 36.6074C29.5377 36.636 30.6297 36.7121 30.9082 37.1104C33.1712 40.3476 39.6005 54.1703 40.0632 57.0711C39.1409 56.8604 38.8997 56.7162 38.0401 56.2998C36.1262 53.5239 29.3597 39.2655 28.9961 36.6074Z" fill="black"/>
<path d="M71.0723 20.5796C73.3734 20.1962 81.2802 19.8589 83.6068 20.6768C84.1914 20.8821 84.2568 21.5619 84.5111 22.2734C81.7675 22.6656 74.8014 22.9839 72.1318 22.2355C71.4766 22.0522 71.3898 21.3539 71.0723 20.5796Z" fill="black"/>
<path d="M56.625 20.5866C59.1652 20.171 66.8251 19.8338 69.2196 20.7352C69.5472 20.8588 69.8459 21.7975 70.0345 22.232C67.4079 22.6602 60.2449 22.9997 57.6626 22.239C57.0044 22.0451 56.9355 21.3679 56.625 20.5866Z" fill="black"/>
<path d="M71.3184 14.8054C74.7874 14.852 80.5685 14.1388 83.7573 15.2465C84.0327 15.3423 84.277 16.475 84.402 16.8892C81.5101 16.9472 73.8572 17.6468 71.696 16.3827L71.3184 14.8054Z" fill="black"/>
<path d="M56.8535 14.8267C60.2348 14.8412 66.1725 14.1385 69.2789 15.2571C69.5525 15.3561 69.7683 16.4685 69.8854 16.8828C67.0067 16.9474 59.3836 17.6408 57.2131 16.3929L56.8535 14.8267Z" fill="black"/>
</svg>
