<svg width="749" height="122" viewBox="0 0 749 122" fill="none" xmlns="http://www.w3.org/2000/svg">
<path d="M128.672 55.1221L144.672 89.1221L136.672 118.122H44.1719L1.67188 36.1221L17.1719 3.12207H103.172L120.172 41.1221L105.172 49.6221L128.672 55.1221Z" fill="#89FF12" stroke="black" stroke-width="3"/>
<path d="M1.67188 36.1221L13.1719 11.6221L17.1719 4.12207L57.6719 90.1221L43.6719 117.622L1.67188 36.1221Z" fill="#89FF12" stroke="black" stroke-width="3"/>
<path d="M136.672 118.122H44.1719L58.1719 90.1221H144.425L136.672 118.122Z" fill="#89FF12" stroke="black" stroke-width="3"/>
<path d="M79.6719 16.6221H54.1719L55.1719 22.1221H81.1719L79.6719 16.6221Z" fill="#89FF12" stroke="black" stroke-width="3"/>
<path d="M99.1719 66.1221H75.6719L78.6719 71.6221H102.672L99.1719 66.1221Z" fill="#89FF12" stroke="black" stroke-width="3"/>
<path d="M209.172 87.8721L168.172 3.37207L152.672 33.8721L195.172 117.872L209.172 87.8721Z" fill="#FF12FB" stroke="black" stroke-width="3"/>
<path d="M226.172 118.372H195.672L209.172 87.8721L237.172 88.8721L226.172 118.372Z" fill="#FF12FB" stroke="black" stroke-width="3"/>
<path d="M283.672 116.872H254.672L266.672 89.3721H295.672L283.672 116.872Z" fill="#FF12FB" stroke="black" stroke-width="3"/>
<path d="M237.172 89.3721L208.672 87.8721L168.172 2.87207L255.172 3.87207L272.172 41.3721L256.172 49.3721L281.672 59.8721L295.172 89.3721H266.172L252.672 59.8721H224.172L237.172 89.3721Z" fill="#FF12FB" stroke="black" stroke-width="3"/>
<path d="M235.172 17.8721H209.672L210.672 23.3721H236.672L235.172 17.8721Z" fill="#FF12FB" stroke="black" stroke-width="3"/>
<path d="M247.172 105.372L254.672 116.372L266.672 88.8721L252.172 59.8721H241.672L254.672 86.8721L247.172 105.372Z" fill="#FF12FB" stroke="black" stroke-width="3"/>
<path d="M361.978 85.3857L346.699 115.043L305.37 31.4229L319.631 6.4668L361.978 85.3857Z" fill="#FF9C12" stroke="black" stroke-width="3"/>
<path d="M346.172 116.872L359.672 85.3721L345.672 56.3721L331.672 87.3721L346.172 116.872Z" fill="#FF9C12" stroke="black" stroke-width="3"/>
<path d="M403.092 2.37207L446.422 89.7331L435.672 118.872H348.172L360.759 88.7289L321.672 4.87207L346.672 4.37207L358.767 30.9903H387.653L374.206 2.37207H403.092Z" fill="#FF9C12"/>
<path d="M360.759 88.7289L348.172 118.872H435.672L446.422 89.7331L403.092 2.37207H374.206L387.653 30.9903H358.767L346.672 4.37207L321.672 4.87207L360.759 88.7289ZM446.422 89.7331L360.759 88.7289" stroke="black" stroke-width="3"/>
<path d="M320.172 4.37207L346.172 57.8721H401.672" stroke="black" stroke-width="3"/>
<path d="M555.422 4.12207H469.422L454.422 34.1221L496.922 117.122H584.422L596.922 90.1221L584.422 61.1221H524.422L512.922 31.1221H566.422L555.422 4.12207Z" fill="#4FFFFF" stroke="black" stroke-width="3"/>
<path d="M510.422 89.1221L469.422 4.12207L454.922 33.6221L497.422 117.122L510.422 89.1221Z" fill="#4FFFFF" stroke="black" stroke-width="3"/>
<path d="M510.922 89.1221L595.422 87.6221L583.922 60.6221H524.422L512.922 32.1221L566.422 30.6221L554.922 4.12207H469.422L510.922 89.1221Z" fill="#4FFFFF" stroke="black" stroke-width="3"/>
<path d="M705.422 4.12207H620.422L605.422 29.6221L646.922 117.122H733.422L746.922 88.1221L737.922 74.1221H683.922L676.922 60.6221H716.922L708.922 46.1221H670.922L663.422 29.6221H716.922L705.422 4.12207Z" fill="#F7FF12" stroke="black" stroke-width="3"/>
<path d="M620.922 4.12207L660.922 87.6221H745.922L734.922 117.122H648.422L604.922 29.6221L620.922 4.12207Z" fill="#F7FF12"/>
<path d="M648.422 117.122H734.922L745.922 87.6221H660.922L620.922 4.12207L604.922 29.6221L648.422 117.122ZM660.922 87.6221L648.422 117.122" stroke="black" stroke-width="3"/>
</svg>
