<svg width="771" height="115" viewBox="0 0 771 115" fill="none" xmlns="http://www.w3.org/2000/svg">
<path d="M12.7402 0.380225C19.5407 -0.24441 97.4937 -0.00860782 98.4667 0.437378C99.1954 0.771254 99.2901 1.53787 99.5668 2.2544C94.2612 2.83087 14.5242 2.63941 13.7941 2.34769C13.0237 2.03987 12.9625 1.10263 12.7402 0.380225Z" fill="black"/>
<path d="M643.303 0.388119C647.552 -0.00382963 655.76 0.232015 660.149 0.244867L690.009 0.257499L715.257 0.358865C719.186 0.343864 725.579 -0.139011 729.292 0.447333L730.218 1.79463C728.968 2.47918 645.688 3.01829 643.781 2.12676L643.303 0.388119Z" fill="black"/>
<path d="M170.498 0.279274C189.847 -0.0633299 234.407 0.289452 256.211 0.470557C256.608 0.473847 256.816 1.76672 256.985 2.38332C238.105 2.80567 192.69 2.41311 171.219 2.20704C170.815 2.20318 170.645 0.898163 170.498 0.279274Z" fill="black"/>
<path d="M485.754 0.271554C495.115 0.217297 569.946 -0.389969 571.893 0.725742L572.3 2.38907C553.691 2.76391 507.752 2.41929 486.486 2.20121C486.1 2.19722 485.903 0.876671 485.754 0.271554Z" fill="black"/>
<path d="M56.8872 112.284C64.7105 112.144 125.048 111.619 127.681 112.798L127.934 113.586L127.49 114.345C121.398 114.541 58.3368 114.953 56.2409 113.798L56.1348 112.812L56.8872 112.284Z" fill="black"/>
<path d="M55.5547 84.5556C55.8888 84.4994 56.2242 84.4529 56.561 84.417C61.2365 83.9376 126.064 83.9235 127.339 84.37C127.502 84.4271 127.806 84.749 127.954 84.8696L127.817 86.4508L75.6417 86.5157C70.1033 86.5232 62.4752 86.6544 56.8311 86.3649C56.1642 86.3307 55.8778 85.2683 55.5547 84.5556Z" fill="black"/>
<path d="M688.083 112.285C710.621 111.829 733.466 112.502 756.025 112.292C757.117 112.282 757.424 112.488 758.218 113.135L758.165 113.831L757.271 114.325C750.465 114.604 689.978 115.114 686.895 114.164L686.496 113.363L686.917 112.567L688.083 112.285Z" fill="black"/>
<path d="M686.102 84.574C689.82 83.992 702.452 84.2929 706.767 84.267C722.767 84.1705 738.903 84.524 754.898 84.1946C756.446 84.1626 757.117 84.1196 758.126 85.0815L757.985 86.3802C734.799 87.1838 710.626 86.203 687.364 86.3443C686.685 86.3482 686.351 85.1363 686.102 84.574Z" fill="black"/>
<path d="M370.889 84.5721C373.989 84.0221 394.501 84.2887 398.83 84.2927L428.541 84.3216C431.251 84.3234 441.678 83.7041 442.945 85.0704L442.695 86.4489L392.003 86.5064C386.17 86.5174 378.072 86.6823 372.104 86.3309C371.416 86.2901 371.202 85.3116 370.889 84.5721Z" fill="black"/>
<path d="M528.471 84.5478C534.145 83.9 553.837 84.1373 560.541 84.2882C571.985 84.5456 589.384 83.6408 600.249 84.4439L600.692 85.0878L600.433 86.4352C580.395 86.5856 550.548 86.6028 529.681 86.3234C529.22 86.3172 528.778 85.1365 528.471 84.5478Z" fill="black"/>
<path d="M373.099 112.29C379.601 112.226 440.482 111.765 442.683 112.62L443.283 114.291C436.202 114.592 373.033 114.745 371.51 114.06L371.264 113.34L371.822 112.49L373.099 112.29Z" fill="black"/>
<path d="M529.916 112.286L577.811 112.251C581.433 112.245 597.731 111.969 600.309 112.595L601.19 114.074C599.204 114.448 596.459 114.467 594.394 114.463C573.566 114.415 552.739 114.494 531.915 114.414C530.35 114.408 529.1 114.426 529.039 112.759L529.916 112.286Z" fill="black"/>
<path d="M356.697 56.369C375.391 55.7484 394.559 56.6866 413.305 56.3023C413.305 56.3023 414.15 56.7686 414.234 56.8147L414.471 58.3739C409.951 58.5805 358.41 58.8038 357.147 58.0849L356.697 56.369Z" fill="black"/>
<path d="M543.027 56.406C553.994 55.913 587.787 56.2797 600.288 56.5915C600.674 56.6012 600.735 57.8012 600.832 58.4188C594.43 58.4828 545.351 58.9846 543.488 58.1205L543.027 56.406Z" fill="black"/>
<path d="M686.238 28.4446C693.605 27.788 719.896 28.2784 729.231 28.5306C729.617 28.5411 729.783 29.8039 729.932 30.4096C719.97 30.4351 697.893 30.8338 687.023 30.2167C686.65 30.1956 686.409 29.0056 686.238 28.4446Z" fill="black"/>
<path d="M528.588 28.4332C536.345 27.6152 562.333 28.4587 571.484 28.488C571.923 28.4894 572.225 29.5578 572.475 30.1377C570.208 30.696 531.837 30.7382 529.364 30.2206L528.588 28.4332Z" fill="black"/>
<path d="M700.439 56.3779C704.333 56.2902 728.327 55.6353 729.651 57.0139L729.458 58.4604C726.042 58.4565 702.448 58.9526 700.909 58.096L700.439 56.3779Z" fill="black"/>
<path d="M328.1 0.310882C335.783 0.090214 349.028 -0.0512832 356.443 0.332068C357.451 0.970432 357.149 0.817882 357.498 2.34949C352.034 2.61244 334.839 2.65257 328.767 2.17558C328.382 2.14531 328.237 0.906262 328.1 0.310882Z" fill="black"/>
<path d="M70.2598 56.4028C75.0181 56.1493 93.3385 56.0374 98.8318 56.6028C99.1606 56.6366 99.2983 57.8625 99.411 58.4104C93.0285 58.5722 77.4999 58.9108 70.8447 58.1406C70.6439 58.1174 70.3646 56.7879 70.2598 56.4028Z" fill="black"/>
<path d="M227.697 56.3763C233.027 56.1649 250.374 56.0158 256.302 56.5851C256.675 56.6211 256.802 57.8422 256.926 58.4317C250.347 58.5356 235.624 58.8506 228.478 58.2404C228.062 58.2049 227.864 56.9746 227.697 56.3763Z" fill="black"/>
<path d="M385.521 0.300412C389.243 0.271463 412.432 -0.187594 414.171 0.652753L414.684 2.34643C409.293 2.57789 392.127 2.71255 386.218 2.17625C385.839 2.1419 385.667 0.889343 385.521 0.300412Z" fill="black"/>
<path d="M269.627 41.0073L270.074 41.2451C270.451 42.2934 270.542 42.7056 269.353 43.307C266.781 44.6079 263.677 45.6589 260.993 46.6585C263.73 47.8234 269.382 49.3446 270.417 51.4819L269.964 52.2754L269.086 52.1574C266.293 51.1797 258.806 49.3402 258.527 46.2795C259.944 44.0768 266.901 42.0047 269.627 41.0073Z" fill="black"/>
<path d="M111.856 41.0269L112.587 41.4523L112.576 42.3497C111.345 43.9323 105.422 45.8696 103.226 46.6855C106.122 47.9425 111.567 49.2202 112.647 51.4936L112.152 52.2984L111.237 52.1353C108.479 51.162 101.19 49.2996 100.701 46.389C101.987 44.1169 109.154 42.0067 111.856 41.0269Z" fill="black"/>
<path d="M640.054 8.30615C640.536 8.42765 641.106 8.74038 641.566 8.96496C641.729 10.5997 633.731 26.9355 632.323 29.0317L630.938 28.2839C630.605 26.7812 638.668 10.508 640.054 8.30615Z" fill="black"/>
<path d="M167.011 8.28271L168.392 8.81651C168.779 10.7004 160.946 26.4656 159.454 28.9925L158.065 28.328C157.639 26.5669 165.552 10.7784 167.011 8.28271Z" fill="black"/>
<path d="M324.466 8.41895L326.082 8.75536L326.382 9.42163C324.43 14.8824 320.084 23.2868 317.454 28.6971C316.574 28.6107 316.314 28.4651 315.48 28.1396C315.821 26.0746 323.136 11.2515 324.466 8.41895Z" fill="black"/>
<path d="M481.991 8.3833L483.591 8.83771L483.876 9.48379C481.899 14.9082 477.584 23.3384 474.997 28.7764C474.484 28.654 473.857 28.4557 473.335 28.3053C472.91 26.6508 480.737 11.04 481.991 8.3833Z" fill="black"/>
<path d="M9.23293 8.41406L10.9411 8.83382C11.4536 10.5019 3.63512 25.7627 2.19661 28.687L0.416222 28.2637C0.0869264 26.9706 8.01397 10.9914 9.23293 8.41406Z" fill="black"/>
<path d="M14.4473 8.45703C15.066 8.53774 16.1857 8.5702 16.4546 8.99171C18.3776 12.0063 25.4795 26.314 25.3838 28.9378C24.4236 28.7808 24.2431 28.6233 23.4167 28.0957C21.6579 25.3732 14.7303 10.8541 14.4473 8.45703Z" fill="black"/>
<path d="M209.716 92.3979C210.245 92.5361 210.945 92.7958 211.477 92.9739C211.795 94.3143 204.081 110 202.803 112.803L201.09 112.291C200.65 110.542 208.559 94.8696 209.716 92.3979Z" fill="black"/>
<path d="M682.757 92.4629C683.739 92.5791 683.871 92.6002 684.699 93.1366C683.169 97.7066 678.039 107.955 675.807 112.73C674.943 112.606 674.772 112.531 673.97 112.18C673.738 110.456 681.481 95.1034 682.757 92.4629Z" fill="black"/>
<path d="M353.191 64.4712C353.791 64.6164 354.394 64.7945 354.989 64.9607C355.266 66.6037 347.467 82.1466 346.223 84.7436C345.033 84.4739 345.046 84.6827 344.342 83.8712C344.785 81.8966 351.841 67.3253 353.191 64.4712Z" fill="black"/>
<path d="M367.458 92.4678L369.16 92.8814L369.369 93.4126C367.748 98.0439 362.726 108.126 360.433 112.735C359.132 112.471 359.327 112.709 358.51 111.888C360.018 107.433 365.182 97.2627 367.458 92.4678Z" fill="black"/>
<path d="M487.248 8.46729L488.897 8.68703C491.006 10.1332 497.526 25.5036 498.727 28.6301L497.022 28.4972C494.97 26.9743 488.371 11.5832 487.248 8.46729Z" fill="black"/>
<path d="M329.748 8.42139L331.236 8.67535C332.972 9.96664 340.92 26.7942 340.429 28.8456C339.765 28.7368 339.392 28.5206 338.792 28.2408C337.127 25.9306 329.897 10.736 329.748 8.42139Z" fill="black"/>
<path d="M525.001 92.4375L526.575 92.8603L526.878 93.4819C524.865 98.9668 520.625 107.268 518.02 112.757C517.45 112.644 516.841 112.426 516.288 112.244C515.916 110.537 523.729 95.0863 525.001 92.4375Z" fill="black"/>
<path d="M573.449 8.41553C574.3 8.55545 575.304 8.54755 575.707 9.28531C577.409 12.4083 584.534 26.1453 584.297 28.8503C583.359 28.7143 583.271 28.6143 582.429 28.1283C580.627 25.3769 573.839 11.0358 573.449 8.41553Z" fill="black"/>
<path d="M172.125 8.4165C172.693 8.51519 174.046 8.73669 174.301 9.14899C176.076 12.0176 183.277 26.3134 183.068 28.8324L181.59 28.4618C179.86 26.8003 172.711 11.1403 172.125 8.4165Z" fill="black"/>
<path d="M52.2507 92.478C52.8667 92.5925 53.428 92.7925 54.0239 92.9829C54.2172 94.6299 46.5101 110.102 45.2697 112.704C44.4168 112.587 44.2524 112.518 43.4601 112.175C43.2303 110.496 50.9922 95.0909 52.2507 92.478Z" fill="black"/>
<path d="M644.969 8.40674L646.359 8.69272C648.174 9.81645 656.176 26.7545 655.716 28.8494C654.813 28.7156 654.725 28.6051 653.927 28.1116C652.125 25.3602 645.298 10.995 644.969 8.40674Z" fill="black"/>
<path d="M343.977 92.5708L345.727 92.784C347.793 94.1332 354.164 109.412 355.62 112.781L353.805 112.512C351.598 110.808 345.327 95.9267 343.977 92.5708Z" fill="black"/>
<path d="M100.453 8.47363C101.087 8.55171 102.156 8.56486 102.457 9.02278C104.429 12.0313 111.388 26.2714 111.455 28.9772C110.475 28.7943 110.348 28.7092 109.502 28.1737C107.693 25.4472 100.731 10.8992 100.453 8.47363Z" fill="black"/>
<path d="M267.21 92.4463L268.948 92.9424L269.135 93.4148C267.129 98.8558 262.812 107.33 260.232 112.797L258.678 112.365L258.361 111.734C259.59 107.896 265.174 96.7597 267.21 92.4463Z" fill="black"/>
<path d="M329.477 64.5713C330.088 64.6296 330.794 64.7564 331.41 64.8498C333.502 66.7788 339.526 81.0944 341.07 84.6854L339.147 84.4126C337.135 82.705 330.752 67.7855 329.477 64.5713Z" fill="black"/>
<path d="M358.137 64.4111L359.977 64.7247C362.071 66.2603 368.333 81.2435 369.799 84.6261L367.892 84.3849C365.866 82.7133 359.467 67.6244 358.137 64.4111Z" fill="black"/>
<path d="M658.904 92.4521L660.781 92.7644C662.745 94.1303 669.125 109.302 670.555 112.615L668.682 112.418C666.6 110.774 660.347 95.8786 658.904 92.4521Z" fill="black"/>
<path d="M415.77 8.4585C416.4 8.54797 417.407 8.57297 417.712 9.03484C419.665 11.9911 426.726 26.3629 426.621 28.9621C425.687 28.7845 425.564 28.6945 424.762 28.1805C422.955 25.4975 415.878 10.7897 415.77 8.4585Z" fill="black"/>
<path d="M186.336 92.6924C186.936 92.6832 187.622 92.8069 188.228 92.8942C189.973 94.7578 196.919 109.781 197.586 112.55L195.968 112.468C194.142 111.149 187.31 95.5759 186.336 92.6924Z" fill="black"/>
<path d="M358.258 8.41699L359.97 8.70999C362.032 10.2837 368.445 25.3906 369.747 28.5767L367.978 28.4688C365.926 26.7648 359.324 11.5926 358.258 8.41699Z" fill="black"/>
<path d="M387.213 8.47461C387.772 8.554 389.003 8.73559 389.272 9.14701C391.287 12.2344 398.142 26.3518 398.223 28.9901C397.822 28.9159 396.706 28.6506 396.515 28.4023C394.244 25.4465 387.554 10.9296 387.213 8.47461Z" fill="black"/>
<path d="M0 36.4507C1.26286 36.5779 2.04413 36.5893 2.69049 37.7354C6.06229 43.7129 8.79838 50.3426 11.5874 56.6126L9.66271 56.3806C7.61502 54.648 1.1389 39.6662 0 36.4507Z" fill="black"/>
<path d="M258.191 8.43848C258.677 8.51348 259.975 8.73805 260.187 9.05342C262.2 12.0404 269.197 26.3468 269.132 28.9096C268.19 28.771 268.009 28.6162 267.195 28.1109C265.333 25.2858 258.621 11.1083 258.191 8.43848Z" fill="black"/>
<path d="M453.451 92.436C454.065 92.5825 454.661 92.7887 455.262 92.9804C455.582 94.3015 447.602 110.373 446.466 112.763L445.024 112.415L444.629 111.727C445.9 107.735 451.491 96.6134 453.451 92.436Z" fill="black"/>
<path d="M530.215 36.5117L532.07 36.7578C534.069 38.3429 540.335 53.2257 541.773 56.5995L539.962 56.4302C537.945 54.9394 531.46 39.6316 530.215 36.5117Z" fill="black"/>
<path d="M768.75 92.4287C769.338 92.5634 769.952 92.7919 770.526 92.9871C770.684 94.6446 762.953 110.2 761.721 112.787C761.283 112.679 760.594 112.433 760.143 112.285C759.761 110.183 767.321 95.4166 768.75 92.4287Z" fill="black"/>
<path d="M238.429 92.5239C239.321 92.6116 239.61 92.7494 240.464 93.0503C239.675 95.9083 232.928 109.698 231.386 112.786C230.193 112.457 230.194 112.674 229.566 111.815C231.04 107.406 236.183 97.2531 238.429 92.5239Z" fill="black"/>
<path d="M315.453 36.6074L316.995 36.7346C318.884 38.161 325.691 53.6363 326.671 56.586C325.546 56.6044 325.349 56.6378 324.422 56.0241C322.596 53.2823 315.887 39.1632 315.453 36.6074Z" fill="black"/>
<path d="M630.732 36.5952L632.25 36.736C634.166 38.2321 640.918 53.5552 641.914 56.5449C641.322 56.5207 640.195 56.5795 639.905 56.2211C637.985 53.8447 630.952 38.6958 630.732 36.5952Z" fill="black"/>
<path d="M128.984 64.5312L130.677 64.722C132.672 65.8734 139.295 81.6382 140.522 84.6305L138.75 84.4462C136.62 82.8233 130.264 67.7577 128.984 64.5312Z" fill="black"/>
<path d="M731.02 8.4375C731.896 8.59628 732.852 8.63795 733.33 9.52176C734.961 12.5535 742.161 26.4059 741.793 28.9293C741.302 28.8437 740.298 28.6108 740.052 28.2411C738.066 25.2615 731.173 10.8275 731.02 8.4375Z" fill="black"/>
<path d="M186.43 36.5669L188.071 36.7467C189.844 38.1494 196.627 53.5572 197.652 56.4687C196.686 56.556 196.554 56.5121 195.628 56.2117C193.942 54.1919 186.996 39.3319 186.43 36.5669Z" fill="black"/>
<path d="M157.537 36.4951L159.323 36.7811C161.411 38.5768 167.657 53.3196 169.008 56.5991L167.254 56.4399C165.215 54.8482 158.553 39.6141 157.537 36.4951Z" fill="black"/>
<path d="M229.389 64.6431L231.041 64.7663C232.845 66.1624 239.702 81.6171 240.64 84.4975L238.953 84.4291C237.103 82.9553 230.126 67.4116 229.389 64.6431Z" fill="black"/>
<path d="M42.9668 64.4814L44.7312 64.7288C46.6399 65.9013 53.3179 81.6621 54.5237 84.6429L52.8023 84.4596C50.6292 82.8828 44.2331 67.7241 42.9668 64.4814Z" fill="black"/>
<path d="M610.982 92.436L612.683 92.9334C613.034 94.6967 605.225 110.118 603.927 112.823C602.993 112.649 602.813 112.648 602.182 111.957C602.655 109.339 609.408 95.7182 610.982 92.436Z" fill="black"/>
<path d="M501.588 92.6816L503.32 92.8137C505.175 94.4637 512.234 109.889 512.813 112.542L511.234 112.468C509.345 111.013 502.561 95.6357 501.588 92.6816Z" fill="black"/>
<path d="M295.686 92.4312C296.257 92.5676 296.837 92.757 297.401 92.9294C297.816 94.672 289.943 110.196 288.657 112.878L287.112 112.248C286.782 110.299 294.332 95.3681 295.686 92.4312Z" fill="black"/>
<path d="M28.752 92.561L30.4519 92.7755C32.5877 94.3107 39.0272 109.574 40.3453 112.776L38.5431 112.506C36.3968 110.854 29.9902 95.809 28.752 92.561Z" fill="black"/>
<path d="M344.201 36.5205L345.921 36.7968C347.752 38.6574 354.852 54.1139 355.322 56.9338C354.71 56.7666 354.048 56.5236 353.442 56.3188C351.679 54.1161 344.666 39.2553 344.201 36.5205Z" fill="black"/>
<path d="M501.688 36.5488C502.49 36.58 502.779 36.6896 503.555 36.905C505.436 39.2143 512.382 53.9966 512.741 56.9972C512.097 56.8116 511.487 56.5292 510.869 56.2638C509.251 54.1431 502.056 39.0301 501.688 36.5488Z" fill="black"/>
<path d="M171.982 64.5474L173.647 64.7193C175.703 65.8505 182.173 81.4153 183.541 84.6378L181.723 84.436C179.608 82.7732 173.296 67.8238 171.982 64.5474Z" fill="black"/>
<path d="M659.004 36.4243L660.775 36.7485C662.784 38.2599 669.15 53.3747 670.597 56.613L668.69 56.3897C666.616 54.6958 660.122 39.6293 659.004 36.4243Z" fill="black"/>
<path d="M444.168 64.4692L445.926 64.714C448.009 66.1351 454.477 81.4582 455.757 84.618L454.007 84.4518C451.863 82.8657 445.536 67.7676 444.168 64.4692Z" fill="black"/>
<path d="M487.166 64.48L489.082 64.7848C491.09 66.4647 497.457 81.4189 498.751 84.6112L496.984 84.4441C494.844 82.8225 488.652 67.981 487.166 64.48Z" fill="black"/>
<path d="M258.01 64.5684L259.784 64.7719C261.749 66.1211 268.153 81.3722 269.557 84.6728L267.676 84.4171C265.62 82.7113 259.253 67.7913 258.01 64.5684Z" fill="black"/>
<path d="M14.2207 64.5596L15.986 64.7526C18.0093 66.1206 24.396 81.3705 25.8121 84.6895L24.0723 84.4868C21.9624 83.0583 15.4954 67.7224 14.2207 64.5596Z" fill="black"/>
<path d="M730.98 36.5132C731.524 36.5408 732.625 36.6163 732.905 37.0158C735.168 40.248 741.592 54.0346 742.056 56.9291C741.136 56.719 740.894 56.5747 740.035 56.1597C738.119 53.4162 731.349 39.1374 730.98 36.5132Z" fill="black"/>
<path d="M138.245 92.4443L139.977 92.9597C140.226 94.751 132.501 110.061 131.204 112.758C129.92 112.487 130.214 112.725 129.428 111.989C129.81 109.534 136.725 95.6138 138.245 92.4443Z" fill="black"/>
<path d="M286.484 64.564L288.268 64.7732C290.457 66.5943 296.634 81.2797 298.03 84.6461L296.174 84.4184C294.134 82.7407 287.764 67.7869 286.484 64.564Z" fill="black"/>
<path d="M759.48 64.4785L761.348 64.8162C763.436 66.6975 769.688 81.2942 770.995 84.6181L769.276 84.4523C767.163 82.8934 760.664 67.6528 759.48 64.4785Z" fill="black"/>
<path d="M601.949 64.541L603.725 64.8345C605.479 66.7082 612.503 81.9726 613.095 84.7758L611.249 84.3617C609.465 82.2936 602.458 67.2727 601.949 64.541Z" fill="black"/>
<path d="M472.832 36.4805L474.424 36.7103C476.502 38.0661 482.838 53.24 484.294 56.5937L482.522 56.4376C480.47 54.873 473.727 39.5052 472.832 36.4805Z" fill="black"/>
<path d="M28.9902 36.5166C29.5318 36.5451 30.6236 36.621 30.902 37.0184C33.1645 40.2475 39.5926 54.0359 40.0552 56.9294C39.1331 56.7193 38.8919 56.5754 38.0325 56.1601C36.119 53.3911 29.3537 39.168 28.9902 36.5166Z" fill="black"/>
<path d="M673.475 64.438L675.224 64.7367C677.412 66.5118 683.612 81.1888 685.002 84.5657L683.161 84.3859C681.082 82.5761 674.667 67.6925 673.475 64.438Z" fill="black"/>
<path d="M200.455 64.5166L202.315 64.7925C204.415 66.6329 210.701 81.2801 211.96 84.5956L210.224 84.4395C208.16 82.8416 201.753 67.747 200.455 64.5166Z" fill="black"/>
<path d="M644.951 64.5562C645.767 64.6132 646.039 64.7022 646.832 64.9184C648.569 67.0795 655.584 82.0425 656.084 84.8225C655.475 84.6931 654.826 84.5018 654.225 84.3391C652.546 82.5649 645.499 67.2637 644.951 64.5562Z" fill="black"/>
<path d="M429.834 36.4595L431.443 36.72C433.539 38.1885 439.844 53.2743 441.305 56.5968L439.375 56.3604C437.468 54.7209 430.689 39.4294 429.834 36.4595Z" fill="black"/>
<path d="M515.785 64.5249L517.587 64.7942C519.503 66.3443 526.054 81.5117 527.216 84.5943L525.489 84.4421C523.437 82.8955 516.886 67.6198 515.785 64.5249Z" fill="black"/>
<path d="M213.482 84.4371C216.289 84.3371 226.374 83.5748 228.16 85.0086L228.308 86.3666C224.814 86.474 217.715 87.0723 214.319 86.1446C213.778 85.9972 213.69 85.1305 213.482 84.4371Z" fill="black"/>
<path d="M214.506 112.284C217.296 112.224 226.8 111.481 228.231 113.356L227.866 114.304C225.102 114.391 216.006 114.987 213.971 113.837L213.814 112.815L214.506 112.284Z" fill="black"/>
<path d="M371.07 28.3606C374.469 28.2834 382.33 27.6553 385.443 28.7886C385.668 28.8707 385.865 30.0198 385.955 30.3935C382.525 30.4681 375.092 31.0076 371.789 30.047C371.29 29.9023 371.229 29.015 371.07 28.3606Z" fill="black"/>
<path d="M270.564 84.5629C273.088 84.1243 282.203 83.8681 284.875 84.6655C285.457 84.8396 285.565 85.5392 285.837 86.2204C282.706 86.627 274.797 86.9538 271.632 86.1902C270.993 86.0358 270.881 85.3103 270.564 84.5629Z" fill="black"/>
<path d="M271.957 112.283C275.008 112.215 282.678 111.855 285.138 112.901L285.354 113.798L284.572 114.307C281.401 114.427 273.801 114.864 271.184 113.844L271.009 112.763L270.742 112.927L271.286 113.159L271.413 112.289L271.957 112.283Z" fill="black"/>
<path d="M214.311 20.5186C216.695 20.1747 225.284 19.6585 227.154 20.8831L227.459 22.3823C223.961 22.477 218.886 23.0135 215.486 22.224C214.819 22.0691 214.674 21.3042 214.311 20.5186Z" fill="black"/>
<path d="M71.0586 20.5283C73.3593 20.1458 81.2646 19.8094 83.5907 20.6252C84.1752 20.8301 84.2405 21.5082 84.4948 22.2179C81.7517 22.6091 74.787 22.9267 72.118 22.1801C71.4629 21.9972 71.3761 21.3007 71.0586 20.5283Z" fill="black"/>
<path d="M56.6133 20.5352C59.1529 20.1207 66.8114 19.7843 69.2055 20.6835C69.533 20.8067 69.8316 21.7432 70.0201 22.1765C67.3941 22.6038 60.2325 22.9424 57.6507 22.1836C56.9926 21.9901 56.9237 21.3147 56.6133 20.5352Z" fill="black"/>
<path d="M228.504 20.5255C230.942 20.1049 238.513 19.8395 240.924 20.6137C241.599 20.8304 241.628 21.3764 241.943 22.1453C239.316 22.5633 232.105 22.9761 229.542 22.1655C228.895 21.9607 228.813 21.2843 228.504 20.5255Z" fill="black"/>
<path d="M71.3047 14.7688C74.773 14.8153 80.553 14.1039 83.7412 15.2088C84.0166 15.3044 84.2608 16.4343 84.3858 16.8474C81.4944 16.9053 73.843 17.6032 71.6822 16.3422L71.3047 14.7688Z" fill="black"/>
<path d="M228.74 14.7783C232.217 14.8112 237.932 14.1164 241.162 15.1963C241.441 15.2897 241.686 16.4174 241.813 16.8327C239.064 16.9424 231.214 17.5788 229.101 16.3393L228.74 14.7783Z" fill="black"/>
<path d="M56.8418 14.79C60.2225 14.8045 66.159 14.1036 69.2647 15.2194C69.5383 15.3181 69.7541 16.4278 69.8711 16.841C66.993 16.9055 59.3714 17.5972 57.2013 16.3524L56.8418 14.79Z" fill="black"/>
<path d="M214.627 14.7971C217.514 14.7129 224.02 14.2269 226.817 15.1533C227.281 15.3068 227.373 16.2389 227.535 16.8648C224.78 16.9165 217.81 17.4508 215.182 16.4709C214.773 16.3187 214.732 15.3735 214.627 14.7971Z" fill="black"/>
</svg>
