<?xml version="1.0" encoding="UTF-8"?>
<svg width="34px" height="39px" viewBox="0 0 34 39" version="1.1" xmlns="http://www.w3.org/2000/svg" xmlns:xlink="http://www.w3.org/1999/xlink">
    <title>Group</title>
    <defs>
        <path d="M21.3333334,9.66666663 L19.6666667,9.66666663 C19.114382,9.66666663 18.6666667,9.21895138 18.6666667,8.66666663 L18.6666667,7.99999995 C18.6666667,7.4477152 18.2189515,6.99999995 17.6666667,6.99999995 L6.33333336,6.99999995 C5.78104861,6.99999995 5.33333336,7.4477152 5.33333336,7.99999995 L5.33333336,8.66666663 C5.33333336,9.21895138 4.88561811,9.66666663 4.33333336,9.66666663 L2.66666668,9.66666663 L2.66666668,9.66666663 C1.2,9.66666663 0,10.8666666 0,12.3333333 L0,13.6666666 C0,17.0666667 2.56000001,19.84 5.85333336,20.2533333 C6.69333336,22.2533333 8.49333337,23.76 10.6666667,24.2 L10.6666667,27.3333334 C10.6666667,27.8856181 10.2189515,28.3333334 9.66666671,28.3333334 L6.33333336,28.3333334 C5.78104861,28.3333334 5.33333336,28.7810486 5.33333336,29.3333334 L5.33333336,29.9999999 C5.33333336,30.5522847 5.78104861,30.9999999 6.33333336,30.9999999 L17.6666667,30.9999999 C18.2189515,30.9999999 18.6666667,30.5522847 18.6666667,29.9999999 L18.6666667,29.3333334 C18.6666667,28.7810486 18.2189515,28.3333334 17.6666667,28.3333334 L14.3333334,28.3333334 C13.7810486,28.3333334 13.3333334,27.8856181 13.3333334,27.3333334 L13.3333334,24.2 L13.3333334,24.2 C15.5066667,23.76 17.3066667,22.2533333 18.1466667,20.2533333 C21.4400001,19.84 24,17.0666667 24,13.6666666 L24,12.3333333 C24,10.8666666 22.8000001,9.66666663 21.3333334,9.66666663 Z M2.66666668,13.6666666 L2.66666668,13.3333333 C2.66666668,12.7810486 3.11438193,12.3333333 3.66666668,12.3333333 L4.33333336,12.3333333 C4.88561811,12.3333333 5.33333336,12.7810486 5.33333336,13.3333333 L5.33333336,17.4266667 L5.33333336,17.4266667 C3.78666668,16.8666667 2.66666668,15.4 2.66666668,13.6666666 Z M21.3333334,13.6666666 C21.3333334,15.4 20.2133334,16.8666667 18.6666667,17.4266667 L18.6666667,13.3333333 C18.6666667,12.7810486 19.114382,12.3333333 19.6666667,12.3333333 L20.3333334,12.3333333 C20.8856182,12.3333333 21.3333334,12.7810486 21.3333334,13.3333333 L21.3333334,13.6666666 L21.3333334,13.6666666 Z" id="path-1"></path>
        <filter x="-31.2%" y="-22.9%" width="162.5%" height="162.5%" filterUnits="objectBoundingBox" id="filter-2">
            <feMorphology radius="0.5" operator="dilate" in="SourceAlpha" result="shadowSpreadOuter1"></feMorphology>
            <feOffset dx="0" dy="2" in="shadowSpreadOuter1" result="shadowOffsetOuter1"></feOffset>
            <feGaussianBlur stdDeviation="2" in="shadowOffsetOuter1" result="shadowBlurOuter1"></feGaussianBlur>
            <feComposite in="shadowBlurOuter1" in2="SourceAlpha" operator="out" result="shadowBlurOuter1"></feComposite>
            <feColorMatrix values="0 0 0 0 0   0 0 0 0 0   0 0 0 0 0  0 0 0 0.25 0" type="matrix" in="shadowBlurOuter1"></feColorMatrix>
        </filter>
        <path d="M3.57116362,5.68933912 L2.58578644,6.15709861 C2.30757133,6.28916758 1.97497037,6.17069273 1.84290139,5.89247763 C1.7710654,5.74114868 1.7710654,5.56554251 1.84290139,5.41421356 L2.31066088,4.42883638 C2.43948464,4.1574576 2.43948464,3.8425424 2.31066088,3.57116362 L1.84290139,2.58578644 C1.71083242,2.30757133 1.82930727,1.97497037 2.10752237,1.84290139 C2.25885132,1.7710654 2.43445749,1.7710654 2.58578644,1.84290139 L3.57116362,2.31066088 C3.8425424,2.43948464 4.1574576,2.43948464 4.42883638,2.31066088 L5.41421356,1.84290139 C5.69242867,1.71083242 6.02502963,1.82930727 6.15709861,2.10752237 C6.2289346,2.25885132 6.2289346,2.43445749 6.15709861,2.58578644 L5.68933912,3.57116362 C5.56051536,3.8425424 5.56051536,4.1574576 5.68933912,4.42883638 L6.15709861,5.41421356 C6.28916758,5.69242867 6.17069273,6.02502963 5.89247763,6.15709861 C5.74114868,6.2289346 5.56554251,6.2289346 5.41421356,6.15709861 L4.42883638,5.68933912 C4.1574576,5.56051536 3.8425424,5.56051536 3.57116362,5.68933912 Z" id="path-3"></path>
        <filter x="-65.1%" y="-40.1%" width="230.3%" height="230.3%" filterUnits="objectBoundingBox" id="filter-4">
            <feOffset dx="0" dy="2" in="SourceAlpha" result="shadowOffsetOuter1"></feOffset>
            <feGaussianBlur stdDeviation="2" in="shadowOffsetOuter1" result="shadowBlurOuter1"></feGaussianBlur>
            <feColorMatrix values="0 0 0 0 0   0 0 0 0 0   0 0 0 0 0  0 0 0 0.25 0" type="matrix" in="shadowBlurOuter1"></feColorMatrix>
        </filter>
    </defs>
    <g id="Page-1" stroke="none" stroke-width="1" fill="none" fill-rule="evenodd">
        <g id="Group" transform="translate(5, 1)">
            <g id="Shape" fill-rule="nonzero">
                <use fill="black" fill-opacity="1" filter="url(#filter-2)" xlink:href="#path-1"></use>
                <use stroke="#4FA0E6" stroke-width="1" fill="#FFFFFF" xlink:href="#path-1"></use>
            </g>
            <g transform="translate(18, 0)">
                <g id="Star">
                    <use fill="black" fill-opacity="1" filter="url(#filter-4)" xlink:href="#path-3"></use>
                    <use fill="#4FA0E6" fill-rule="evenodd" xlink:href="#path-3"></use>
                </g>
                <polygon id="Star-Copy" fill="#FFFFFF" points="4 4.74288504 2.58578644 5.41421356 3.25711496 4 2.58578644 2.58578644 4 3.25711496 5.41421356 2.58578644 4.74288504 4 5.41421356 5.41421356"></polygon>
            </g>
        </g>
    </g>
</svg>