<svg width="67" height="67" viewBox="0 0 67 67" fill="none" xmlns="http://www.w3.org/2000/svg">
<path d="M21.9088 1.53687L35.7974 1.16679C40.675 0.96779 47.6294 0.972895 52.2366 0.570534C54.0388 0.44626 55.9334 0.405786 57.7202 0.722858C57.594 2.24157 58.6461 2.77576 59.2749 4.09891C60.0877 5.40016 60.8552 6.36475 60.753 7.93027L60.773 10.5084C60.7754 12.4213 60.9266 14.8269 60.8772 16.6199L61.0026 17.8858C61.0469 20.0374 61.244 23.0322 61.1946 25.0663C61.4446 26.772 61.7194 28.4647 61.4576 30.1916L61.3897 30.3343L61.5925 35.981L61.6725 37.9496L61.7666 40.805C61.8096 42.0373 61.9089 43.5977 61.8894 44.8027L61.9828 46.1126C62.062 49.7442 62.0503 53.4213 62.3529 57.0325C64.2956 58.5291 62.2269 59.1207 65.1605 58.9949C64.1429 61.9348 61.707 63.0786 58.7016 63.3937C52.6182 64.9142 42.3241 64.6349 35.7455 64.8861L20.4555 65.4662C16.1861 65.6201 11.7164 65.9899 7.53303 65.247C8.81531 64.9774 10.0388 64.5389 11.2804 64.1234L10.447 63.5577C7.82616 63.7444 6.34605 63.0165 5.83569 60.368L5.82978 60.207L5.24454 59.0877C5.00021 55.0024 4.83694 50.9123 4.75482 46.8205C7.63427 46.2829 12.5698 46.4449 16.0037 45.9512C14.1868 43.5539 14.5128 38.2753 14.4255 35.2137C14.3266 30.7606 14.1717 26.309 13.9608 21.8598L13.6871 21.7594L13.2788 21.3846C10.6462 21.4208 6.30679 21.5342 3.8357 22.1841L3.82375 20.8556C3.81026 18.0391 3.70716 15.2236 3.51409 12.4134L3.22234 10.0096L3.40537 9.77292C3.62423 8.1724 3.74277 7.67691 4.28533 6.15479C4.28049 4.78897 4.98188 4.97606 4.30525 3.06016C6.54661 1.62216 18.6284 1.6593 21.9088 1.53687Z" fill="#F9E5BB"/>
<path d="M21.9088 1.53687L35.7974 1.16679C40.675 0.96779 47.6294 0.972895 52.2366 0.570534C54.0388 0.446259 55.9334 0.405786 57.7202 0.722858C57.594 2.24157 58.6461 2.77576 59.2749 4.09891C60.0877 5.40016 60.8552 6.36475 60.753 7.93027L60.773 10.5084C60.7754 12.4213 60.9266 14.8269 60.8772 16.6199L61.0026 17.8858C61.047 20.0374 61.244 23.0322 61.1946 25.0663C57.7107 24.3516 44.9947 25.1371 40.2402 24.7707C39.5323 22.7027 39.2309 22.0121 38.0994 20.1677L36.232 18.0236C31.4685 14.43 26.5799 15.0427 20.964 15.1347C17.5742 15.1902 14.7725 14.9393 13.8885 18.6187L13.9608 21.8598L13.6871 21.7594L13.2788 21.3846C10.6462 21.4208 6.30679 21.5342 3.8357 22.1841L3.82375 20.8556C3.81026 18.0391 3.70717 15.2236 3.51409 12.4134L3.22234 10.0096L3.40537 9.77292C3.62423 8.1724 3.74277 7.67691 4.28533 6.15479C4.28049 4.78897 4.98188 4.97606 4.30525 3.06016C6.54661 1.62216 18.6284 1.6593 21.9088 1.53687Z" fill="#FCE9C2"/>
<path d="M3.51352 12.4135C8.68125 12.5517 14.608 12.2235 19.8209 12.0444L46.4832 11.0738C49.1935 10.9708 58.4625 10.3662 60.7725 10.5085C60.7749 12.4214 60.9261 14.827 60.8767 16.62L61.0021 17.8859C61.0464 20.0375 61.2434 23.0323 61.194 25.0664C57.7101 24.3517 44.9941 25.1372 40.2397 24.7708C39.5317 22.7028 39.2303 22.0122 38.0988 20.1678L36.2315 18.0237C31.4679 14.4301 26.5793 15.0428 20.9634 15.1348C17.5736 15.1903 14.772 14.9394 13.888 18.6188L13.9603 21.8599L13.6865 21.7595L13.2782 21.3847C10.6457 21.4209 6.30623 21.5343 3.83513 22.1842L3.82318 20.8557C3.8097 18.0392 3.7066 15.2237 3.51352 12.4135Z" fill="#F9E5BB"/>
<path d="M38.0981 20.168C39.304 19.2498 46.1237 19.1666 48.1198 18.9812C52.3436 18.5887 56.7692 18.1188 61.0014 17.8862C61.0457 20.0377 61.2427 23.0326 61.1933 25.0666C57.7094 24.3519 44.9935 25.1375 40.239 24.7711C39.531 22.7031 39.2296 22.0125 38.0981 20.168Z" fill="#F9E5BB"/>
<path d="M36.2331 18.0239C44.3715 17.9273 53.1469 16.583 60.8783 16.6203L61.0037 17.8862C56.7715 18.1188 52.3459 18.5887 48.1221 18.9811C46.126 19.1666 39.3063 19.2498 38.1005 20.168L36.2331 18.0239Z" fill="#EED2A3"/>
<path d="M3.82318 20.8556C6.54789 20.6269 9.79311 20.4585 12.4496 19.8564C13.4572 19.628 13.4925 19.3485 13.888 18.6188L13.9603 21.8599L13.6865 21.7595L13.2782 21.3847C10.6457 21.4209 6.30623 21.5343 3.83513 22.1842L3.82318 20.8556Z" fill="#EED2A3"/>
<path d="M21.9073 1.53701L35.7959 1.16693C40.6735 0.967935 47.6279 0.973039 52.2351 0.570679C54.0373 0.446404 55.9319 0.40593 57.7187 0.723002C57.5925 2.24172 58.6446 2.7759 59.2734 4.09905L58.0532 3.64747C40.9369 3.45914 23.0548 5.22629 5.88547 5.40634C5.30537 5.41243 4.81784 5.6552 4.38383 6.01937L4.28383 6.15493C4.27899 4.78911 4.98038 4.9762 4.30375 3.0603C6.54511 1.62231 18.6269 1.65944 21.9073 1.53701Z" fill="#F2D8A8"/>
<path d="M35.7973 1.16698C40.6748 0.967982 47.6293 0.973087 52.2365 0.570726L51.5101 1.26596C51.0119 1.67577 49.2371 3.14437 48.7512 3.26607C44.1672 4.4125 38.4654 3.46594 33.6529 3.68165C33.9907 3.24953 34.4616 2.78044 34.4691 2.2721C34.6338 1.85632 35.3869 1.44474 35.7973 1.16698Z" fill="#D9C39E"/>
<path d="M4.30375 3.0603C6.54511 1.62231 18.6269 1.65944 21.9073 1.53701L22.015 1.79799L21.7668 1.84359C20.3957 2.08944 18.2137 1.99561 17.2935 2.50491C17.0183 3.72523 17.1636 4.18866 16.3411 4.73573C13.041 4.91396 9.58358 4.85269 6.26116 4.87183L5.56516 3.98927C4.90112 4.511 4.86333 5.24971 4.38383 6.01937L4.28383 6.15493C4.27899 4.78911 4.98038 4.9762 4.30375 3.0603Z" fill="#D9C39E"/>
<path d="M21.9068 1.5375L35.7954 1.16742C35.385 1.44518 34.6319 1.85676 34.4672 2.27254C29.9154 6.90697 30.5464 1.87953 26.5935 1.77518C24.7932 1.72763 25.3283 3.26617 24.3555 4.46443C23.5246 4.79634 23.2827 4.65319 22.4091 4.3806C21.9796 3.6788 22.1374 2.80016 22.0145 1.79848L21.9068 1.5375Z" fill="#CDB795"/>
<path d="M52.2355 0.571359C54.0376 0.447084 55.9323 0.40661 57.719 0.723683C57.5928 2.2424 58.6449 2.77658 59.2737 4.09974L58.0536 3.64815C55.8318 1.21768 54.673 1.23927 51.5091 1.26659L52.2355 0.571359Z" fill="#EED2A3"/>
<path d="M3.40541 9.77313C11.7421 9.92357 20.4418 9.38139 28.8073 9.04094C39.3791 8.61073 50.2168 8.57664 60.7531 7.93049L60.7731 10.5087C58.4631 10.3664 49.1941 10.9709 46.4838 11.0739L19.8215 12.0445C14.6086 12.2237 8.68186 12.5518 3.51413 12.4136L3.22239 10.0098L3.40541 9.77313Z" fill="#EED2A3"/>
<path d="M13.8833 18.6197C14.7673 14.9403 17.569 15.1912 20.9587 15.1357C26.5747 15.0437 31.4633 14.431 36.2268 18.0245L38.0941 20.1687C39.2256 22.0131 39.527 22.7037 40.235 24.7717C40.7974 27.9648 41.4805 33.4904 40.1901 36.5603L40.2454 37.1003C39.7254 38.1685 39.1968 39.2321 38.6568 40.2913L36.8727 42.5357L34.9506 44.1177C30.3737 46.1894 20.7746 46.7328 15.9984 45.9521C14.1816 43.5549 14.5076 38.2763 14.4203 35.2147C14.3213 30.7616 14.1664 26.3099 13.9556 21.8608L13.8833 18.6197Z" fill="black"/>
<path d="M20.3955 20.317C25.3335 20.1076 30.0477 19.1049 33.1342 23.7601C33.8125 25.2171 33.9172 25.8088 34.2528 27.3991C34.4855 29.3317 34.6244 31.222 34.4011 33.1688C32.9338 41.7596 28.3919 41.0165 20.987 41.1687L20.8463 37.3085C20.7071 34.0988 20.0534 22.7752 20.3955 20.317Z" fill="#F9E5BB"/>
<path d="M21.0459 34.7499C24.837 35.0709 30.6447 33.8861 34.4006 33.1688C32.9334 41.7596 28.3915 41.0164 20.9866 41.1687L20.8459 37.3085C21.2937 36.5061 21.0827 35.8037 21.0459 34.7499Z" fill="#F6DEB2"/>
<path d="M20.3934 20.317C25.3314 20.1075 30.0456 19.1049 33.1322 23.7601C33.0949 23.8148 33.0633 23.8738 33.0175 23.9244C31.838 25.2768 22.9523 25.5177 20.7115 25.8729C20.6695 23.9554 20.6697 22.2217 20.3934 20.317Z" fill="#F9E5BB"/>
<path d="M20.3955 20.316C20.6717 22.2206 20.6715 23.9543 20.7135 25.8719C22.9543 25.5167 31.84 25.2757 33.0195 23.9233C33.0653 23.8728 33.0969 23.8138 33.1342 23.759C33.8124 25.216 33.9171 25.8077 34.2527 27.398C30.1801 26.907 24.998 27.1673 20.7781 27.1424L21.0462 34.7488C21.083 35.8027 21.2941 36.505 20.8462 37.3075C20.707 34.0977 20.0533 22.7741 20.3955 20.316Z" fill="#EED2A3"/>
<path d="M5.245 59.0883C6.3506 57.9857 10.1192 58.3431 11.8798 58.2886L23.6693 57.9053L61.7278 56.5248C62.0706 56.7964 62.0369 56.7929 62.1887 57.2095L62.3533 57.0331C64.2961 58.5297 62.2274 59.1213 65.161 58.9955C64.1434 61.9354 61.7074 63.0792 58.702 63.3943C52.6187 64.9148 42.3246 64.6355 35.746 64.8867L20.456 65.4668C16.1865 65.6207 11.7169 65.9905 7.53349 65.2476C8.81578 64.978 10.0392 64.5395 11.2809 64.124L10.4475 63.5583C7.82663 63.745 6.34651 63.0171 5.83615 60.3686L5.83024 60.2076L5.245 59.0883Z" fill="#EED2A3"/>
<path d="M5.245 59.0883C6.3506 57.9857 10.1192 58.3431 11.8798 58.2886L23.6693 57.9053L61.7278 56.5248C62.0706 56.7964 62.0369 56.7929 62.1887 57.2095C61.6168 58.8 57.7751 60.9114 56.0051 62.1166L55.6297 62.032C55.3809 61.405 55.2115 60.6461 54.4688 60.389C48.2264 58.2367 41.3283 60.5687 34.856 60.0919C33.963 60.0263 32.1321 59.6471 31.4929 60.0285C32.1077 60.3914 32.1198 60.2568 32.2973 60.7683C31.2804 61.2432 31.0399 61.0933 30.0592 61.4017C29.0239 61.7262 28.7103 63.2287 27.7824 62.9783L27.671 62.7083C27.363 61.9734 27.2572 61.5488 26.525 61.1875C24.2168 61.0479 23.5476 61.773 21.4482 62.0962C20.8799 62.1837 19.0246 61.4113 17.8536 61.4113C17.2288 61.6457 12.3279 61.6657 10.9172 62.1965C8.46297 63.1199 7.72633 61.7471 6.02145 60.5021L5.83615 60.3686L5.83024 60.2076L5.245 59.0883Z" fill="#FCE9C2"/>
<path d="M5.82739 60.2072C9.73468 60.6071 17.0559 59.8295 19.6812 60.4136C18.9181 60.7684 18.5508 60.9491 17.8507 61.4108C17.226 61.6452 12.3251 61.6652 10.9144 62.196C8.46012 63.1195 7.72348 61.7466 6.0186 60.5016L5.8333 60.3681L5.82739 60.2072Z" fill="#F9E5BB"/>
<path d="M27.0615 63.4261C27.8508 64.1082 28.4575 63.9323 29.2876 63.9879C31.4158 64.131 33.4686 60.6766 34.874 62.1034C35.8204 63.0607 36.1917 63.5055 37.7121 63.4143C40.8983 63.2234 45.8838 61.3833 48.9057 61.6207C52.537 61.9058 54.6446 63.2307 58.7002 63.3942C52.6169 64.9147 42.3228 64.6354 35.7442 64.8866L20.4541 65.4668C16.1847 65.6206 11.715 65.9904 7.53166 65.2475C8.81395 64.9779 10.0374 64.5394 11.279 64.1239L11.5538 64.0673C13.066 63.7409 15.457 62.4419 15.9763 62.3712C16.9305 62.2416 21.1094 64.502 22.7598 64.0013C24.3094 63.8077 25.4882 63.2141 27.0615 63.4261Z" fill="#AEA08F"/>
<path d="M22.7592 64.0011C23.534 62.6161 24.5228 61.1621 26.3292 61.5198C27.0844 62.3181 26.864 62.1638 27.061 63.4258C25.4877 63.2139 24.3088 63.8075 22.7592 64.0011Z" fill="#CDB795"/>
<path d="M40.2398 24.7717C44.9942 25.1381 57.7102 24.3525 61.1941 25.0672C61.4441 26.773 61.7189 28.4656 61.4571 30.1926L61.3893 30.3352L61.5921 35.982C58.7061 36.2682 42.0223 38.2803 40.6885 37.7028L40.2502 37.1003L40.1949 36.5603C41.4853 33.4904 40.8022 27.9648 40.2398 24.7717Z" fill="#EED2A3"/>
<path d="M41.3331 30.4152C43.4496 30.228 59.2591 29.8866 61.3893 30.3344L61.5921 35.9812C58.7061 36.2673 42.0222 38.2794 40.6885 37.702L40.2502 37.0994L40.1949 36.5594C43.6622 35.5154 55.4656 35.3031 59.5935 34.0896C59.9151 33.9954 59.9192 33.6312 59.9917 33.3031C58.9451 32.7663 55.3134 32.632 53.9806 32.4C49.8862 31.6885 45.7198 32.5201 41.5893 32.6173C41.1622 31.9355 41.2692 31.5519 41.3161 30.73L41.3331 30.4152Z" fill="#FCE9C2"/>
<path d="M41.0046 28.631C41.3056 27.626 41.3478 27.0685 42.5779 27.2443C46.5861 27.8157 57.7911 26.4305 60.9852 27.268C61.4303 27.9837 61.3923 28.0972 61.4534 28.9673L61.4542 30.1924L61.3864 30.3351C59.2562 29.8873 43.4467 30.2287 41.3303 30.4159C41.3306 29.9436 41.1113 29.1188 41.0046 28.631Z" fill="#FCE9C2"/>
<path d="M41.0046 28.6301C42.8405 29.1525 58.8697 29.0879 61.4534 28.9665L61.4542 30.1916L61.3863 30.3343C59.2561 29.8865 43.4466 30.2279 41.3302 30.4151C41.3305 29.9428 41.1112 29.1179 41.0046 28.6301Z" fill="#F2D8A8"/>
<path d="M61.5887 35.9812L61.6686 37.9498L61.7627 40.8052C57.7864 41.1475 54.7975 41.4528 50.7927 41.7021C48.3999 40.7909 46.3524 40.547 45.0446 43.2794C42.4564 42.7878 39.0869 43.9044 36.8741 42.5349L38.6582 40.2905C39.1982 39.2313 39.7268 38.1677 40.2468 37.0995L40.6852 37.702C42.0189 38.2795 58.7027 36.2674 61.5887 35.9812Z" fill="#FCE9C2"/>
<path d="M61.5867 35.9813L61.6666 37.9498C57.3805 38.4037 53.2072 38.638 48.8798 39.1926C46.9698 39.4377 40.0416 40.344 38.6562 40.2906C39.1962 39.2313 39.7247 38.1678 40.2448 37.0995L40.6831 37.7021C42.0169 38.2795 58.7007 36.2674 61.5867 35.9813Z" fill="#F2D8A8"/>
<path d="M50.7949 41.7025C54.7997 41.4533 57.7886 41.148 61.7649 40.8056C61.8079 42.038 61.9072 43.5984 61.8877 44.8034C61.6562 44.8304 59.1665 44.8341 58.8746 44.8162C57.008 44.7007 52.9421 45.845 51.7458 44.4729C51.6299 43.0772 51.5512 42.8292 50.7949 41.7025Z" fill="#F9E5BB"/>
<path d="M45.0448 43.2798C46.3525 40.5475 48.4 40.7913 50.7929 41.7025C51.5492 42.8292 51.6279 43.0772 51.7438 44.4728C51.415 45.002 50.8735 45.9363 50.4855 46.3743C49.2348 47.374 48.3967 48.2357 47.2821 49.3626C48.8311 49.2877 50.3461 49.1218 51.7988 49.6564L51.7553 50.0161C50.2421 50.9537 46.6408 51.6907 45.2656 50.2455C45.1434 47.869 50.1613 45.9954 49.768 43.232C47.5093 40.9518 47.2224 44.0415 45.6438 44.5536L45.0118 44.1014L45.0448 43.2798Z" fill="black"/>
<path d="M51.7435 44.4735C52.9397 45.8456 57.0057 44.7014 58.8722 44.8168C59.1641 44.8347 61.6538 44.831 61.8853 44.804L61.9787 46.1139C56.9684 46.2819 56.2257 46.9073 50.4851 46.375C50.8731 45.937 51.4147 45.0026 51.7435 44.4735Z" fill="#F2D8A8"/>
<path d="M34.9555 44.1171L36.8776 42.5351C39.0904 43.9045 42.4599 42.7879 45.0481 43.2795L45.0152 44.1012C44.0648 43.4313 37.8262 44.7575 34.9555 44.1171Z" fill="#D9C39E"/>
<path d="M2.29681 4.86229L4.30254 3.06105C4.97917 4.97695 4.27777 4.78986 4.28262 6.15568C3.74005 7.6778 3.62151 8.17329 3.40265 9.77381L3.21963 10.0105L3.51137 12.4143C3.70445 15.2245 3.80755 18.04 3.82104 20.8564L3.83299 22.185C6.30408 21.5351 10.6435 21.4217 13.2761 21.3855L13.6843 21.7603L13.9581 21.8607C14.1689 26.3098 14.3238 30.7615 14.4228 35.2146C14.5101 38.2762 14.1841 43.5548 16.0009 45.952C12.5671 46.4457 7.63155 46.2838 4.75211 46.8214C4.83422 50.9132 4.9975 55.0033 5.24183 59.0886L5.82706 60.2079L5.83297 60.3689C6.34333 63.0174 7.82345 63.7453 10.4443 63.5586L11.2777 64.1243C10.0361 64.5397 8.8126 64.9783 7.53031 65.2479C1.42524 63.4274 1.98747 56.7015 1.81433 51.639L1.37284 40.0152L0.717468 20.3016C0.565546 15.4699 -0.454182 8.90177 2.29681 4.86229Z" fill="#EED2A3"/>
<path d="M2.29681 4.86229L4.30254 3.06105C4.97917 4.97695 4.27778 4.78986 4.28262 6.15568C3.74005 7.67779 3.62152 8.17329 3.40265 9.77381L3.21963 10.0105L3.51137 12.4143C3.70445 15.2245 3.80755 18.04 3.82104 20.8564L3.83299 22.185C3.97768 24.588 4.14587 26.9184 4.10482 29.3282C4.0946 31.8426 4.14982 40.5055 4.6428 42.7204L4.62249 43.9917C4.5696 45.2201 4.57503 45.6082 4.75211 46.8214C4.83422 50.9132 4.9975 55.0033 5.24183 59.0886L5.82706 60.2079L5.83297 60.3689C6.34333 63.0174 7.82345 63.7453 10.4443 63.5586L11.2777 64.1243C10.0361 64.5397 8.8126 64.9783 7.53031 65.2479C1.42524 63.4274 1.98747 56.7015 1.81433 51.639L1.37284 40.0152L0.717468 20.3016C0.565546 15.4699 -0.454182 8.90177 2.29681 4.86229Z" fill="#C0AB8C"/>
<path d="M2.30141 4.86203L4.30714 3.06079C4.98376 4.97669 4.28237 4.7896 4.28722 6.15542C3.74465 7.67754 3.62611 8.17303 3.40725 9.77355L3.22423 10.0103C3.24044 8.79015 2.75178 8.23128 2.23812 7.17236C2.07575 6.83769 2.26295 5.33269 2.30141 4.86203Z" fill="#CDB795"/>
<path d="M3.83511 22.184C6.30621 21.5341 10.6456 21.4207 13.2782 21.3844L13.6865 21.7592C13.7456 24.3342 13.822 26.9088 13.9158 29.4828C10.3422 29.0125 6.78596 29.6747 4.10695 29.3271C4.14799 26.9174 3.97981 24.587 3.83511 22.184Z" fill="#F6DEB2"/>
<path d="M7.31365 24.6176C8.97551 24.4463 11.4326 23.9411 12.8487 25.0158L12.6746 25.6063L12.9612 25.3428C12.2985 25.8872 11.706 25.8982 10.8864 25.983C8.55568 26.2267 6.59188 26.4055 4.28615 25.8559L4.10086 25.4025L4.08702 25.7036L4.28666 25.2772C5.19584 24.7333 6.28189 24.723 7.31365 24.6176Z" fill="#FCE9C2"/>
<path d="M4.64428 42.7198C4.64313 41.8849 4.5308 40.5373 4.90456 39.8835C6.84357 39.1952 12.0838 39.3072 14.2534 39.3433C14.2912 40.5546 14.3796 42.0286 14.3595 43.2169C11.387 43.6327 7.6161 44.0739 4.62397 43.9911L4.64428 42.7198Z" fill="#FCE9C2"/>
<path d="M4.32091 30.0336C7.43978 30.4894 10.8094 30.2757 13.9659 30.3252C14.0118 31.526 14.4329 34.5951 13.8349 35.54C10.8481 36.3299 7.56646 36.4592 4.49092 36.6025L4.32091 30.0336Z" fill="#FCE9C2"/>
<path d="M57.7177 0.723668C60.146 1.44912 62.0078 1.90917 63.5345 4.08456C64.4643 6.00774 64.6959 23.3856 64.8243 27.1432L65.5199 46.4204C65.6026 48.6285 65.9795 54.8495 65.5802 56.6489L65.158 58.9957C62.2244 59.1216 64.2931 58.53 62.3504 57.0333C62.0478 53.4221 62.0594 49.745 61.9802 46.1134L61.8869 44.8035C61.9064 43.5986 61.8071 42.0381 61.764 40.8058L61.6699 37.9504L61.59 35.9819L61.3872 30.3351L61.4551 30.1924C61.7168 28.4655 61.4421 26.7728 61.192 25.0671C61.2414 23.033 61.0444 20.0382 61.0001 17.8866L60.8747 16.6207C60.9241 14.8277 60.7729 12.4221 60.7705 10.5093L60.7505 7.93108C60.8527 6.36556 60.0852 5.40097 59.2723 4.09972C58.6436 2.77657 57.5914 2.24238 57.7177 0.723668Z" fill="#DBC69E"/>
<path d="M63.5348 4.08427C64.4646 6.00745 64.6961 23.3853 64.8245 27.1429L65.5201 46.4201C65.6028 48.6282 65.9797 54.8492 65.5804 56.6486C65.5588 56.5923 65.5373 56.5366 65.5185 56.4796C65.4844 56.3853 65.453 56.2896 65.4217 56.1952C64.0849 52.4002 62.7439 9.02584 63.5348 4.08427Z" fill="#ADA585"/>
</svg>
