<svg width="66" height="66" viewBox="0 0 66 66" fill="none" xmlns="http://www.w3.org/2000/svg">
<path d="M22.0407 0.395525C23.2549 0.451759 24.5123 0.577174 25.7243 0.515733L28.7901 0.544483C36.976 0.753277 45.1632 0.911214 53.3511 1.0177L56.2214 1.03192C59.366 1.30484 61.289 1.95886 63.3866 4.40467C63.4238 4.44815 63.4602 4.49245 63.4969 4.53619C64.9983 8.37963 64.2915 10.8813 63.9322 14.8057C63.8352 15.8628 63.9926 16.9916 63.8515 18.0231C64.9274 22.8772 64.5237 28.0459 64.4497 32.991C64.3637 38.7356 64.5109 44.6089 64.0562 50.3337C63.8611 52.7918 63.3741 55.2278 63.0362 57.6692C63.0486 59.3636 62.7611 60.8022 61.5275 62.0569C59.8387 63.7748 57.1736 64.0761 54.9311 64.5337C48.0953 65.1449 40.785 64.5301 33.9068 64.4173C26.0182 64.2882 17.849 64.5664 9.99755 63.8909C7.73654 63.6966 4.78145 63.4041 2.74058 62.4213C2.20459 61.848 1.76859 61.1292 1.31307 60.4892C0.585558 59.314 0.406171 58.419 0.314253 57.0483C0.0650774 53.3324 0.306934 49.5219 0.382652 45.7969L0.694845 28.1947L0.954996 13.0585C0.99985 10.4969 0.850775 7.7149 1.18308 5.18469C1.32338 4.11644 1.78177 3.2996 2.63683 2.63373C3.93178 1.27028 4.77902 0.318663 6.70643 0.0975647L8.12215 0.226276C12.2872 0.251422 16.452 0.328292 20.6153 0.456583L22.0407 0.395525Z" fill="#D9C39E"/>
<path d="M22.0451 0.395636C23.2593 0.45187 24.5166 0.577285 25.7287 0.515845L28.7945 0.544594C36.9803 0.753388 45.1676 0.911325 53.3555 1.01781L56.2258 1.03203C57.1472 1.93748 57.5698 3.4291 58.5946 4.07272C59.8463 5.14801 60.5769 6.02232 60.6743 7.72239C60.6934 8.05116 60.6881 8.3734 60.6675 8.70176L60.5608 11.0382C60.4757 13.0368 60.3666 15.0297 60.4685 17.0296C60.4629 17.5287 60.5108 18.0969 60.4372 18.5876C60.3101 20.9531 60.313 23.3176 60.3074 25.6858C56.052 24.7361 47.7095 24.7801 43.1103 24.595C42.6666 22.9812 42.1069 21.584 41.3772 20.084C40.6515 18.9478 39.8108 17.982 38.912 16.9818C35.7411 14.6663 32.9249 13.7431 29.0786 13.3005C25.7245 13.4291 22.9956 13.891 19.9321 15.3623C19.0837 16.0047 18.1507 16.6275 17.3804 17.358C16.6692 18.2683 15.9403 19.1702 15.2843 20.1213C13.7744 18.9252 5.7258 19.6766 3.36019 19.6573L3.38296 18.5175L3.47096 13.3369L3.54743 10.169C3.53828 8.85895 3.60477 7.56554 3.69144 6.25859C3.99531 5.41513 4.19953 4.54018 4.42387 3.67308C4.84237 2.39333 5.85639 1.12676 6.71082 0.0976761L8.12654 0.226387C12.2916 0.251533 16.4564 0.328403 20.6197 0.456694L22.0451 0.395636Z" fill="#FCE9C2"/>
<path d="M3.75827 10.2277C22.6962 10.3082 41.6239 10.9757 60.5608 11.0381C60.4757 13.0367 60.3666 15.0297 60.4686 17.0296C60.4629 17.5287 60.5108 18.0969 60.4372 18.5875C60.3101 20.9531 60.313 23.3176 60.3074 25.6858C56.052 24.736 47.7095 24.7801 43.1103 24.5949C42.6667 22.9812 42.1069 21.5839 41.3772 20.0839C40.6515 18.9477 39.8108 17.9819 38.912 16.9818C35.7411 14.6663 32.9249 13.7431 29.0786 13.3005C25.7245 13.4291 22.9957 13.8909 19.9321 15.3623C19.0837 16.0046 18.1507 16.6274 17.3804 17.3579C16.6692 18.2682 15.9403 19.1702 15.2843 20.1213C13.7744 18.9252 5.72581 19.6766 3.3602 19.6573L3.38297 18.5175L3.47097 13.3368L3.54744 10.1689L3.75827 10.2277Z" fill="#FCE9C2"/>
<path d="M41.3703 20.0838C44.5588 17.9463 56.1802 18.6887 60.4302 18.5874C60.3032 20.9529 60.306 23.3174 60.3004 25.6856C56.045 24.7359 47.7025 24.7799 43.1033 24.5948C42.6597 22.981 42.1 21.5838 41.3703 20.0838Z" fill="#F9E5BB"/>
<path d="M3.47097 13.337L6.04165 13.7754C9.05576 13.8486 17.0361 13.2526 19.2371 14.4666C19.47 14.7579 19.7348 15.047 19.9321 15.3625C19.0837 16.0049 18.1507 16.6276 17.3804 17.3581C16.6692 18.2685 15.9403 19.1704 15.2843 20.1215C13.7744 18.9254 5.72581 19.6768 3.3602 19.6575L3.38298 18.5177L3.47097 13.337Z" fill="#FCE9C2"/>
<path d="M13.8159 17.5907C15.0077 17.5659 16.1732 17.3504 17.3804 17.3578C16.6693 18.2682 15.9404 19.1701 15.2843 20.1212C13.7744 18.9251 5.72582 19.6765 3.36022 19.6572L3.38299 18.5174C6.79347 17.8714 10.3608 18.063 13.8159 17.5907Z" fill="#EED2A3"/>
<path d="M3.47053 13.337L6.04121 13.7754C5.20237 13.7705 4.50864 13.6333 3.76729 14.0497C3.6881 14.7842 3.70672 14.7642 4.17494 15.3425C5.51152 15.9679 12.0898 17.2947 13.8154 17.591C10.3604 18.0632 6.79301 17.8716 3.38253 18.5177L3.47053 13.337Z" fill="#F6DEB2"/>
<path d="M3.54699 10.1689L3.75782 10.2277C3.72538 10.9357 3.6083 11.2847 4.02357 11.9057C7.11971 12.6603 11.9946 12.2139 15.2629 12.2787C19.0489 12.354 22.7352 12.638 26.503 12.9713C27.2912 13.041 28.4445 12.8587 29.0781 13.3005C25.7241 13.4291 22.9952 13.891 19.9317 15.3623C19.7344 15.0469 19.4696 14.7577 19.2367 14.4664C17.0357 13.2524 9.05531 13.8484 6.0412 13.7753L3.47052 13.3369L3.54699 10.1689Z" fill="#F2D8A8"/>
<path d="M38.9123 16.9819C45.9648 17.9755 53.3451 16.7881 60.4689 17.0298C60.4632 17.5289 60.5111 18.097 60.4375 18.5877C56.1875 18.689 44.5661 17.9466 41.3775 20.0841C40.6518 18.9479 39.8111 17.9821 38.9123 16.9819Z" fill="#EED2A3"/>
<path d="M3.68839 6.25773C3.78198 6.6476 3.80957 7.27853 4.14384 7.50713C4.93269 8.04707 54.866 8.55297 60.6645 8.7009L60.5578 11.0373C41.6209 10.9749 22.6931 10.3074 3.7552 10.2269L3.54437 10.1681C3.53523 8.8581 3.60172 7.56469 3.68839 6.25773Z" fill="#EED2A3"/>
<path d="M28.7912 0.544678C36.977 0.753472 45.1643 0.911409 53.3522 1.0179C50.4752 2.52561 49.5431 3.30637 46.2167 3.65712L31.3114 3.42921C28.1458 2.6025 30.2742 2.08121 28.7912 0.544678Z" fill="#CDB795"/>
<path d="M22.0424 0.395025C23.2565 0.451259 24.5139 0.576674 25.7259 0.515233C25.6901 1.55999 25.5138 2.34478 25.1431 3.32167L23.1011 3.3205C21.0211 3.48471 18.8222 3.65352 16.7747 3.18645C17.999 1.73527 18.7262 0.915041 20.617 0.456083L22.0424 0.395025Z" fill="#F2D8A8"/>
<path d="M22.0391 0.39502C23.2532 0.451254 24.5106 0.576669 25.7226 0.515228C25.6868 1.55999 25.5105 2.34477 25.1398 3.32167L23.0978 3.3205C22.7269 3.14244 22.532 2.89987 22.2736 2.59417C22.3307 2.04063 22.4241 1.50693 22.5326 0.961517L22.0391 0.39502Z" fill="#CDB795"/>
<path d="M8.12578 0.226532C12.2908 0.251678 16.4556 0.328548 20.6189 0.456839C18.7281 0.915797 18.0009 1.73602 16.7767 3.1872L12.3851 3.1428C10.3301 1.82099 10.6939 0.872615 8.12578 0.226532Z" fill="#D9C39E"/>
<path d="M53.3557 1.0181L56.226 1.03232C57.1474 1.93777 57.5699 3.42939 58.5948 4.073C54.6184 4.38738 50.217 3.83583 46.2202 3.65732C49.5466 3.30658 50.4787 2.52581 53.3557 1.0181Z" fill="#F2D8A8"/>
<path d="M6.70752 0.0976556L8.12324 0.226367C10.6914 0.872449 10.3276 1.82082 12.3825 3.14263C10.0231 3.16263 7.34158 2.9473 5.05537 3.51421C4.8426 3.56695 4.63222 3.61529 4.42056 3.67306C4.83906 2.39331 5.85309 1.12674 6.70752 0.0976556Z" fill="#EED2A3"/>
<path d="M25.7236 0.515884L28.7894 0.544634C30.2725 2.08117 28.144 2.60246 31.3096 3.42917C29.2904 3.59332 27.1149 3.85097 25.1408 3.32232C25.5115 2.34543 25.6878 1.56064 25.7236 0.515884Z" fill="#F2D8A8"/>
<path d="M29.0729 13.2995C32.9193 13.7421 35.7354 14.6653 38.9063 16.9808C39.8051 17.981 40.6458 18.9468 41.3715 20.083C42.1013 21.583 42.661 22.9802 43.1046 24.594C43.6649 27.8161 43.8593 32.0581 42.6971 35.1717L42.2272 36.742C41.7395 37.6515 41.2815 38.6021 40.7488 39.4847L38.6921 41.8803L36.543 43.421C31.8921 45.5273 26.8429 46.0299 21.985 44.1936C21.4042 43.9741 20.8195 43.7494 20.2574 43.4852C18.9249 42.6215 17.8353 41.7195 16.6934 40.6278C15.886 39.5435 15.2466 38.4213 14.6101 37.2311C13.9706 35.7187 13.6568 34.1879 13.3263 32.59L13.101 29.8912L13.2946 26.3722L13.6398 24.536C14.0548 22.9848 14.6288 21.5829 15.2786 20.1203C15.9347 19.1692 16.6636 18.2673 17.3747 17.357C18.1451 16.6265 19.078 16.0037 19.9264 15.3613C22.99 13.89 25.7188 13.4281 29.0729 13.2995Z" fill="black"/>
<path d="M20.3778 24.1444C21.0917 22.1648 22.3006 20.5242 24.1557 19.4681C26.16 18.3473 28.5328 18.0745 30.7413 18.7107C33.229 19.4363 34.7312 20.9476 35.9596 23.1521C36.4218 24.2926 36.7414 25.3797 36.9919 26.5838C37.1243 28.5682 37.1656 30.4575 36.8769 32.437C36.3893 34.1077 35.8982 35.7702 34.8408 37.1881L33.5516 38.5623C31.3164 39.8854 29.0679 40.7703 26.4338 40.1419C25.4716 39.9124 24.5965 39.537 23.7321 39.065C23.1142 38.6343 22.5746 38.0848 22.0223 37.5748C20.8891 36.2733 20.3819 34.6817 19.8686 33.072C19.4999 30.5415 19.5238 28.2629 19.8958 25.7409L20.3778 24.1444Z" fill="#F9E5BB"/>
<path d="M19.8708 33.0732C24.8819 33.9666 31.7143 32.7368 36.879 32.4382C36.3914 34.1089 35.9004 35.7714 34.8429 37.1893L33.5538 38.5635C31.3186 39.8866 29.0701 40.7715 26.4359 40.1431C25.4737 39.9136 24.5986 39.5382 23.7342 39.0662C23.1163 38.6355 22.5767 38.086 22.0244 37.576C20.8912 36.2745 20.384 34.683 19.8708 33.0732Z" fill="#EED2A3"/>
<path d="M22.023 37.5745C22.1438 37.422 22.2659 37.277 22.4156 37.1506C23.6384 36.1185 29.9894 36.0992 31.7673 36.1694C32.9684 36.2168 33.9802 36.2509 34.8415 37.1878L33.5524 38.562C31.3172 39.8851 29.0687 40.77 26.4346 40.1416C25.4723 39.9121 24.5973 39.5367 23.7328 39.0647C23.1149 38.634 22.5753 38.0845 22.023 37.5745Z" fill="#FCE9C2"/>
<path d="M23.7316 39.0645C25.9664 37.9107 31.0903 38.058 33.5512 38.5617C31.316 39.8849 29.0675 40.7697 26.4334 40.1414C25.4711 39.9119 24.5961 39.5365 23.7316 39.0645Z" fill="#F2D8A8"/>
<path d="M20.3781 24.1442C21.092 22.1646 22.3009 20.524 24.156 19.4679C26.1603 18.3471 28.533 18.0743 30.7416 18.7105C33.2293 19.4361 34.7315 20.9474 35.9598 23.1519C34.557 24.4804 23.3946 24.1348 20.7292 24.3533L20.3781 24.1442Z" fill="#F9E5BB"/>
<path d="M35.9609 23.1522C36.4232 24.2927 36.7428 25.3798 36.9933 26.5839C33.1738 26.5058 22.7837 25.1259 19.8971 25.741L20.3792 24.1445L20.7303 24.3536C23.3957 24.1351 34.5581 24.4807 35.9609 23.1522Z" fill="#EED2A3"/>
<path d="M56.2216 1.03218C59.3662 1.3051 61.2892 1.95913 63.3868 4.40494C63.4241 4.44841 63.4605 4.49271 63.4971 4.53646C64.9985 8.37989 64.2917 10.8816 63.9324 14.806C63.8355 15.863 63.9929 16.9918 63.8517 18.0234C64.9276 22.8775 64.524 28.0462 64.45 32.9912C64.3639 38.7359 64.5111 44.6091 64.0564 50.334C63.8613 52.7921 63.3743 55.2281 63.0365 57.6695L62.8745 56.2127C62.8808 57.0327 62.9384 57.828 62.6647 58.6127C61.5415 57.1211 63.0372 48.4107 62.3869 45.7838C62.3755 45.847 62.3629 45.9104 62.3523 45.9739C61.9366 48.4752 62.8569 58.3519 61.1132 59.5904C60.7859 59.8228 59.6464 60.1791 59.2432 60.1251C59.159 60.1136 59.08 60.0786 58.9983 60.0555C59.0307 59.7343 59.1283 59.4084 58.9932 59.1118C59.339 58.5388 59.5723 57.8957 59.8297 57.2795L59.7079 56.1933L59.8282 54.3071L59.8074 52.5881L59.8563 49.1627L59.9373 46.7819C58.1638 46.9037 50.9219 46.6285 50.0504 47.3652L49.7612 47.4962C49.7619 45.8259 49.7102 44.1428 49.9461 42.4855L49.667 40.8574L49.4941 40.2976L48.5723 40.5824C48.4961 40.4537 48.4919 40.4342 48.3726 40.3075C47.3688 39.2423 46.1397 39.1811 44.7823 39.1549C43.3985 39.4876 42.1687 39.5384 40.7503 39.4859C41.2831 38.6033 41.741 37.6527 42.2287 36.7432L42.6986 35.1729C43.8608 32.0592 43.6664 27.8173 43.1061 24.5951C47.7054 24.7803 56.0478 24.7362 60.3033 25.686C60.3088 23.3178 60.306 20.9533 60.433 18.5877C60.5067 18.097 60.4588 17.5289 60.4644 17.0298C60.3624 15.0298 60.4715 13.0369 60.5567 11.0383L60.6634 8.70191C60.6839 8.37355 60.6893 8.05131 60.6702 7.72254C60.5727 6.02247 59.8421 5.14817 58.5905 4.07287C57.5656 3.42925 57.143 1.93764 56.2216 1.03218Z" fill="#EED2A3"/>
<path d="M56.2246 1.03223C59.3691 1.30515 61.2921 1.95917 63.3898 4.40498C63.427 4.44846 63.4634 4.49275 63.5 4.5365C65.0015 8.37993 64.2946 10.8816 63.9353 14.806C63.8384 15.8631 63.9958 16.9919 63.8546 18.0234C64.9305 22.8775 64.5269 28.0462 64.4529 32.9913C64.3668 38.7359 64.514 44.6092 64.0594 50.334C63.8642 52.7921 63.3773 55.2281 63.0394 57.6695L62.8774 56.2128C62.8837 57.0327 62.9414 57.828 62.6676 58.6128C61.5444 57.1212 63.0401 48.4107 62.3898 45.7838C62.3784 45.847 62.3658 45.9105 62.3552 45.974C61.9395 48.4752 62.8599 58.3519 61.1161 59.5905C60.7888 59.8228 59.6493 60.1792 59.2461 60.1251C59.1619 60.1137 59.0829 60.0786 59.0012 60.0555C59.0336 59.7343 59.1312 59.4084 58.9961 59.1118C59.3419 58.5388 59.5752 57.8958 59.8326 57.2796L59.7108 56.1934L59.8312 54.3072L59.8103 52.5881L59.8592 49.1628L59.9402 46.782L60.0157 45.1731L59.9847 41.236L60.0462 38.6435L60.0943 36.7496C60.1559 35.5924 60.0969 34.4081 60.087 33.2482L60.3569 32.7006C60.3568 31.6836 60.3418 30.7036 60.1959 29.6954L60.2971 27.8078C60.3759 27.1142 60.3172 26.3845 60.3062 25.686C60.3117 23.3178 60.3089 20.9533 60.4359 18.5878C60.5096 18.0971 60.4617 17.5289 60.4673 17.0298C60.3653 15.0299 60.4744 13.037 60.5596 11.0384L60.6663 8.70195C60.6868 8.37359 60.6922 8.05136 60.6731 7.72258C60.5756 6.02252 59.8451 5.14821 58.5934 4.07291C57.5685 3.42929 57.1459 1.93768 56.2246 1.03223Z" fill="#DBC69E"/>
<path d="M62.8125 26.1627C64.0123 24.1448 62.0869 20.4442 63.8538 18.023C64.9297 22.8771 64.5261 28.0458 64.4521 32.9909C64.366 38.7355 64.5133 44.6088 64.0586 50.3337C63.8634 52.7917 63.3765 55.2277 63.0386 57.6691L62.8766 56.2124C62.8829 57.0324 62.9406 57.8276 62.6668 58.6124C61.5436 57.1208 63.0393 48.4103 62.389 45.7834C62.4557 39.2417 62.597 32.701 62.8125 26.1627Z" fill="#8C8B7D"/>
<path d="M63.4986 4.53575C65 8.37919 64.2932 10.8809 63.9339 14.8053C63.8369 15.8623 63.9943 16.9911 63.8531 18.0226C62.0862 20.4438 64.0116 24.1445 62.8118 26.1623C62.511 18.9609 62.9624 11.7109 63.4986 4.53575Z" fill="#A39B89"/>
<path d="M42.2287 36.7424C44.2751 38.4398 56.6156 36.4723 60.0914 36.7488L60.0433 38.6427L59.9818 41.2352L60.0128 45.1723L59.9372 46.7812C58.1638 46.9029 50.9219 46.6277 50.0504 47.3645L49.7612 47.4954C49.7618 45.8251 49.7102 44.142 49.9461 42.4847L49.667 40.8566L49.4941 40.2968L48.5723 40.5816C48.4961 40.4529 48.4919 40.4334 48.3726 40.3067C47.3688 39.2416 46.1397 39.1804 44.7822 39.1542C43.3984 39.4868 42.1687 39.5377 40.7503 39.4851C41.2831 38.6025 41.741 37.6519 42.2287 36.7424Z" fill="#F2D8A8"/>
<path d="M49.6691 40.8571C52.821 42.5818 56.5768 40.914 59.9839 41.2357L60.0149 45.1727L59.9394 46.7816C58.1659 46.9034 50.924 46.6282 50.0525 47.3649L49.7633 47.4959C49.764 45.8256 49.7124 44.1425 49.9483 42.4852L49.6691 40.8571Z" fill="#F9E5BB"/>
<path d="M49.9496 42.4853C50.4158 43.2705 50.1948 44.3912 50.1497 45.2776C53.4167 45.2712 56.7654 44.9545 60.0162 45.1728L59.9407 46.7817C58.1672 46.9035 50.9253 46.6282 50.0538 47.365L49.7646 47.496C49.7653 45.8257 49.7136 44.1426 49.9496 42.4853Z" fill="#F2D8A8"/>
<path d="M54.8043 38.8824C56.5544 38.8645 58.3082 38.8896 60.0445 38.6432L59.983 41.2357C56.5759 40.914 52.8201 42.5818 49.6682 40.8571L49.4953 40.2973C49.536 40.2048 49.5676 40.1078 49.6174 40.0197C50.3666 38.6942 53.193 39.171 54.547 38.9296L54.8043 38.8824Z" fill="#FCE9C2"/>
<path d="M44.7801 39.155C48.1421 38.5257 51.4098 38.7529 54.801 38.8828L54.5437 38.93C53.1897 39.1714 50.3633 38.6946 49.6141 40.02C49.5643 40.1082 49.5327 40.2052 49.492 40.2977L48.5702 40.5825C48.494 40.4538 48.4898 40.4342 48.3705 40.3076C47.3667 39.2424 46.1376 39.1812 44.7801 39.155Z" fill="#F9E5BB"/>
<path d="M43.596 30.4436C43.84 29.3307 43.5572 27.5492 44.1339 26.7036L44.5033 26.9086C49.7239 27.3718 55.055 27.6679 60.2945 27.8077L60.1934 29.6954C60.3392 30.7035 60.3542 31.6836 60.3543 32.7006L60.0844 33.2482L58.3095 33.3268C58.2679 33.3408 58.2277 33.3584 58.1853 33.3685C56.3011 33.8179 50.2998 32.0212 47.7167 31.9235C46.6719 31.8841 44.6366 32.2201 43.8068 31.7001L43.596 30.4436Z" fill="#F2D8A8"/>
<path d="M43.596 30.4435C44.6501 29.8479 57.7226 30.4965 59.4694 30.925C59.5984 30.9567 59.8065 31.0413 59.9186 31.0838C60.1061 31.6227 60.2507 32.1395 60.3543 32.7005L60.0844 33.2481L58.3095 33.3267C58.2679 33.3407 58.2277 33.3584 58.1853 33.3685C56.3011 33.8178 50.2998 32.0211 47.7168 31.9235C46.6719 31.8841 44.6366 32.2201 43.8068 31.7L43.596 30.4435Z" fill="#FCE9C2"/>
<path d="M44.5053 26.9083C49.7259 27.3715 55.057 27.6676 60.2964 27.8074L60.1953 29.6951C56.8941 28.5562 45.5367 29.4929 43.9308 28.2788C43.944 27.5826 44.1106 27.4626 44.5053 26.9083Z" fill="#FCE9C2"/>
<path d="M58.3124 33.3266L60.0873 33.248C60.0972 34.4079 60.1562 35.5922 60.0946 36.7494C56.6189 36.473 44.2784 38.4404 42.2319 36.743L42.7018 35.1727C42.9199 35.2716 43.1516 35.3644 43.3883 35.406C45.553 35.7862 57.9026 35.2172 59.4355 34.183L59.4895 33.8424L58.3124 33.3266Z" fill="#FCE9C2"/>
<path d="M3.06201 37.249C6.84028 36.9832 10.8145 37.2389 14.6159 37.2315C15.2525 38.4218 15.8918 39.544 16.6992 40.6282C17.8411 41.72 18.9307 42.6219 20.2632 43.4856C20.8254 43.7499 21.41 43.9745 21.9908 44.1941C26.8487 46.0303 31.8979 45.5278 36.5488 43.4214L38.6979 41.8807L40.7546 39.4852C42.173 39.5377 43.4028 39.4869 44.7866 39.1543C46.144 39.1805 47.3731 39.2417 48.3769 40.3068C48.4962 40.4335 48.5004 40.453 48.5766 40.5817L49.4984 40.2969L49.6713 40.8567L49.9504 42.4848C49.7145 44.1421 49.7662 45.8252 49.7655 47.4955C49.7006 48.5542 49.77 49.0802 49.1816 49.981L48.5592 50.2229C48.0571 49.8295 47.8917 49.7029 47.7983 49.0338C47.7537 48.7124 47.766 48.3705 47.767 48.0463C47.1886 47.3476 46.641 47.3725 45.7601 47.2821C38.1778 46.5026 30.1741 47.3674 22.5925 47.7331C20.2586 47.8459 17.9114 47.5671 15.575 47.5798C11.4499 47.6026 7.31806 47.956 3.19229 48.0483C3.17329 49.2333 3.08771 50.4565 3.16447 51.6376L2.83482 51.7483L2.92928 44.3441L3.00847 41.7022L3.06201 37.249Z" fill="#F6DEB2"/>
<path d="M3.05703 37.2489C6.83531 36.983 10.8095 37.2387 14.611 37.2314C15.2475 38.4217 15.8869 39.5438 16.6942 40.6281C15.3422 41.9583 6.84181 41.7721 4.46948 41.7568C3.98042 41.7513 3.49158 41.7331 3.0035 41.702L3.05703 37.2489Z" fill="#FCE9C2"/>
<path d="M16.6992 40.6283C17.8411 41.72 18.9307 42.622 20.2632 43.4857C18.1284 44.7508 5.98615 44.4026 2.92926 44.3442L3.00845 41.7023C3.49654 41.7333 3.98537 41.7516 4.47444 41.757C6.84676 41.7723 15.3471 41.9585 16.6992 40.6283Z" fill="#EED2A3"/>
<path d="M44.7851 39.1553C46.1425 39.1815 47.3717 39.2427 48.3755 40.3079C48.4948 40.4345 48.4989 40.4541 48.5751 40.5828C47.5686 41.7686 46.6888 42.4991 45.1903 42.9844C43.6154 42.4249 41.6666 43.0397 40.0178 42.7756C39.2255 42.6489 39.1445 42.4898 38.6964 41.8818L40.7531 39.4863C42.1716 39.5388 43.4013 39.488 44.7851 39.1553Z" fill="#FCE9C2"/>
<path d="M48.5709 40.5815L49.4927 40.2967L49.6656 40.8565L49.9447 42.4847C49.7088 44.1419 49.7604 45.8251 49.7598 47.4953C49.6949 48.554 49.7642 49.08 49.1759 49.9808L48.5535 50.2227C48.0514 49.8294 47.886 49.7027 47.7926 49.0337C47.7479 48.7122 47.7603 48.3704 47.7612 48.0461C47.8575 46.8826 48.1952 45.2869 47.7605 44.198C46.9398 43.7679 46.1852 44.4592 45.354 44.1516C45.2602 44.1165 45.1699 44.0733 45.0778 44.0341L45.1861 42.9831C46.6846 42.4978 47.5644 41.7673 48.5709 40.5815Z" fill="black"/>
<path d="M36.5441 43.421L38.6931 41.8803C39.1412 42.4883 39.2222 42.6474 40.0144 42.7741C41.6633 43.0381 43.6121 42.4234 45.187 42.9829L45.0787 44.0339C45.0421 43.9887 45.0103 43.9389 44.9682 43.8984C44.0331 42.9944 38.0993 43.4434 36.5441 43.421Z" fill="#D9C39E"/>
<path d="M50.051 47.365C50.9225 46.6282 58.1644 46.9034 59.9378 46.7817L59.8569 49.1625L59.808 52.5879L3.16076 51.638C3.084 50.457 3.16958 49.2337 3.18858 48.0488C7.31435 47.9564 11.4462 47.603 15.5713 47.5802C17.9077 47.5676 20.2549 47.8464 22.5888 47.7336C30.1704 47.3678 38.1741 46.503 45.7564 47.2825C46.6372 47.373 47.1849 47.3481 47.7632 48.0468C47.7623 48.371 47.7499 48.7129 47.7946 49.0343C47.888 49.7034 48.0534 49.83 48.5555 50.2234L49.1779 49.9814C49.7662 49.0807 49.6969 48.5547 49.7618 47.496L50.051 47.365Z" fill="#FCE9C2"/>
<path d="M50.0517 47.365C50.9233 46.6282 58.1652 46.9034 59.9386 46.7817L59.8576 49.1625C57.6516 48.8484 51.9641 49.7664 50.441 48.7131C50.0792 48.4626 50.1104 47.7974 50.0517 47.365Z" fill="#FCE9C2"/>
<path d="M3.16315 51.6387L59.8104 52.5885L59.8312 54.3076L59.7109 56.1938L59.8327 57.2799C56.8703 56.6684 53.4444 56.8942 50.4162 56.8389L33.966 56.5503L13.8721 56.1999C10.3697 56.151 6.68884 55.8798 3.21499 56.2383L2.67566 56.6354C2.90103 55.6193 2.77225 54.3058 2.7877 53.2512L2.83349 51.7494L3.16315 51.6387Z" fill="#FCE9C2"/>
<path d="M3.16098 51.6386L59.8082 52.5885L59.8291 54.3075L26.1448 53.7009C23.1338 53.2659 19.8492 53.4667 16.8045 53.4224C12.1415 53.355 7.44643 53.157 2.78553 53.2512L2.83132 51.7494L3.16098 51.6386Z" fill="#EED2A3"/>
<path d="M2.78772 53.2504C7.44862 53.1563 12.1437 53.3542 16.8067 53.4217C19.8514 53.466 23.136 53.2652 26.147 53.7002C26.1035 53.71 26.06 53.7206 26.016 53.7296C20.3294 54.8851 8.73482 52.2735 3.71003 54.0052L3.50497 54.3904C4.21438 54.8614 4.98897 54.9366 5.8223 55.0123C11.583 55.5362 17.7074 55.3088 23.5073 55.3569C29.828 55.4088 36.1394 55.6847 42.4619 55.7211C47.7812 55.7517 54.6241 55.293 59.7109 56.193L59.8327 57.2791C56.8704 56.6676 53.4445 56.8934 50.4162 56.8381L33.9661 56.5495L13.8721 56.1991C10.3697 56.1502 6.68886 55.879 3.21501 56.2375L2.67568 56.6347C2.90105 55.6185 2.77227 54.305 2.78772 53.2504Z" fill="#F2D8A8"/>
<path d="M2.67565 56.6348L3.21498 56.2376C6.68883 55.8791 10.3697 56.1503 13.8721 56.1992L33.966 56.5497L50.4162 56.8382C53.4444 56.8936 56.8703 56.6677 59.8327 57.2793C59.5753 57.8955 59.342 58.5386 58.9962 59.1115C53.0623 63.2766 50.3458 59.784 44.7227 59.7829C41.418 59.7825 37.9358 60.5641 34.6681 60.3544C33.1443 60.2563 29.8721 59.2136 28.5185 59.6909C27.4619 60.0634 26.5104 61.1272 25.3539 61.5565C24.5834 61.1806 24.477 60.2321 23.8603 59.589C22.7542 59.9351 21.5221 59.8154 20.4581 60.202C19.789 60.4448 19.2687 61.0784 18.6184 61.4128L18.0221 61.1387L18.0248 60.4516C16.5955 58.6106 6.87867 58.8251 4.08287 58.0429C3.17303 57.7881 3.09767 57.3969 2.67565 56.6348Z" fill="#FCE9C2"/>
<path d="M2.63692 2.63368L3.25813 2.85447C3.77404 2.51057 4.06445 2.19332 4.42527 1.69264L4.63614 1.75723C4.49532 2.04844 4.40047 2.21587 4.20484 2.46748C2.75507 4.33076 3.28337 12.428 3.2443 15.0056C3.05171 27.7115 2.92897 40.4375 2.54474 53.139C2.46582 55.7481 1.2687 57.9885 1.31316 60.4891C0.585645 59.314 0.406258 58.4189 0.31434 57.0482C0.0651645 53.3324 0.307021 49.5218 0.382739 45.7969L0.694932 28.1946L0.955084 13.0584C0.999937 10.4968 0.850862 7.71484 1.18317 5.18463C1.32347 4.11639 1.78185 3.29955 2.63692 2.63368Z" fill="#BFAC8C"/>
<path d="M2.74266 62.421C8.43076 60.9112 21.0106 62.2035 27.4628 62.2549C30.8667 62.2821 34.3138 62.4056 37.7106 62.3573C40.3357 62.3202 42.9859 62.0725 45.6083 62.1751C47.865 62.2628 53.615 62.3421 55.4306 63.2617C55.5096 63.5968 55.4761 63.8872 55.2686 64.1842C55.156 64.3454 55.0717 64.4093 54.9332 64.5334C48.0974 65.1447 40.7871 64.5299 33.9089 64.417C26.0202 64.288 17.8511 64.5661 9.99964 63.8907C7.73862 63.6963 4.78354 63.4039 2.74266 62.421Z" fill="#AEA08F"/>
<path d="M3.2521 27.9606C5.2341 27.5516 10.7423 27.8149 12.5571 28.8912C12.8348 29.2409 12.9918 29.4491 13.105 29.8919L13.3303 32.5906C13.6608 34.1885 13.9746 35.7194 14.6141 37.2317C10.8127 37.2391 6.83849 36.9834 3.06021 37.2492C3.05187 35.5362 3.12726 33.8197 3.17516 32.1074L3.2521 27.9606Z" fill="#FCE9C2"/>
<path d="M13.3302 32.5919C13.6607 34.1898 13.9745 35.7207 14.6141 37.233C10.8127 37.2404 6.83841 36.9847 3.06014 37.2505C3.0518 35.5375 3.12718 33.821 3.17509 32.1087C3.22059 32.72 3.29336 33.3247 3.37007 33.9329L3.78763 34.2372C6.27322 34.349 9.8254 34.379 12.2063 33.6229C12.9454 33.3881 12.9846 33.2505 13.3302 32.5919Z" fill="#EED2A3"/>
<path d="M3.3602 19.6576C5.7258 19.6769 13.7744 18.9255 15.2843 20.1215C14.6345 21.5841 14.0605 22.9861 13.6454 24.5373L13.3002 26.3734L13.1067 29.8925C12.9935 29.4497 12.8365 29.2415 12.5588 28.8918C10.744 27.8155 5.23575 27.5522 3.25375 27.9612C3.2614 26.9368 3.20912 25.9584 3.08822 24.9409C4.91076 24.6816 9.49694 25.4182 10.8537 24.6168C8.35558 24.2639 5.8006 24.3603 3.27792 24.1425L3.3602 19.6576Z" fill="#FCE9C2"/>
<path d="M3.36027 19.6575C5.72588 19.6769 13.7745 18.9255 15.2844 20.1215C14.6345 21.5841 14.0606 22.986 13.6455 24.5373C13.6236 23.8739 13.5809 23.3125 13.3636 22.6816C10.982 21.7838 6.38593 22.025 3.89131 22.4236C3.41879 22.9513 3.41287 23.4676 3.27799 24.1425L3.36027 19.6575Z" fill="#F6DEB2"/>
<path d="M3.25379 27.9608C3.26145 26.9364 3.20917 25.958 3.08826 24.9406C3.23535 25.4023 3.32112 26.0815 3.74861 26.3148C5.25458 27.137 10.8594 27.3817 12.5049 26.7952C12.7964 26.6913 13.0456 26.5446 13.3003 26.373L13.1067 29.8921C12.9935 29.4493 12.8365 29.2411 12.5588 28.8914C10.744 27.8152 5.2358 27.5519 3.25379 27.9608Z" fill="#F2D8A8"/>
</svg>
