<svg width="67" height="67" viewBox="0 0 67 67" fill="none" xmlns="http://www.w3.org/2000/svg">
<path d="M29.192 1.10179C33.4767 1.33301 57.8915 1.60526 60.1032 2.4141C61.9044 2.66074 63.3631 3.27842 64.4702 4.76504C65.0466 5.53648 65.2812 6.41617 65.5257 7.3309C66.0652 10.8374 64.3445 57.7131 63.9069 59.2876L63.5852 60.6614C62.7387 62.5857 61.3083 64.2788 59.2898 65.0548C58.6642 65.2961 57.9186 65.3705 57.2502 65.396C51.0165 66.1125 41.6175 65.1729 35.1174 64.9592C26.4625 64.675 16.0527 64.8333 7.61181 63.9393C6.47816 63.8192 5.525 63.4893 4.49538 63.0134C3.45584 62.2777 2.50894 61.3764 1.86011 60.2736C1.16911 59.0987 0.737389 57.6007 0.63532 56.2447C0.158259 49.9111 0.914064 43.0002 1.14379 36.6296C1.45884 27.8957 1.17536 12.9233 3.21298 4.92037C3.18837 3.74577 3.76697 2.86895 4.51401 2.02326L6.13321 1.05981C9.75694 -0.304627 19.432 0.79011 23.5293 0.956505C25.0231 1.00145 26.5539 1.12207 28.0453 1.0759L29.192 1.10179Z" fill="black"/>
<path d="M60.1033 2.41391C61.9045 2.66054 63.3632 3.27822 64.4704 4.76484C65.0467 5.53629 65.2813 6.41597 65.5259 7.3307C66.0654 10.8372 64.3447 57.7129 63.907 59.2874L63.5853 60.6612C62.7389 62.5856 61.3085 64.2786 59.29 65.0546C58.6643 65.2959 57.9188 65.3703 57.2504 65.3958C51.0167 66.1124 41.6177 65.1727 35.1176 64.959C26.4627 64.6748 16.0529 64.8331 7.61197 63.9391C6.47831 63.819 5.52516 63.4891 4.49554 63.0132C3.456 62.2775 2.5091 61.3762 1.86027 60.2734C1.16926 59.0985 0.737546 57.6005 0.635478 56.2445C0.158416 49.9109 0.914221 43 1.14395 36.6295C1.459 27.8955 1.17551 12.9231 3.21314 4.92018C3.18853 3.74557 3.76713 2.86875 4.51417 2.02307L6.13337 1.05961C6.02492 2.19765 5.77488 3.5192 5.92315 4.64789L5.31936 7.4303L5.03213 8.65729L5.16029 10.2577L5.18444 11.7492C5.15916 12.4491 5.09465 13.1693 5.12443 13.8681C6.13378 13.5167 15.3741 13.5685 16.43 14.1319C16.6296 14.2382 16.6202 14.244 16.7583 14.3768C16.5266 15.2455 16.2363 16.1274 16.1541 17.0243L15.9556 22.1734C15.8219 26.6746 14.4926 40.77 16.1927 44.0409C18.0743 44.6489 18.9557 44.6175 20.8118 43.9252C23.631 45.0528 32.1121 44.251 35.609 44.3279C36.0149 44.6221 36.417 44.864 36.8975 45.0193C37.8311 45.3197 38.8769 45.3637 39.7572 44.8704C40.6802 44.3515 40.9701 43.728 41.2466 42.769C42.6889 43.2948 44.3495 43.0089 45.8791 43.4351C47.2337 43.035 48.1566 42.0391 49.1178 41.0691L49.7449 40.7069L49.6514 40.4255C50.5219 39.5722 59.3537 39.4773 61.2524 39.331L61.282 37.7628L61.4362 35.5057L61.4616 34.5401L61.5123 32.049C61.3398 30.988 61.6077 29.7156 61.7234 28.6414L61.6483 26.553C61.7709 24.2418 61.8601 21.929 61.9157 19.6154L62.0156 18.1954C61.9896 16.1395 62.1146 14.0814 62.203 12.0282L62.3547 9.60381C62.4399 8.20572 62.134 7.28802 61.5574 6.04225C61.5197 6.00152 61.482 5.96134 61.4472 5.91988C60.6202 4.96622 59.9891 3.6858 60.1033 2.41391Z" fill="#F2D8A8"/>
<path d="M49.7442 40.7076L49.6507 40.4262C50.5212 39.5729 59.353 39.478 61.2518 39.3318L61.0238 46.0998L60.9923 47.56C60.9084 49.5634 60.9598 51.6893 60.7007 53.6711C54.3942 52.9529 47.7925 53.0907 41.4382 52.8588L3.88843 51.6117L4.04731 47.6056L4.0493 44.3736C7.97677 44.1169 12.3367 44.7526 16.1921 44.0416C18.0737 44.6496 18.9551 44.6182 20.8112 43.9259C23.6304 45.0535 32.1115 44.2517 35.6084 44.3286C36.0142 44.6228 36.4163 44.8647 36.8969 45.02C37.8304 45.3204 38.8763 45.3644 39.7565 44.8711C40.6795 44.3522 40.9694 43.7287 41.2459 42.7697C42.6883 43.2955 44.3489 43.0096 45.8785 43.4358C47.2331 43.0357 48.156 42.0399 49.1171 41.0698L49.7442 40.7076Z" fill="#FCE9C2"/>
<path d="M41.2459 42.7694C42.6882 43.2952 44.3489 43.0093 45.8785 43.4355C45.4133 43.8786 45.2071 43.946 45.1257 44.5979C45.7861 44.8794 46.4069 44.8583 47.086 44.6075C47.4651 44.4687 47.829 44.2857 48.1899 44.1088L47.9846 48.4671C43.7468 46.814 25.7015 47.9668 20.4274 47.9727C14.9767 47.9789 9.49744 47.7495 4.0473 47.6053L4.04929 44.3733C7.97676 44.1166 12.3367 44.7524 16.192 44.0413C18.0736 44.6493 18.9551 44.618 20.8111 43.9256C23.6303 45.0532 32.1115 44.2514 35.6084 44.3283C36.0142 44.6225 36.4163 44.8644 36.8969 45.0197C37.8304 45.3201 38.8762 45.3641 39.7565 44.8709C40.6795 44.3519 40.9694 43.7284 41.2459 42.7694Z" fill="#F6DEB2"/>
<path d="M49.7397 40.7074L49.6462 40.426C50.5167 39.5727 59.3485 39.4778 61.2472 39.3315L61.0192 46.0996L60.9878 47.5598C57.5305 47.6303 54.08 47.744 50.6238 47.7829C50.0114 48.4432 50.0385 49.1863 49.8824 50.0565C49.7384 50.5008 49.412 50.7317 49.0721 51.0277L48.5016 50.8884C47.8795 50.0682 47.9379 49.436 47.9801 48.4672L48.1854 44.1088C47.8245 44.2858 47.4606 44.4688 47.0815 44.6076C46.4024 44.8584 45.7816 44.8794 45.1212 44.598C45.2026 43.9461 45.4088 43.8787 45.874 43.4356C47.2286 43.0355 48.1515 42.0396 49.1126 41.0696L49.7397 40.7074Z" fill="#FCE9C2"/>
<path d="M49.7398 40.7071L50.1472 43.0355C49.6686 45.2242 49.7539 47.8211 49.8825 50.0563C49.7385 50.5006 49.4121 50.7315 49.0722 51.0274L48.5017 50.8881C47.8795 50.0679 47.9379 49.4358 47.9801 48.4669L48.1854 44.1086C47.8245 44.2856 47.4606 44.4685 47.0815 44.6074C46.4025 44.8581 45.7817 44.8792 45.1212 44.5977C45.2026 43.9459 45.4089 43.8784 45.874 43.4353C47.2286 43.0352 48.1515 42.0394 49.1127 41.0694L49.7398 40.7071Z" fill="black"/>
<path d="M50.1508 43.0354C50.4717 44.0053 50.3122 45.1335 50.2656 46.1468C53.8572 46.0691 57.4354 46.1369 61.0229 46.0992L60.9915 47.5594C57.5341 47.6299 54.0836 47.7437 50.6274 47.7826C50.015 48.4428 50.0422 49.1859 49.8861 50.0561C49.7575 47.821 49.6722 45.2241 50.1508 43.0354Z" fill="#F2D8A8"/>
<path d="M60.1006 2.41379C61.9018 2.66042 63.3605 3.2781 64.4677 4.76472C65.044 5.53617 65.2786 6.41585 65.5232 7.33058C66.0627 10.8371 64.342 57.7128 63.9043 59.2873L63.5826 60.6611C62.7362 62.5854 61.3058 64.2785 59.2873 65.0545C58.6616 65.2958 57.9161 65.3702 57.2477 65.3957C51.0139 66.1122 41.615 65.1726 35.1149 64.9589C26.46 64.6747 16.0502 64.833 7.60926 63.939C6.47561 63.8189 5.52245 63.489 4.49283 63.0131C5.59992 62.8061 6.57683 62.5915 7.6102 62.1364C13.9098 60.0944 15.0179 61.7223 20.6687 62.1969C22.7055 62.3679 24.6652 62.1494 26.7218 62.4327C28.0414 61.889 29.319 61.2161 30.5927 60.5723C32.4066 60.6157 34.1901 60.9705 36.0128 60.9992C43.2426 61.1123 47.5051 60.6197 54.5846 63.0363C56.2949 61.9672 58.156 61.2187 59.8033 60.0356L60.5912 58.3465L60.6229 57.0406L60.6648 55.1209L60.6987 53.6703C60.9578 51.6885 60.9064 49.5626 60.9903 47.5592L61.0217 46.099L61.2497 39.3309L61.2793 37.7627L61.4335 35.5055L61.4589 34.54L61.5095 32.0489C61.3371 30.9879 61.605 29.7155 61.7207 28.6413L61.6456 26.5529C61.7682 24.2416 61.8574 21.9289 61.913 19.6153L62.0129 18.1952C61.9869 16.1394 62.1119 14.0813 62.2003 12.028L62.352 9.60369C62.4372 8.20561 62.1312 7.2879 61.5547 6.04213C61.517 6.0014 61.4793 5.96122 61.4445 5.91976C60.6175 4.9661 59.9864 3.68568 60.1006 2.41379Z" fill="#DBC69E"/>
<path d="M7.6102 62.1363C13.9098 60.0943 15.0179 61.7223 20.6687 62.1969C22.7055 62.3679 24.6652 62.1494 26.7218 62.4327C28.2739 62.911 41.5899 62.6105 44.2056 62.5675C48.4086 62.4989 52.4195 63.6117 56.5645 64.0043C56.6699 64.5864 56.904 64.9196 57.2477 65.3957C51.0139 66.1122 41.615 65.1725 35.1149 64.9589C26.46 64.6747 16.0502 64.833 7.60926 63.939C6.47561 63.8189 5.52245 63.4889 4.49283 63.0131C5.59992 62.8061 6.57683 62.5915 7.6102 62.1363Z" fill="#AEA08F"/>
<path d="M65.5242 7.33054C66.0635 10.837 64.3428 57.7128 63.9053 59.2873C63.7974 56.6191 63.4114 53.9997 63.3965 51.3092C63.3609 45.2125 63.8831 39.0512 64.0934 32.95C64.2933 27.146 64.1409 12.0805 65.5242 7.33054Z" fill="#ADA585"/>
<path d="M56.5642 64.0042C59.1413 63.7067 60.8627 60.8004 63.5823 60.6609C62.7359 62.5852 61.3054 64.2783 59.287 65.0543C58.6613 65.2956 57.9158 65.37 57.2474 65.3955C56.9037 64.9194 56.6696 64.5863 56.5642 64.0042Z" fill="#ADA585"/>
<path d="M3.78656 57.0457L3.90368 56.4353C4.10994 56.2394 4.18766 56.0853 4.47779 56.0388C7.0977 55.6193 12.1816 56.3109 15.1256 56.3754C29.8718 56.6386 44.6145 57.1567 59.3426 57.9286C59.8555 57.9587 60.165 58.0517 60.5932 58.3467L59.8053 60.0358C58.158 61.2189 56.2969 61.9674 54.5866 63.0365C47.5071 60.6199 43.2446 61.1125 36.0148 60.9994C34.1921 60.9707 32.4086 60.6159 30.5947 60.5725C29.3209 61.2164 28.0434 61.8892 26.7238 62.4329C24.6671 62.1496 22.7075 62.3681 20.6707 62.1971C15.0199 61.7225 13.9118 60.0946 7.61219 62.1366C6.61573 62.023 5.71696 61.8872 4.93473 61.1894C3.91305 60.278 3.90705 59.0103 3.87437 57.7546L3.78656 57.0457Z" fill="#FCE9C2"/>
<path d="M3.87515 57.7551C4.98967 58.239 17.6932 59.9879 19.6421 60.1245C21.2427 60.2367 22.9394 59.911 24.5084 60.0868C26.2138 60.2782 25.19 62.22 27.5181 61.3521C28.5909 60.6313 29.3254 60.3932 30.5954 60.573C29.3217 61.2169 28.0442 61.8897 26.7245 62.4334C24.6679 62.1501 22.7083 62.3687 20.6715 62.1976C15.0206 61.723 13.9125 60.0951 7.61297 62.1371C6.6165 62.0235 5.71774 61.8877 4.93551 61.1899C3.91383 60.2785 3.90783 59.0108 3.87515 57.7551Z" fill="#F6DEB2"/>
<path d="M27.5189 61.3511L27.1756 60.7454L27.3917 60.3633C29.335 59.9016 30.9128 59.4271 32.8778 60.0233C33.3697 60.1724 33.6269 60.1664 34.1304 60.0635C33.425 59.3083 31.4145 59.6178 30.2781 59.368C32.5481 59.1453 34.9457 59.4314 37.2269 59.5283C40.8277 59.6693 44.4321 59.7874 48.0345 59.8821C51.8935 59.9863 55.9989 59.5912 59.8069 60.0354C58.1597 61.2185 56.2986 61.9669 54.5883 63.036C47.5088 60.6195 43.2463 61.112 36.0165 60.9989C34.1937 60.9702 32.4102 60.6154 30.5963 60.5721C29.3262 60.3923 28.5918 60.6303 27.5189 61.3511Z" fill="#F9E5BB"/>
<path d="M6.13331 1.0604C6.02486 2.19844 5.77482 3.51999 5.92309 4.64867L5.3193 7.43109L5.03207 8.65807L5.16024 10.2584L5.18439 11.75C5.15911 12.4499 5.09459 13.1701 5.12437 13.8689L5.08616 14.6111C4.41311 18.4327 5.1829 22.5579 4.42425 26.3035L4.37095 29.8215C4.18902 34.4715 2.85054 54.0129 3.78722 57.0464L3.87502 57.7553C3.9077 59.0109 3.91371 60.2787 4.93538 61.19C5.71761 61.8879 6.61638 62.0237 7.61284 62.1373C6.57948 62.5924 5.60257 62.807 4.49548 63.014C3.45594 62.2783 2.50904 61.377 1.86021 60.2742C1.16921 59.0993 0.73749 57.6013 0.635422 56.2453C0.15836 49.9117 0.914165 43.0008 1.14389 36.6302C1.45894 27.8963 1.17546 12.9239 3.21309 4.92096C3.18847 3.74636 3.76707 2.86954 4.51411 2.02385L6.13331 1.0604Z" fill="#CDB795"/>
<path d="M6.1317 1.06032C6.02328 2.19836 5.77329 3.51992 5.92151 4.6486L5.31786 7.43102L5.03069 8.658L5.15881 10.2584L5.18294 11.7499C5.15766 12.4498 5.09315 13.17 5.12292 13.8688L5.08471 14.611C4.41181 18.4327 5.18135 22.5578 4.42287 26.3034C3.82321 25.7327 4.15146 23.6329 4.17719 22.7681C4.35539 16.7857 3.4919 10.8971 3.21224 4.92091C3.18764 3.74631 3.76609 2.86948 4.51294 2.02379L6.1317 1.06032Z" fill="#BFAC8C"/>
<path d="M6.1307 1.06029C6.02227 2.19833 5.77229 3.51988 5.92051 4.64857L5.31685 7.43099L5.02969 8.65797C5.10168 6.46065 4.71627 4.21602 4.51193 2.02376L6.1307 1.06029Z" fill="#CDB795"/>
<path d="M5.12252 13.8681C6.13188 13.5167 15.3722 13.5685 16.4281 14.1319C16.6277 14.2383 16.6183 14.244 16.7564 14.3768C16.5247 15.2455 16.2344 16.1274 16.1522 17.0243L15.9537 22.1734L15.6502 22.0978L15.4484 27.118C12.1847 26.9937 7.88493 27.3071 4.77261 26.4473L4.70563 27.7897L4.62285 29.7605L4.3691 29.8207L4.4224 26.3027C5.18106 22.5571 4.41126 18.432 5.08431 14.6103L5.12252 13.8681Z" fill="#FCE9C2"/>
<path d="M5.12289 13.8681C6.13224 13.5167 15.3726 13.5685 16.4284 14.1319C16.6281 14.2382 16.6186 14.244 16.7567 14.3767C16.525 15.2454 16.2348 16.1273 16.1526 17.0243L15.8128 17.661C14.2436 18.7059 7.42124 18.1054 5.07656 18.4815C5.14748 17.1945 5.10224 15.899 5.08468 14.6103L5.12289 13.8681Z" fill="#FCE9C2"/>
<path d="M4.4224 26.3023C5.18106 22.5567 4.41126 18.4315 5.08431 14.6099C5.10187 15.8986 5.14711 17.1941 5.0762 18.4811C7.42088 18.1051 14.2432 18.7055 15.8124 17.6607L16.1522 17.0239L15.9537 22.1729L15.6503 22.0974L15.6737 20.0916C15.6257 20.0577 15.5818 20.0173 15.5297 19.9897C14.3061 19.3438 6.62672 19.4687 5.21789 20.0145C4.94693 20.1197 4.77338 20.8264 4.65904 21.1094L4.86226 22.1525C4.82218 22.8844 4.82402 23.6472 4.67328 24.3649L4.83228 24.9222L4.77261 26.4469L4.70563 27.7893L4.62285 29.76L4.3691 29.8203L4.4224 26.3023Z" fill="#EED2A3"/>
<path d="M4.65845 21.109C7.81388 21.1742 11.3925 20.9165 14.4704 21.5149L14.7561 21.9237C14.6273 22.0436 14.5336 22.2177 14.3702 22.2827C13.8841 22.4764 6.88158 22.2463 5.69323 22.2131C5.41281 22.2053 5.14056 22.1797 4.86166 22.1522L4.65845 21.109Z" fill="#EED2A3"/>
<path d="M4.67352 24.3656C7.25455 24.1077 10.6932 23.9328 13.1998 24.4946L13.5209 24.7998C11.6674 25.8993 7.00472 25.1592 4.83252 24.9229L4.67352 24.3656Z" fill="#F2D8A8"/>
<path d="M60.6255 57.041L60.2546 57.2659C56.3181 56.4204 49.7282 56.6999 45.4994 56.5472L11.2852 55.3574C9.82533 55.3092 5.50549 55.6371 4.48376 55.151C4.29035 55.059 4.16529 54.8654 4.00605 54.7227C3.95431 54.1089 3.90814 53.999 4.22087 53.4416C9.30976 53.2693 14.496 53.6757 19.5857 53.8663C33.2109 54.3762 47.0492 55.3565 60.6674 55.1213L60.6255 57.041Z" fill="#FCE9C2"/>
<path d="M4.70495 27.7897C8.23801 28.3979 11.8586 28.2682 15.4133 28.7673L15.2257 33.8762C11.7051 34.2545 8.04493 34.279 4.5039 34.2348L4.62217 29.7604L4.70495 27.7897Z" fill="#FCE9C2"/>
<path d="M9.84461 37.2573C11.6058 37.2422 13.3571 37.3259 15.1157 37.4103L14.9573 41.5219C13.2642 41.6992 11.5301 41.69 9.82778 41.746C7.95433 41.8244 6.10536 41.6899 4.2367 41.5672L4.31063 37.2264C6.16064 37.3074 7.99381 37.2948 9.84461 37.2573Z" fill="#FCE9C2"/>
<path d="M29.1908 1.10179C33.4755 1.33301 57.8903 1.60526 60.1019 2.41411C59.9877 3.686 60.6189 4.96642 61.4458 5.92008C61.4807 5.96154 61.5184 6.00172 61.5561 6.04245C62.1326 7.28822 62.4385 8.20592 62.3534 9.60401L62.2017 12.0284C62.1132 14.0816 61.9883 16.1397 62.0142 18.1956L61.9144 19.6156C58.8424 19.689 42.6643 19.1665 41.0297 20.1466C40.8484 19.4201 40.5326 18.7063 40.2695 18.0041C39.8209 17.4117 39.3331 16.8245 38.8039 16.3029C35.0235 12.5891 23.7437 13.2752 18.5612 13.3359C17.9087 13.6412 17.3123 13.9085 16.7569 14.377C16.6188 14.2442 16.6282 14.2384 16.4286 14.1321C15.3727 13.5687 6.13242 13.5169 5.12307 13.8683C5.09329 13.1695 5.1578 12.4493 5.18308 11.7494L5.15894 10.2579L5.03077 8.65749L5.318 7.4305L5.92179 4.64809C5.77352 3.5194 6.02356 2.19785 6.13201 1.05981C9.75574 -0.304621 19.4308 0.790116 23.5281 0.956511C25.0219 1.00146 26.5527 1.12208 28.0441 1.07591L29.1908 1.10179Z" fill="#FCE9C2"/>
<path d="M5.15856 10.2575L39.7852 11.5452C47.2423 11.7862 54.7377 12.2125 62.2013 12.028C62.1128 14.0812 61.9879 16.1393 62.0139 18.1952L61.914 19.6152C58.842 19.6886 42.6639 19.1661 41.0294 20.1462C40.8481 19.4197 40.5322 18.7059 40.2691 18.0037C39.8206 17.4113 39.3328 16.8241 38.8036 16.3025C35.0231 12.5887 23.7433 13.2748 18.5608 13.3355C17.9083 13.6408 17.3119 13.9081 16.7565 14.3766C16.6184 14.2438 16.6279 14.2381 16.4283 14.1317C15.3724 13.5683 6.13204 13.5165 5.12269 13.8679C5.09291 13.1691 5.15743 12.4489 5.18271 11.749L5.15856 10.2575Z" fill="#F9E5BB"/>
<path d="M40.2692 18.0041C47.4986 18.4478 54.7639 17.7057 62.014 18.1956L61.9141 19.6157C58.8421 19.6891 42.6641 19.1666 41.0295 20.1467C40.8482 19.4201 40.5324 18.7064 40.2692 18.0041Z" fill="#EED2A3"/>
<path d="M5.1797 11.7492C7.28033 12.6993 13.0543 12.5448 15.5202 12.808C16.5484 12.9175 17.5148 13.2365 18.5578 13.3357C17.9053 13.641 17.3089 13.9082 16.7535 14.3768C16.6154 14.244 16.6249 14.2382 16.4252 14.1319C15.3694 13.5685 6.12904 13.5167 5.11969 13.8681C5.08991 13.1693 5.15442 12.4491 5.1797 11.7492Z" fill="#F2D8A8"/>
<path d="M5.31796 7.43101C11.3544 8.21383 17.5615 7.97208 23.6418 8.16997C36.5317 8.58901 49.4809 8.87634 62.3533 9.60451L62.2016 12.0289C54.738 12.2134 47.2427 11.7871 39.7855 11.5461L5.1589 10.2584L5.03073 8.65799L5.31796 7.43101Z" fill="#EED2A3"/>
<path d="M29.192 1.10194C33.4767 1.33316 57.8915 1.60541 60.1032 2.41425C58.8254 2.77263 57.3048 2.41117 56.0063 2.24454C51.5764 2.09179 53.3574 4.35603 48.6157 4.57485C43.6965 4.36088 38.7752 4.20317 33.852 4.1023C30.6337 3.16616 31.7327 1.92533 29.192 1.10194Z" fill="#CDB795"/>
<path d="M6.13068 1.05976C9.75441 -0.304678 19.4295 0.790059 23.5268 0.956454C23.9208 1.65575 23.844 1.98945 23.6484 2.79306C23.0184 2.17461 22.6614 1.84075 21.7303 1.7494C20.6517 2.00427 20.1078 2.56867 19.3592 3.33992C19.1714 3.53347 19.2596 3.45495 19.0492 3.61135C16.0863 3.4557 9.22393 2.52138 6.77577 3.70927L5.92046 4.64803C5.77219 3.51935 6.02223 2.1978 6.13068 1.05976Z" fill="#D9C39E"/>
<path d="M48.6178 4.57584C53.3594 4.35702 51.5784 2.09278 56.0083 2.24553C57.3068 2.41216 58.8275 2.77362 60.1052 2.41524C59.9909 3.68714 60.6221 4.96756 61.449 5.92122C61.4839 5.96268 61.5216 6.00285 61.5593 6.04358L60.6063 5.33948C56.6623 4.71021 52.603 4.90291 48.6178 4.57584Z" fill="#F2D8A8"/>
<path d="M56.0044 2.24536C57.3028 2.41199 58.8235 2.77345 60.1013 2.41507C59.987 3.68697 60.6182 4.96739 61.4451 5.92105C61.48 5.96251 61.5177 6.00268 61.5554 6.04341L60.6024 5.33931C59.0733 4.25871 57.7462 2.99117 56.0044 2.24536Z" fill="#D9C39E"/>
<path d="M28.0442 1.07597L29.1909 1.10185C31.7317 1.92524 30.6326 3.16607 33.8509 4.10221C31.5317 4.13224 29.0834 4.30876 26.7958 3.90553C27.3037 2.97267 27.7071 2.08251 28.0442 1.07597Z" fill="#F6DEB2"/>
<path d="M23.5295 0.956712C25.0233 1.00166 26.5541 1.12228 28.0454 1.07611C27.7084 2.08266 27.305 2.97281 26.7971 3.90567L25.2928 3.80984C24.4853 3.53824 24.111 3.54099 23.6511 2.79332C23.8467 1.98971 23.9235 1.65601 23.5295 0.956712Z" fill="#D9C39E"/>
<path d="M19.0513 3.61164C19.2618 3.45524 19.1736 3.53377 19.3613 3.34021C20.11 2.56897 20.6539 2.00456 21.7325 1.74969C22.6635 1.84105 23.0206 2.17491 23.6506 2.79335C24.1104 3.54102 24.4848 3.53828 25.2922 3.80988C23.2799 3.96275 20.984 4.27642 19.0513 3.61164Z" fill="#F6DEB2"/>
<path d="M41.0333 20.1469C42.6679 19.1668 58.8459 19.6893 61.9179 19.6159C61.8622 21.9295 61.7731 24.2422 61.6505 26.5535L61.7256 28.6419C61.6099 29.7161 61.342 30.9885 61.5144 32.0494L61.4638 34.5406L61.4384 35.5061L61.2842 37.7633L61.2546 39.3315C59.3559 39.4778 50.524 39.5727 49.6536 40.426L49.7471 40.7073L49.12 41.0696C48.1588 42.0396 47.2359 43.0354 45.8813 43.4355C44.3517 43.0094 42.6911 43.2952 41.2487 42.7694L40.6271 40.9764L39.1856 37.7857L38.7517 37.1757C37.8251 35.4764 36.6909 34.0455 35.4723 32.5489C34.864 32.053 34.2645 31.5472 33.6736 31.0311L33.7548 30.6271L34.9671 30.302C37.073 29.501 38.4688 28.6402 40.0147 26.9997C40.8982 25.5354 41.1049 23.8544 41.3387 22.197L41.0333 20.1469Z" fill="#F6DEB2"/>
<path d="M41.0281 20.1468C42.6627 19.1667 58.8407 19.6892 61.9128 19.6158C61.8571 21.9294 61.768 24.2422 61.6454 26.5534L61.7205 28.6418C55.9357 28.4986 45.3888 28.1198 40.0096 26.9997C40.893 25.5354 41.0997 23.8543 41.3336 22.1969L41.0281 20.1468Z" fill="#F9E5BB"/>
<path d="M41.3336 22.1965C41.7094 23.0322 41.4952 24.1272 41.4387 25.025C48.1485 25.7922 54.9448 25.6831 61.6454 26.553L61.7205 28.6414C55.9357 28.4982 45.3888 28.1193 40.0096 26.9992C40.893 25.5349 41.0998 23.8538 41.3336 22.1965Z" fill="#EED2A3"/>
<path d="M58.9569 35.9052C59.7664 35.7575 60.6116 35.5483 61.4342 35.5057L61.28 37.7629L61.2504 39.3311C59.3517 39.4774 50.5198 39.5722 49.6494 40.4255L49.7429 40.7069L49.1158 41.0691C48.1546 42.0392 47.2317 43.035 45.8771 43.4351C44.3475 43.0089 42.6869 43.2948 41.2445 42.769L40.6229 40.976L39.1814 37.7852L38.7475 37.1753C38.7998 37.1163 38.8466 37.0552 38.8989 36.9988C39.2324 36.6452 39.6991 36.4763 40.1708 36.4073C42.3576 36.0893 44.7461 36.2341 46.9652 36.1903C50.9631 36.0754 54.9576 35.98 58.9569 35.9052Z" fill="#F2D8A8"/>
<path d="M58.9569 35.9052C59.7664 35.7575 60.6116 35.5483 61.4342 35.5057L61.28 37.7629C56.1937 37.5333 42.8078 38.9532 39.1814 37.7852L38.7475 37.1753C38.7998 37.1163 38.8466 37.0552 38.8989 36.9988C39.2324 36.6452 39.6991 36.4763 40.1708 36.4073C42.3576 36.0893 44.7461 36.2341 46.9652 36.1903C50.9631 36.0754 54.9576 35.98 58.9569 35.9052Z" fill="#FCE9C2"/>
<path d="M40.6237 40.9767C42.0903 39.848 45.5063 39.841 47.299 40.091C48.1384 40.208 48.6119 40.405 49.1166 41.0698C48.1554 42.0399 47.2325 43.0357 45.8779 43.4358C44.3483 43.0096 42.6877 43.2955 41.2454 42.7697L40.6237 40.9767Z" fill="#FCE9C2"/>
<path d="M35.4695 32.5479C40.0041 33.2991 44.56 32.4821 49.1124 32.7251C52.2709 32.894 55.1706 33.9156 58.2666 34.3559L59.6422 34.9541C59.5512 35.3991 59.2655 35.5826 58.9582 35.9047C54.9589 35.9795 50.9644 36.0749 46.9665 36.1898C44.7474 36.2335 42.3589 36.0888 40.1721 36.4068C39.7004 36.4758 39.2337 36.6447 38.9002 36.9983C38.8479 37.0547 38.8011 37.1158 38.7488 37.1748C37.8222 35.4755 36.688 34.0445 35.4695 32.5479Z" fill="#EED2A3"/>
<path d="M34.9671 30.3022C37.2169 30.0977 39.7952 30.566 42.0728 30.6883C48.4706 31.0321 55.1672 31.218 61.5144 32.0497L61.4637 34.5408L61.4384 35.5064C60.6158 35.549 59.7706 35.7581 58.9611 35.9058C59.2684 35.5838 59.5541 35.4003 59.645 34.9553L58.2694 34.3571C55.1735 33.9168 52.2738 32.8952 49.1153 32.7263C44.5629 32.4832 40.007 33.3003 35.4723 32.5491C34.864 32.0532 34.2644 31.5474 33.6736 31.0314L33.7547 30.6273L34.9671 30.3022Z" fill="#FCE9C2"/>
<path d="M61.4574 34.5405L61.432 35.506C60.6096 35.5486 59.7647 35.7578 58.9554 35.9055C59.2626 35.5835 59.5482 35.4 59.6391 34.9549L58.2639 34.3568L61.4574 34.5405Z" fill="#F6DEB2"/>
<path d="M21.8032 35.8411L22.0603 36.7665C24.9663 36.9915 28.2011 36.807 31.1139 36.6228L33.7143 41.3353C34.336 42.3265 34.9221 43.3808 35.6068 44.3278C32.1099 44.251 23.6288 45.0528 20.8096 43.9252C21.9387 41.6141 21.7205 38.3705 21.8032 35.8411Z" fill="#F9E5BB"/>
<path d="M21.8032 35.8411L22.0603 36.7665L21.8753 41.7429C24.0033 41.7433 32.0757 42.5909 33.4546 41.7345L33.7143 41.3353C34.336 42.3265 34.9221 43.3808 35.6068 44.3278C32.1099 44.251 23.6288 45.0528 20.8096 43.9252C21.9387 41.6141 21.7205 38.3705 21.8032 35.8411Z" fill="#EED2A3"/>
<path d="M21.9121 31.0455C24.3907 31.0424 26.6943 31.0418 28.5838 32.9105C29.638 33.9542 30.3855 35.345 31.1172 36.6234C28.2045 36.8076 24.9697 36.9921 22.0636 36.7672L21.8066 35.8417L21.9121 31.0455Z" fill="#F6DEB2"/>
<path d="M22.429 18.1998C25.5617 18.2615 31.6675 17.6246 33.9355 20.1029C34.6833 20.9208 34.8655 22.0235 34.778 23.0893C34.7297 23.6704 34.5781 24.2527 34.4439 24.8186C34.418 24.8386 34.395 24.8583 34.3719 24.8786C33.9373 25.2495 33.4876 25.649 32.973 25.908C30.5933 27.1121 25.0246 27.1558 22.5027 26.3439C21.9986 25.6957 22.1642 25.074 22.1642 24.2735L22.429 18.1998Z" fill="#F9E5BB"/>
<path d="M22.1642 24.2731C23.7637 25.3448 31.7635 23.8328 34.4439 24.8182C34.418 24.8381 34.395 24.8578 34.3719 24.8781C33.9373 25.249 33.4876 25.6485 32.973 25.9075C30.5933 27.1117 25.0246 27.1554 22.5027 26.3435C21.9986 25.6953 22.1641 25.0735 22.1642 24.2731Z" fill="#EED2A3"/>
</svg>
