<svg width="68" height="68" viewBox="0 0 68 68" fill="none" xmlns="http://www.w3.org/2000/svg">
<path d="M30.1007 1.61344C36.5365 1.86327 42.9736 2.24477 49.4049 2.58043C52.8799 2.76171 57.4748 2.47725 60.782 3.49844C62.6887 3.82685 64.1416 5.14592 65.2812 6.66734C66.4776 8.9938 65.7345 12.828 65.7628 15.4397C65.7741 16.6413 66.0123 17.8737 66.0949 19.0798C66.1482 26.5194 65.4912 34.0663 65.1073 41.4959C64.8508 46.4425 64.9525 51.6975 64.2611 56.5927C64.0027 58.4254 63.5298 60.9883 62.4993 62.5329C60.6764 64.4909 59.5616 65.543 56.8625 65.8388C55.6113 65.6602 54.1206 66.0582 52.8343 66.1291C51.0125 66.2291 49.1862 66.2039 47.363 66.1724C42.2152 66.0837 37.0749 65.5355 31.9314 65.3115C25.0304 65.0109 11.5293 65.0749 5.43792 63.4011C5.12014 63.2676 4.81666 63.1234 4.51738 62.952C2.40929 61.7393 1.51126 59.443 0.871272 57.212C0.970161 54.7999 0.782282 52.345 0.865587 49.9152C1.15309 41.8033 1.68046 33.6838 2.1108 25.5775C2.4403 19.3427 2.29735 12.5645 3.79874 6.49934C4.30493 4.4559 4.78458 3.18174 6.33084 1.72224C6.91726 1.29905 7.48322 1.0039 8.14757 0.721673C11.4533 0.0376121 23.6158 1.25164 27.612 1.46663C28.4271 1.5124 29.2915 1.50801 30.1007 1.61344Z" fill="#EED2A3"/>
<path d="M60.7844 3.49882C62.6911 3.82723 64.1441 5.1463 65.2837 6.66772C66.4801 8.99418 65.737 12.8284 65.7652 15.4401C65.7766 16.6417 66.0147 17.874 66.0974 19.0802C66.1506 26.5197 65.4937 34.0667 65.1098 41.4963C64.8533 46.4429 64.955 51.6979 64.2636 56.5931C64.0051 58.4257 63.5323 60.9887 62.5018 62.5333C60.6789 64.4913 59.5641 65.5434 56.865 65.8392C55.6138 65.6606 54.1231 66.0586 52.8368 66.1295C51.015 66.2294 49.1887 66.2042 47.3655 66.1728C42.2177 66.084 37.0774 65.5359 31.9339 65.3119C25.0329 65.0113 11.5318 65.0753 5.44041 63.4015C5.83641 63.0405 6.18782 62.7952 6.6631 62.5494C9.22871 62.6997 11.8263 62.2911 14.4009 62.27C17.9833 62.2407 21.6357 62.6089 25.2244 62.7226L26.1103 62.8354C27.3449 62.4906 28.2727 61.5417 29.41 61.2143C30.6257 60.8641 46.4701 61.567 48.1789 61.7865C50.1528 62.0401 52.0111 63.0309 54.0396 63.1883C55.5747 63.3074 57.9261 61.9262 59.0377 60.9347C59.4501 60.3647 59.6244 59.7711 59.8379 59.1096C60.5236 47.9692 61.1352 36.8244 61.6755 25.6761C61.9058 20.8078 61.7422 15.6329 62.2942 10.8234C62.3586 10.5408 62.4119 10.2577 62.4299 9.96793C62.5426 8.34224 61.8932 7.39288 60.8474 6.23618C60.0135 5.60474 59.8627 5.33032 59.3741 4.41215C58.9456 3.60818 58.3245 3.64226 57.5103 3.42385C58.5869 3.46806 59.7122 3.58116 60.7844 3.49882Z" fill="#D9C39E"/>
<path d="M26.1103 62.8349C28.0004 63.1113 29.7005 62.8137 31.5733 62.843C33.3444 62.8706 35.1255 63.3384 36.9261 63.3814C40.2798 63.462 43.6595 63.2029 47.0072 63.45C50.6429 63.718 53.9952 65.4523 57.6946 64.6614L56.865 65.8386C55.6138 65.6601 54.1231 66.0581 52.8368 66.1289C51.015 66.2289 49.1887 66.2037 47.3655 66.1723C42.2177 66.0835 37.0774 65.5354 31.9339 65.3114C25.0329 65.0108 11.5318 65.0747 5.44041 63.401C5.83641 63.04 6.18782 62.7947 6.6631 62.5489C9.22871 62.6992 11.8263 62.2906 14.4009 62.2695C17.9833 62.2402 21.6357 62.6084 25.2244 62.7221L26.1103 62.8349Z" fill="#AEA08F"/>
<path d="M64.478 18.8245C64.4814 19.4954 64.5288 20.1647 64.5653 20.8343C64.6583 19.7959 64.6847 17.7689 65.3845 17.0191C65.5925 17.7249 65.8131 18.4008 66.0967 19.0806C66.15 26.5201 65.493 34.067 65.1091 41.4967C64.8526 46.4433 64.9543 51.6983 64.2629 56.5935C64.0045 58.4261 63.5316 60.9891 62.5011 62.5336L62.0543 61.0793C63.1298 47.0177 63.1441 32.8795 64.478 18.8245Z" fill="#A39B89"/>
<path d="M65.2825 6.6682C66.479 8.99465 65.7358 12.8289 65.7641 15.4406C65.7754 16.6422 66.0136 17.8745 66.0962 19.0807C65.8126 18.4009 65.5921 17.725 65.3841 17.0192C64.6842 17.769 64.6578 19.796 64.5648 20.8344C64.5284 20.1648 64.4809 19.4955 64.4775 18.8246C64.5235 14.744 65.1929 10.7415 65.2825 6.6682Z" fill="#ADA585"/>
<path d="M57.6934 64.6614C58.4686 63.4724 60.8858 62.0433 62.0538 61.0784L62.5006 62.5327C60.6777 64.4907 59.5629 65.5428 56.8638 65.8386L57.6934 64.6614Z" fill="#ADA585"/>
<path d="M30.1054 1.6137C36.5412 1.86353 42.9783 2.24503 49.4096 2.58069C52.8846 2.76197 57.4795 2.47751 60.7866 3.4987C59.7144 3.58104 58.5891 3.46794 57.5125 3.42373C58.3267 3.64214 58.9478 3.60806 59.3763 4.41203C59.8649 5.3302 60.0157 5.60462 60.8496 6.23606C61.8955 7.39276 62.5448 8.34212 62.4321 9.96781C62.4141 10.2575 62.3608 10.5407 62.2964 10.8233L25.9168 8.90393C21.3895 8.68693 10.3107 8.79954 6.43811 7.64295L6.59049 6.10096L7.53514 3.72652C8.29289 2.29232 9.00887 1.70769 10.4231 0.982245L8.15226 0.721933C11.458 0.037872 23.6205 1.2519 27.6167 1.46689C28.4317 1.51266 29.2962 1.50827 30.1054 1.6137Z" fill="#FCE9C2"/>
<path d="M30.1024 1.61407C36.5382 1.8639 42.9753 2.2454 49.4066 2.58106C52.8816 2.76234 57.4765 2.47789 60.7837 3.49907C59.7114 3.58141 58.5861 3.46831 57.5095 3.4241C53.5486 3.00719 53.3138 5.17756 50.1656 5.2194C49.6561 5.22601 49.1321 5.2974 48.6238 5.33267C43.7251 5.06039 38.8158 4.72648 33.9102 4.63818C33.5976 4.56156 33.2461 4.49371 32.9531 4.35981C32.058 3.95171 32.4757 3.0183 32.065 2.29383C31.7779 1.78655 30.6522 1.73283 30.1024 1.61407Z" fill="#CDB795"/>
<path d="M8.15029 0.721858C11.456 0.037797 23.6185 1.25183 27.6147 1.46681C27.7138 2.2549 28.0175 3.182 27.6502 3.88873C26.8935 4.14669 26.2067 4.01575 25.4359 3.91455C24.8872 3.51267 24.9479 3.50919 24.8474 2.85483C24.7918 2.49656 24.7391 2.13788 24.6891 1.77879C23.926 1.47644 22.6514 1.42879 21.8671 1.68919C20.8643 2.02114 20.1917 3.35292 19.2219 3.84513L17.3102 3.71663C17.0548 3.65355 16.8028 3.57676 16.5502 3.51272C13.9913 2.86667 13.5042 0.921925 10.4211 0.98217L8.15029 0.721858Z" fill="#D9C39E"/>
<path d="M27.6175 1.46772C28.4325 1.51349 29.297 1.50911 30.1062 1.61453C30.6559 1.7333 31.7816 1.78702 32.0688 2.2943C32.4795 3.01876 32.0617 3.95217 32.9569 4.36028C33.2499 4.49418 33.6014 4.56202 33.9139 4.63864C29.2114 4.50824 23.7842 4.86568 19.2246 3.84604C20.1945 3.35383 20.8671 2.02205 21.8698 1.6901C22.6541 1.4297 23.9287 1.47735 24.6918 1.7797C24.7418 2.13879 24.7946 2.49747 24.8501 2.85574C24.9507 3.5101 24.8899 3.51358 25.4386 3.91546C26.2095 4.01666 26.8963 4.1476 27.6529 3.88964C28.0202 3.18291 27.7165 2.25581 27.6175 1.46772Z" fill="#F2D8A8"/>
<path d="M48.6207 5.33227C49.129 5.297 49.653 5.22562 50.1625 5.21901C53.3107 5.17716 53.5455 3.0068 57.5064 3.42371C58.3207 3.64212 58.9417 3.60804 59.3702 4.41201C59.8588 5.33018 60.0096 5.6046 60.8435 6.23603C56.8012 5.69242 52.6908 5.6086 48.6207 5.33227Z" fill="#F2D8A8"/>
<path d="M10.4192 0.982669C13.5023 0.922424 13.9894 2.86717 16.5483 3.51322C16.8009 3.57726 17.0529 3.65404 17.3083 3.71713C14.2244 3.63546 10.5311 2.99659 7.53126 3.72694C8.28902 2.29274 9.00499 1.70811 10.4192 0.982669Z" fill="#EED2A3"/>
<path d="M59.7289 57.6263L59.8355 59.1095C59.6219 59.771 59.4477 60.3645 59.0353 60.9345C57.9236 61.926 55.5723 63.3072 54.0372 63.1882C52.0087 63.0308 50.1504 62.04 48.1765 61.7863C46.4677 61.5669 30.6233 60.8639 29.4076 61.2141C28.2702 61.5415 27.3425 62.4904 26.1079 62.8352L25.222 62.7224C21.6333 62.6088 17.9809 62.2405 14.3985 62.2699C11.8239 62.291 9.2263 62.6995 6.66069 62.5492C6.1854 62.795 5.83399 63.0403 5.438 63.4013C5.12021 63.2678 4.81673 63.1236 4.51745 62.9522C2.40936 61.7396 1.51134 59.4432 0.871347 57.2122C1.84032 57.5248 2.56355 58.3254 3.31026 58.9928L3.77954 58.861C3.86927 58.3568 3.88939 57.8682 3.90794 57.3567L3.89948 57.045L4.0978 56.1495L4.03668 54.9528C9.52121 55.4443 58.4104 58.1522 59.7289 57.6263Z" fill="#FCE9C2"/>
<path d="M4.11179 57.4052C10.8412 59.5624 18.1107 58.6088 25.0949 58.9501C28.8176 59.1322 32.4854 59.6787 36.1938 59.9766C39.7788 60.265 43.3867 60.3274 46.9712 60.6247C49.8323 60.8618 53.8115 63.135 56.5613 61.7144C57.0054 61.4859 57.4214 61.1626 57.7989 60.8395L59.0353 60.9338C57.9237 61.9252 55.5723 63.3064 54.0372 63.1874C52.0087 63.03 50.1504 62.0392 48.1765 61.7856C46.4677 61.5661 30.6233 60.8631 29.4076 61.2134C28.2703 61.5408 27.3425 62.4897 26.1079 62.8345L25.222 62.7217C21.6333 62.608 17.9809 62.2397 14.3985 62.2691C11.8239 62.2902 9.22631 62.6988 6.66069 62.5485C6.18541 62.7943 5.834 63.0396 5.43801 63.4006C5.12022 63.267 4.81674 63.1229 4.51746 62.9514C2.40937 61.7388 1.51134 59.4424 0.871353 57.2115C1.84033 57.524 2.56356 58.3246 3.31026 58.992L3.77955 58.8603C3.86928 58.3561 3.8894 57.8674 3.90795 57.3559L4.11179 57.4052Z" fill="#F6DEB2"/>
<path d="M3.90795 57.3559L4.11179 57.4052C4.73838 59.0516 5.31014 60.5885 6.54965 61.8836C9.5385 61.1532 14.3701 59.3453 17.1741 61.0917C17.8271 61.4988 18.8023 62.3761 19.6247 62.1762C21.1608 61.8023 22.2898 59.8509 24.0277 60.7218C24.8725 61.1456 24.9594 61.902 25.222 62.7217C21.6333 62.608 17.9809 62.2397 14.3985 62.2691C11.8239 62.2902 9.22631 62.6988 6.66069 62.5485C6.18541 62.7943 5.834 63.0396 5.43801 63.4006C5.12022 63.267 4.81674 63.1229 4.51746 62.9514C2.40937 61.7388 1.51134 59.4424 0.871353 57.2115C1.84033 57.524 2.56356 58.3246 3.31026 58.992L3.77955 58.8603C3.86928 58.3561 3.8894 57.8674 3.90795 57.3559Z" fill="#CDB795"/>
<path d="M59.7291 57.6264L59.8358 59.1095C55.9325 58.2242 46.7642 58.2787 42.3481 58.0398L18.7193 56.8742C13.8553 56.6218 8.9673 56.1971 4.09805 56.1496L4.03692 54.9528C9.52146 55.4443 58.4107 58.1523 59.7291 57.6264Z" fill="#F2D8A8"/>
<path d="M6.33081 1.72316C6.91723 1.29997 7.48318 1.00482 8.14754 0.722593L10.4184 0.982905C9.00415 1.70835 8.28817 2.29298 7.53041 3.72718L6.58577 6.10162L6.43339 7.64361C5.9761 9.17407 3.56201 55.395 3.89937 57.0457L3.90783 57.3574C3.88928 57.8689 3.86916 58.3576 3.77943 58.8617L3.31015 58.9935C2.56344 58.3261 1.84021 57.5255 0.871238 57.2129C0.970126 54.8008 0.782248 52.3459 0.865552 49.9161C1.15306 41.8043 1.68042 33.6847 2.11076 25.5784C2.44027 19.3436 2.29732 12.5654 3.79871 6.50026C4.3049 4.45682 4.78454 3.18266 6.33081 1.72316Z" fill="#BFAC8C"/>
<path d="M6.33371 1.72327C6.92013 1.30008 7.48609 1.00493 8.15044 0.722703L10.4213 0.983015C9.00705 1.70846 8.29108 2.29309 7.53332 3.72729L6.58867 6.10173C6.93168 4.44091 6.77994 3.34494 6.33371 1.72327Z" fill="#D9C39E"/>
<path d="M4.03686 54.9532C4.10117 54.5138 4.19576 54.0745 4.27919 53.638C4.4502 53.5259 4.58495 53.4231 4.79522 53.4022C7.12483 53.1714 12.5146 53.8428 15.1498 53.9784C20.1841 54.2375 58.8146 55.9581 59.7246 56.556L59.729 57.6268C58.4106 58.1526 9.52139 55.4447 4.03686 54.9532Z" fill="#FCE9C2"/>
<path d="M35.6824 29.0118C36.1095 28.3721 36.24 27.9833 37.0527 27.8637C39.0997 27.5632 57.7141 29.5074 60.8875 29.9296C61.2913 30.5755 61.2012 30.9289 61.188 31.6547L61.0431 32.9473C60.9636 34.8334 60.9722 36.8231 60.7257 38.6897L60.6567 40.4787C60.6069 41.4283 60.5921 42.3934 60.5013 43.3389C60.4587 44.6762 60.4827 46.0581 60.3059 47.3834L60.2227 48.6023C60.2635 50.5539 60.0723 52.575 60.0028 54.5319L24.3474 52.7102C17.666 52.3686 10.9361 52.2175 4.27622 51.6214C4.43903 49.1977 4.6119 46.7917 4.54109 44.3615C8.2158 44.6715 17.3069 45.1971 20.6067 44.2593C25.3847 46.2054 29.7414 46.3152 34.6212 44.6384C35.4313 44.1489 36.2098 43.5792 36.9946 43.0473C37.6103 42.3294 38.1739 41.553 38.7526 40.8052C39.1595 39.8159 39.4971 38.7834 39.8663 37.778L39.8955 37.3259C39.9561 35.8544 39.7315 34.573 39.421 33.145L38.9188 32.0668C38.2565 31.1545 37.53 30.4171 36.7085 29.6539L35.6824 29.0118Z" fill="#F9E5BB"/>
<path d="M35.6801 29.0117C36.1072 28.372 36.2377 27.9832 37.0504 27.8637C39.0974 27.5631 57.7118 29.5073 60.8852 29.9296C61.289 30.5754 61.1989 30.9288 61.1856 31.6546L61.0408 32.9472C60.9612 34.8333 60.9698 36.823 60.7234 38.6896L60.6544 40.4786C57.9932 40.9974 55.1419 40.7833 52.4381 40.8017C47.8695 40.4271 43.2759 41.1597 38.7502 40.8051C39.1571 39.8159 39.4947 38.7833 39.864 37.778L39.8932 37.3258C39.9538 35.8543 39.7292 34.5729 39.4187 33.1449L38.9165 32.0667C38.2542 31.1544 37.5276 30.417 36.7061 29.6538L35.6801 29.0117Z" fill="#FCE9C2"/>
<path d="M35.6801 29.0117C36.1072 28.372 36.2377 27.9832 37.0504 27.8637C39.0974 27.5631 57.7118 29.5073 60.8852 29.9296C61.289 30.5754 61.1989 30.9288 61.1856 31.6546L61.0408 32.9472C57.193 32.8419 41.3487 30.3502 39.176 31.5778L38.9165 32.0667C38.2542 31.1544 37.5276 30.417 36.7061 29.6538L35.6801 29.0117Z" fill="#FCE9C2"/>
<path d="M36.7066 29.6528C40.1732 29.2584 58.0298 30.6942 61.1861 31.6536L61.0413 32.9462C57.1934 32.8408 41.3491 30.3492 39.1765 31.5768L38.9169 32.0657C38.2546 31.1534 37.5281 30.416 36.7066 29.6528Z" fill="#F2D8A8"/>
<path d="M39.422 33.1453L39.577 33.1828C43.1006 34.0127 46.8494 33.3296 50.4467 33.592C52.3524 33.731 54.2134 34.6156 56.1092 34.9432C57.1348 35.1202 59.5979 35.2307 60.1733 36.1206C56.8591 38.1221 43.4791 35.9806 39.8965 37.3262C39.9572 35.8546 39.7325 34.5733 39.422 33.1453Z" fill="#EED2A3"/>
<path d="M39.8644 37.7784L40.0689 38.5504C43.5954 39.746 55.8727 38.4025 60.7238 38.69L60.6548 40.479C57.9936 40.9978 55.1423 40.7837 52.4385 40.8022C47.8699 40.4276 43.2763 41.1602 38.7507 40.8056C39.1576 39.8163 39.4952 38.7838 39.8644 37.7784Z" fill="#F2D8A8"/>
<path d="M52.4407 40.8023C55.1445 40.7838 57.9958 40.9979 60.657 40.4791C60.6072 41.4288 60.5924 42.3938 60.5016 43.3394C60.459 44.6767 60.483 46.0586 60.3062 47.3839L60.223 48.6027C56.7168 48.7016 52.9364 48.9377 49.4699 48.3298L49.5731 47.0973C49.657 45.444 49.7612 43.8745 49.4286 42.2383C49.456 42.0306 49.5008 41.912 49.6279 41.7437C50.2167 40.9606 51.5143 40.9381 52.4407 40.8023Z" fill="#F9E5BB"/>
<path d="M52.4407 40.8023C55.1445 40.7838 57.9958 40.9979 60.657 40.4791C60.6072 41.4288 60.5924 42.3938 60.5016 43.3394C58.8341 43.2786 57.2024 43.2703 55.5337 43.3369C53.3271 43.4251 51.1502 43.8407 49.4286 42.2383C49.456 42.0306 49.5008 41.912 49.6279 41.7437C50.2167 40.9606 51.5143 40.9381 52.4407 40.8023Z" fill="#FCE9C2"/>
<path d="M60.3094 47.3833L60.2262 48.6022C56.72 48.701 52.9396 48.9371 49.4731 48.3293L49.5763 47.0967C52.9182 47.8743 56.9588 46.1919 60.3094 47.3833Z" fill="#F2D8A8"/>
<path d="M38.7521 40.806C43.2777 41.1606 47.8713 40.428 52.4399 40.8026C51.5135 40.9384 50.216 40.9609 49.6272 41.7441C49.5 41.9123 49.4553 42.031 49.4279 42.2386C48.086 42.2663 47.0228 44.1192 45.6273 44.5403C45.146 45.0059 45.1315 45.1256 44.9694 45.7504C44.9065 45.5852 44.8786 45.4866 44.7767 45.33C44.4049 44.7572 43.8314 44.8804 43.2305 44.8447C42.071 44.7018 41.0586 44.4821 39.959 44.0889C38.837 43.9648 37.7584 43.9599 36.9942 43.0481C37.6098 42.3303 38.1735 41.5538 38.7521 40.806Z" fill="#FCE9C2"/>
<path d="M39.9594 44.0881C41.8553 44.1506 43.7687 44.1409 45.6277 44.5396C45.1464 45.0052 45.1319 45.1249 44.9698 45.7497C44.9069 45.5845 44.879 45.4859 44.7771 45.3292C44.4053 44.7564 43.8318 44.8796 43.2309 44.844C42.0714 44.701 41.059 44.4814 39.9594 44.0881Z" fill="#D9C39E"/>
<path d="M45.6271 44.5397C47.0226 44.1187 48.0858 42.2657 49.4277 42.2381C49.7603 43.8743 49.656 45.4438 49.5721 47.0971L49.469 48.3296C49.4422 49.6284 49.5478 51.0792 48.6485 52.1167L48.1048 52.1446C46.7569 50.6584 47.8487 47.9968 47.7191 46.0589C47.2606 45.4066 45.9074 46.0708 44.9692 45.7498C45.1313 45.1251 45.1458 45.0053 45.6271 44.5397Z" fill="black"/>
<path d="M36.9959 43.0471C37.7601 43.9588 38.8388 43.9637 39.9608 44.0878C41.0604 44.4811 42.0728 44.7007 43.2323 44.8436C40.8476 44.9707 36.8657 45.3742 34.6226 44.6381C35.4326 44.1486 36.2112 43.5789 36.9959 43.0471Z" fill="#EED2A3"/>
<path d="M26.4414 13.8932C30.8115 14.1175 34.6992 14.4604 37.8019 17.9634C37.9552 18.1374 38.1055 18.3155 38.2501 18.4974C38.8471 19.6056 39.0672 20.5524 39.3058 21.7765C39.1543 22.8302 38.8838 23.4223 38.2716 24.2845C37.2093 24.7019 36.3566 25.0589 35.2356 24.5482C35.0932 24.4827 34.954 24.4082 34.812 24.3339C32.598 25.9297 29.31 24.334 26.8372 25.1955L26.6187 25.269C26.4589 25.3237 26.3015 25.3857 26.1441 25.4479C29.3788 26.4864 32.647 27.4642 35.6843 29.0123L36.7103 29.6544C37.5318 30.4176 38.2584 31.155 38.9207 32.0673L39.4229 33.1455C39.7334 34.5735 39.958 35.8549 39.8974 37.3264L39.8682 37.7785C39.4989 38.7839 39.1613 39.8165 38.7544 40.8057C38.1758 41.5535 37.6121 42.33 36.9965 43.0478C36.2117 43.5797 35.4332 44.1494 34.6231 44.6389C29.7433 46.3157 25.3865 46.2059 20.6085 44.2598C19.2616 43.3855 18.16 42.348 17.1033 41.1371C16.4561 39.9877 15.9996 38.8783 15.5891 37.6239C15.3513 36.3843 15.61 35.5441 16.0952 34.428C13.7174 33.8447 7.69977 34.282 5.12263 34.5617C5.2158 32.5738 5.3751 30.5846 5.50395 28.5986C5.6159 27.0928 5.71415 25.586 5.79592 24.0784L5.77669 22.7117C5.90289 21.7741 5.91857 20.7927 5.9819 19.8468C9.37833 19.8999 13.7848 19.4812 16.9785 20.6189C17.2714 19.7053 17.7042 18.8523 18.1128 17.9876C18.6394 17.3403 19.2752 16.7636 19.8648 16.174L21.3367 15.2406C23.0325 14.6038 24.668 14.2245 26.4414 13.8932Z" fill="black"/>
<path d="M5.98189 19.8472C9.37832 19.9002 13.7848 19.4815 16.9785 20.6192C16.7356 23.0487 16.8445 25.3832 18.4817 27.3352C19.036 27.9975 19.7117 28.6539 20.4268 29.1359C23.7433 30.8189 32.4424 32.5224 33.5413 35.9245C33.7665 36.6154 33.6505 37.4644 33.5746 38.1767C33.0576 37.4858 32.7112 37.3722 31.8538 37.242C29.5191 36.8873 23.8018 36.8989 21.9598 38.3279C21.6295 37.3827 21.3189 36.3781 20.876 35.4801C20.4978 34.7135 19.749 33.8761 18.9045 33.6572C17.8509 33.3846 16.9342 33.8593 16.0952 34.4283C13.7174 33.8451 7.69976 34.2824 5.12262 34.5621C5.2158 32.5742 5.37509 30.585 5.50395 28.599C5.61589 27.0932 5.71415 25.5864 5.79591 24.0787L5.77668 22.7121C5.90289 21.7745 5.91856 20.793 5.98189 19.8472Z" fill="#F8E2B9"/>
<path d="M5.97877 19.8468C9.3752 19.8999 13.7817 19.4812 16.9754 20.6189C16.7325 23.0484 16.8413 25.3828 18.4785 27.3348C19.0328 27.9971 19.7086 28.6536 20.4237 29.1355C15.7024 29.8884 10.5779 27.9369 5.86054 28.5625C5.74135 28.5785 5.6198 28.5868 5.50083 28.5986C5.61277 27.0928 5.71103 25.586 5.79279 24.0784L5.77356 22.7117C5.89977 21.7741 5.91544 20.7927 5.97877 19.8468Z" fill="#F9E5BB"/>
<path d="M10.8471 22.5894C12.4144 22.6202 14.0293 22.7384 15.5912 22.662L15.6975 23.6801C13.8071 25.2981 8.27581 24.2811 5.79278 24.0783L5.77355 22.7116C7.46712 22.7479 9.16609 22.8389 10.8471 22.5894Z" fill="#FCE9C2"/>
<path d="M10.8482 22.5889C9.48684 22.5159 7.83063 22.6071 6.54006 22.1813L6.4456 21.8301C8.14282 20.8516 12.5995 20.9469 14.5588 21.4788C14.8275 21.5518 15.0852 21.6749 15.3287 21.8095C15.4773 22.1238 15.6274 22.3063 15.5923 22.6615C14.0304 22.7379 12.4155 22.6197 10.8482 22.5889Z" fill="#F2D8A8"/>
<path d="M26.1404 25.4468C24.9967 25.0007 23.8108 24.4682 23.1102 23.3946C22.7256 22.8031 22.571 22.0771 22.7558 21.3866C22.9957 20.4852 23.688 19.7741 24.4616 19.2983C25.935 18.3891 27.87 18.1768 29.5293 18.6055C32.5111 19.3756 33.3872 21.8799 34.8082 24.3328C32.5943 25.9286 29.3062 24.3329 26.8334 25.1944L26.6149 25.2679C26.4552 25.3225 26.2978 25.3845 26.1404 25.4468Z" fill="#F6DEB2"/>
<path d="M21.9589 38.327C23.8008 36.898 29.5182 36.8864 31.8529 37.2411C32.7103 37.3713 33.0567 37.4849 33.5737 38.1758C33.1099 38.7804 32.6652 39.4395 32.1225 39.9735C32.0767 39.9553 32.0308 39.9379 31.985 39.9188C29.4447 38.8664 25.5658 39.1437 22.849 39.4614L21.9589 38.327Z" fill="#FCE9C2"/>
<path d="M22.8499 39.462C25.5666 39.1444 29.4455 38.8671 31.9859 39.9194C32.0316 39.9385 32.0775 39.9559 32.1234 39.9741C30.922 40.6299 29.8103 41.0964 28.4405 41.2375C26.2958 41.4591 24.4964 40.8154 22.8499 39.462Z" fill="#F2D8A8"/>
<path d="M6.18491 12.172C6.31221 11.476 6.25401 10.8011 6.83513 10.3741C25.2784 10.8048 43.6911 12.7629 62.1386 13.1122C61.9951 15.115 61.89 17.12 61.8207 19.1267C54.0497 18.7772 45.937 19.5918 38.2491 18.4974C38.1045 18.3155 37.9542 18.1374 37.8009 17.9633C34.6982 14.4604 30.8105 14.1175 26.4404 13.8932C24.667 14.2245 23.0315 14.6038 21.3357 15.2406L19.8638 16.174C19.2741 16.7636 18.6384 17.3402 18.1118 17.9876C14.1294 18.2441 10.0096 17.9191 6.07053 18.5036C6.08447 16.8722 6.16574 15.269 6.29223 13.6432L6.18491 12.172Z" fill="#F9E5BB"/>
<path d="M6.29132 13.6429L9.8364 13.9578C12.8335 14.8022 18.1766 13.2677 19.8629 16.1737C19.2732 16.7633 18.6375 17.3399 18.1109 17.9872C14.1285 18.2438 10.0087 17.9188 6.06963 18.5033C6.08357 16.8719 6.16483 15.2687 6.29132 13.6429Z" fill="#FCE9C2"/>
<path d="M6.18494 12.1716C10.7666 12.1927 15.5847 12.6379 20.1446 13.1262C22.2494 13.3514 24.3275 13.8223 26.4404 13.8928C24.6671 14.2241 23.0315 14.6034 21.3357 15.2402L19.8638 16.1736C18.1775 13.2677 12.8345 14.8022 9.83734 13.9577L6.29226 13.6428L6.18494 12.1716Z" fill="#F2D8A8"/>
<path d="M9.83488 13.9578C11.8315 14.0419 20.0127 13.8632 21.1355 15.0209C21.2034 15.0914 21.2683 15.1672 21.3332 15.2403L19.8613 16.1737C18.175 13.2677 12.832 14.8023 9.83488 13.9578Z" fill="#F9E5BB"/>
<path d="M39.3051 21.7758L39.6315 20.6949C41.8673 19.839 57.8298 20.6003 61.6661 20.768C61.5645 23.0737 61.4877 25.3803 61.4328 27.6873C57.5771 26.84 40.1053 26.4643 38.3225 24.9275L38.2709 24.2838C38.8831 23.4216 39.1536 22.8295 39.3051 21.7758Z" fill="#F9E5BB"/>
<path d="M4.92459 37.4921C8.47445 37.2433 12.0335 37.7644 15.5887 37.6242C15.9991 38.8787 16.4557 39.9881 17.1028 41.1375L16.826 41.588C15.0729 42.6339 7.27878 41.9392 4.76704 41.9164L4.92459 37.4921Z" fill="#FCE9C2"/>
</svg>
