<svg width="68" height="68" viewBox="0 0 68 68" fill="none" xmlns="http://www.w3.org/2000/svg">
<path d="M14.5908 2.79958C17.317 2.65393 20.0575 2.44083 22.7861 2.38232C33.3585 1.80879 44.1408 0.74988 54.7164 0.728659C58.1106 0.554394 60.5519 1.34576 63.1304 3.62008C63.5877 4.46735 63.889 5.20997 63.9973 6.17141C64.5565 11.1453 67.0404 56.2903 66.4724 58.2905C66.0019 59.9464 64.7534 62.0128 63.1126 62.7575C62.7096 62.9398 62.3058 63.0471 61.8645 63.0535C60.4228 63.5432 59.0463 63.9293 57.5246 64.098C48.8594 65.0579 39.9298 65.1396 31.2142 65.5964C26.3564 65.8482 11.5249 67.3008 7.75974 66.4115C7.66129 66.3889 7.56227 66.3662 7.46438 66.3436C7.40538 66.3272 7.34723 66.3108 7.28879 66.2944C8.70626 65.5976 10.2389 65.3589 11.7727 65.0312C11.0109 65.0294 9.96599 65.1231 9.25441 64.8519C7.9469 64.3507 7.2724 62.4991 6.66752 61.3358L5.93051 59.9126C5.71671 56.3611 5.53301 52.8079 5.37886 49.2532L5.18297 47.9101L5.01585 47.5853C5.00771 46.7687 5.03234 45.9532 5.05486 45.1349L5.07185 43.6139C4.54571 41.1264 4.49515 38.6095 4.60541 36.079L4.57246 34.453C4.24408 32.8803 4.17355 31.0065 4.28806 29.4103L4.21211 28.393L4.18833 27.5658L4.10166 25.6508C3.18497 21.6686 3.1875 15.2636 3.19741 11.09L3.48841 8.97878C3.27794 7.44798 3.77616 5.97341 3.02825 4.61973C6.33319 2.5676 10.8023 2.94282 14.5908 2.79958Z" fill="black"/>
<path d="M54.7133 0.728464C58.1074 0.554198 60.5487 1.34556 63.1273 3.61988C63.5845 4.46716 63.8859 5.20977 63.9941 6.17121C64.5533 11.1451 67.0372 56.2901 66.4693 58.2903C65.9987 59.9462 64.7503 62.0126 63.1095 62.7572C62.7065 62.9396 62.3026 63.0469 61.8614 63.0533C60.4196 63.543 59.0432 63.9291 57.5214 64.0978C48.8562 65.0577 39.9267 65.1394 31.211 65.5962C26.3533 65.848 11.5217 67.3006 7.75659 66.4113C7.65814 66.3887 7.55913 66.366 7.46123 66.3434C7.40223 66.327 7.34408 66.3106 7.28564 66.2942C8.70311 65.5974 10.2357 65.3587 11.7695 65.031C11.0078 65.0292 9.96284 65.1229 9.25126 64.8517C7.94375 64.3505 7.26925 62.4989 6.66437 61.3356L5.92736 59.9124C5.71356 56.3609 5.52986 52.8077 5.37571 49.253L5.17982 47.9099L5.0127 47.5851C5.00456 46.7685 5.02919 45.953 5.05171 45.1347L5.0687 43.6137C4.54256 41.1262 4.492 38.6093 4.60227 36.0788C4.75078 36.7046 4.72274 36.9804 5.22092 37.4089C7.59586 37.9845 12.63 37.1418 14.8637 36.2269C15.7174 35.8773 15.9021 35.7539 16.2626 34.9052L17.6464 39.5335L18.6714 42.7813L19.7094 46.1341C20.2044 46.9446 20.7859 47.7367 21.6592 48.1662C22.6005 48.6282 23.6545 48.698 24.635 48.3131C25.9545 47.7966 26.5085 46.7671 27.0543 45.5546L27.7685 42.7131C28.8013 43.3593 35.8639 43.5255 37.2875 43.1869C37.5187 43.1331 37.7441 43.0657 37.9609 42.9682L38.6211 44.9039C38.6598 44.988 38.6964 45.0723 38.7374 45.1563C39.2526 46.1965 40.3593 47.3418 41.5135 47.6481C42.2765 47.8499 42.9401 47.6845 43.6135 47.3074C45.759 46.0973 46.1909 43.8486 46.722 41.6781C47.3399 42.1987 47.6109 42.4319 48.468 42.3925C50.188 42.3107 51.5942 41.7924 53.3414 42.2205L53.6581 42.0816C55.8897 40.664 59.4658 41.5771 61.9266 40.6561L61.8097 38.0416L61.7038 36.0045C61.5625 34.2942 61.5009 32.613 61.504 30.8968C61.1832 29.7506 61.2577 28.2607 61.1988 27.0668L61.1188 25.0437C61.1098 22.7075 60.6218 20.4459 60.7838 18.0985L60.4671 16.7701C60.8677 14.889 60.5078 12.4093 60.3441 10.4867C60.2281 9.76573 60.2955 9.02657 60.3223 8.29928C60.3474 7.96836 60.3646 7.63509 60.3388 7.30323C60.2096 5.64784 59.3107 4.77257 58.0866 3.77261C57.0396 3.17162 56.2136 2.07577 55.1331 1.56602C53.7503 0.913981 52.2742 1.66498 50.9477 2.13942C52.0603 0.944185 53.219 1.10163 54.7133 0.728464Z" fill="#F9E5BB"/>
<path d="M54.7153 0.728438C58.1094 0.554172 60.5507 1.34554 63.1293 3.61985C63.5865 4.46713 63.8879 5.20974 63.9961 6.17119C64.5553 11.145 67.0392 56.2901 66.4713 58.2902C66.0007 59.9462 64.7523 62.0126 63.1115 62.7572C62.7085 62.9395 62.3046 63.0468 61.8634 63.0533C60.4216 63.5429 59.0452 63.9291 57.5234 64.0978C48.8582 65.0577 39.9287 65.1394 31.213 65.5961C26.3553 65.8479 11.5237 67.3006 7.7586 66.4113C7.66014 66.3886 7.56113 66.366 7.46323 66.3434C7.40424 66.327 7.34608 66.3106 7.28765 66.2942C8.70512 65.5974 10.2377 65.3587 11.7715 65.031C11.0098 65.0292 9.96485 65.1229 9.25327 64.8517C7.94575 64.3505 7.27126 62.4989 6.66638 61.3356L5.92936 59.9124C6.10987 59.7834 6.43107 59.4803 6.62663 59.4145C8.63864 58.7505 20.8466 58.5859 23.6432 58.4393L48.2697 57.1293C53.0014 56.8785 57.8133 56.4457 62.5496 56.4948L62.6393 53.486C61.181 53.6013 59.7145 53.6337 58.2527 53.6881C59.5305 53.5627 60.8297 53.478 62.0848 53.2038L62.1695 52.5101C63.176 50.89 62.2255 46.0653 62.1566 44.0346L61.9286 40.6561L61.8117 38.0416L61.7058 36.0045C61.5645 34.2942 61.5029 32.613 61.506 30.8968C61.1852 29.7505 61.2597 28.2606 61.2008 27.0668L61.1208 25.0437C61.1118 22.7075 60.6238 20.4459 60.7858 18.0985L60.4691 16.7701C60.8698 14.889 60.5098 12.4092 60.3461 10.4866C60.2301 9.7657 60.2975 9.02655 60.3243 8.29925C60.3494 7.96834 60.3666 7.63506 60.3408 7.3032C60.2116 5.64781 59.3127 4.77254 58.0886 3.77258C57.0416 3.17159 56.2156 2.07574 55.1351 1.56599C53.7523 0.913954 52.2762 1.66496 50.9497 2.13939C52.0623 0.944159 53.221 1.10161 54.7153 0.728438Z" fill="#A39B89"/>
<path d="M5.92937 59.913C6.10988 59.784 6.43108 59.4809 6.62664 59.4151C8.63865 58.7511 20.8466 58.5865 23.6432 58.4399L48.2697 57.1299C53.0014 56.8791 57.8134 56.4463 62.5496 56.4954L62.8286 57.7536C61.8087 59.0132 59.5711 60.9146 57.9211 61.1039C54.7595 61.4641 51.3221 60.6049 48.1104 60.6287C42.2363 60.6754 35.7 61.5237 29.8648 62.1852L29.2642 63.3227L28.7495 63.3831C28.2617 62.9445 27.9807 62.4952 27.6508 61.9344C26.9519 61.5792 26.2397 61.7749 25.4906 61.8614C22.2504 62.2369 19.2846 62.0394 16.0695 62.1995C14.0157 62.3016 11.648 62.8926 9.62147 62.5764C8.5537 62.41 7.59801 61.8487 6.66639 61.3361L5.92937 59.913Z" fill="#FCE9C2"/>
<path d="M54.7174 0.728402C58.1115 0.554136 60.5529 1.3455 63.1314 3.61982C62.3869 8.45274 62.906 13.8625 63.1363 18.7377L64.3858 42.7229C64.6012 46.7635 65.0491 50.9309 64.9602 54.9735C64.9348 56.142 64.9464 57.9423 64.2169 58.9032L62.8307 57.753L62.5518 56.4948L62.6414 53.4859C61.1831 53.6013 59.7166 53.6337 58.2548 53.688C59.5326 53.5627 60.8318 53.4779 62.0869 53.2037L62.1716 52.5101C63.1782 50.8899 62.2277 46.0653 62.1587 44.0346L61.9308 40.6561L61.8139 38.0415L61.7079 36.0045C61.5666 34.2941 61.505 32.613 61.5082 30.8967C61.1873 29.7505 61.2618 28.2606 61.2029 27.0668L61.1229 25.0436C61.1139 22.7074 60.6259 20.4458 60.788 18.0985L60.4713 16.77C60.8719 14.889 60.5119 12.4092 60.3482 10.4866C60.2322 9.76567 60.2997 9.02651 60.3264 8.29922C60.3515 7.9683 60.3687 7.63503 60.343 7.30317C60.2137 5.64778 59.3148 4.7725 58.0907 3.77255C57.0438 3.17156 56.2177 2.07571 55.1373 1.56595C53.7545 0.913919 52.2783 1.66492 50.9518 2.13935C52.0645 0.944123 53.2232 1.10157 54.7174 0.728402Z" fill="#DBC69E"/>
<path d="M11.7686 65.0311C13.1525 64.5639 15.6908 63.6166 17.0683 63.5917C18.2876 63.5667 19.4887 64.3208 20.7717 64.3369C25.9337 64.4082 33.3616 63.7438 38.6515 63.3749C41.9843 63.1446 45.1995 61.9562 48.5266 61.8041C51.5361 61.663 56.4499 63.173 58.7389 62.7279C59.9243 62.499 61.3323 61.6054 62.3887 61.0165C62.3502 61.5243 62.199 61.5933 61.8143 61.9386C61.4452 62.2665 61.0211 62.5055 60.5932 62.7502L61.8604 63.0534C60.4187 63.5431 59.0422 63.9292 57.5205 64.0979C48.8553 65.0578 39.9257 65.1395 31.2101 65.5963C26.3524 65.8481 11.5208 67.3007 7.75565 66.4114C7.6572 66.3888 7.55818 66.3661 7.46029 66.3435C7.40129 66.3271 7.34314 66.3107 7.2847 66.2943C8.70217 65.5975 10.2348 65.3588 11.7686 65.0311Z" fill="#AEA08F"/>
<path d="M16.2627 34.9055L17.6464 39.5338L18.6714 42.7816L18.4137 43.6511C15.9624 44.9468 8.23978 44.6928 5.05172 45.1351L5.06871 43.614C4.54256 41.1265 4.492 38.6097 4.60227 36.0791C4.75078 36.7049 4.72275 36.9807 5.22093 37.4093C7.59586 37.9848 12.63 37.1421 14.8637 36.2272C15.7174 35.8776 15.9021 35.7542 16.2627 34.9055Z" fill="#FCE9C2"/>
<path d="M16.2627 34.9055L17.6464 39.5338C15.3891 39.7883 6.30727 40.0475 5.10965 41.1579C5.07445 41.9796 5.0547 42.7921 5.06871 43.614C4.54256 41.1265 4.492 38.6097 4.60227 36.0791C4.75078 36.7049 4.72275 36.9807 5.22093 37.4093C7.59586 37.9848 12.63 37.1421 14.8637 36.2272C15.7174 35.8776 15.9021 35.7542 16.2627 34.9055Z" fill="#EED2A3"/>
<path d="M53.6617 42.0815C55.8933 40.6639 59.4694 41.577 61.9302 40.656L62.1582 44.0345C62.2271 46.0652 63.1776 50.8899 62.1711 52.51C60.1058 51.5455 55.9363 53.1897 53.5251 52.21L53.7485 51.812C54.0709 52.0341 54.362 51.9883 54.7395 51.9852C55.2485 51.5166 55.2571 50.6463 55.3591 49.9907L56.9148 49.0088L55.6962 48.1499L55.259 47.9783C54.8029 46.5349 54.9344 44.7772 54.896 43.2702C54.8183 42.9352 54.668 42.6485 54.5252 42.3392L53.6617 42.0815Z" fill="#F2D8A8"/>
<path d="M53.6592 42.0817C55.8908 40.6641 59.4669 41.5772 61.9278 40.6562L62.1557 44.0348C61.9912 44.4047 61.8316 44.5659 61.5204 44.8239C59.5226 44.9759 57.4212 45.2305 55.4377 44.8982L54.8935 43.2704C54.8158 42.9354 54.6655 42.6487 54.5227 42.3394L53.6592 42.0817Z" fill="#F9E5BB"/>
<path d="M62.1561 48.7182C62.1705 49.7763 62.243 50.8146 62.3445 51.8654C60.5485 52.0067 57.2262 52.7339 55.7846 51.5422C55.4942 51.3017 55.411 50.3807 55.3568 49.9917L56.9125 49.0097C58.628 48.7308 60.4206 48.7703 62.1561 48.7182Z" fill="#F9E5BB"/>
<path d="M55.6945 48.1507C56.2216 47.206 56.6091 46.93 57.6469 46.6422C59.1754 46.2202 60.1494 46.2915 61.6439 46.7662C62.1762 47.4525 62.104 47.8759 62.1567 48.718C60.4212 48.77 58.6287 48.7306 56.9131 49.0095L55.6945 48.1507Z" fill="#FCE9C2"/>
<path d="M18.676 42.7812L19.714 46.1339L18.8808 46.5889C14.3829 47.1247 9.70826 47.8199 5.18442 47.9097L5.01731 47.585C5.00917 46.7684 5.0338 45.9528 5.05632 45.1346C8.24438 44.6924 15.967 44.9463 18.4183 43.6506L18.676 42.7812Z" fill="#EED2A3"/>
<path d="M53.6629 42.082L54.5264 42.3397C54.6692 42.649 54.8195 42.9357 54.8972 43.2707C54.9356 44.7777 54.8042 46.5355 55.2602 47.9789L55.6974 48.1505L56.9161 49.0093L55.3604 49.9913C55.2583 50.6469 55.2497 51.5172 54.7407 51.9857C54.3633 51.9889 54.0722 52.0347 53.7497 51.8126L53.444 50.3363C52.6694 49.6515 50.8204 50.0235 49.6905 49.6436C49.4098 49.3638 49.2074 49.2716 49.1619 48.8571C48.9892 47.2793 52.2942 43.5266 53.3463 42.2209L53.6629 42.082Z" fill="black"/>
<path d="M52.7976 45.107C53.1202 45.3708 53.2403 45.6201 53.3494 46.0174C53.5009 46.568 53.6288 47.195 53.3041 47.7067C52.7438 48.5864 52.2308 48.5383 51.2832 48.7408L50.9072 48.2353C51.147 47.1388 52.1439 46.0222 52.7976 45.107Z" fill="#EED2A3"/>
<path d="M27.7687 42.7133C28.8015 43.3595 35.8641 43.5257 37.2878 43.1871C37.5189 43.1333 37.7443 43.0659 37.9611 42.9684L38.6213 44.9041L37.8728 45.0379C35.4177 45.1249 32.9539 45.3874 30.5049 45.5852C29.3566 45.6037 28.2031 45.5669 27.0545 45.5548L27.7687 42.7133Z" fill="#EED2A3"/>
<path d="M5.1791 47.9107C9.70294 47.8209 14.3776 47.1257 18.8755 46.5899L19.3497 47.371C18.9678 48.0051 18.5542 48.1074 17.8477 48.2639C14.9977 48.9052 8.21104 49.5082 5.37499 49.2538L5.1791 47.9107Z" fill="#FCE9C2"/>
<path d="M30.5063 45.5857C32.9553 45.3879 35.4191 45.1254 37.8742 45.0384C37.9968 45.421 37.9949 45.699 37.9854 46.0942C37.8661 46.1754 37.6903 46.3042 37.5498 46.3699C35.6238 47.2462 30.1826 47.548 28.2001 46.9405L28.0357 46.5878C28.663 45.8324 29.5866 45.7756 30.5063 45.5857Z" fill="#FCE9C2"/>
<path d="M14.5908 2.79958C17.317 2.65393 20.0575 2.44083 22.7861 2.38232C33.3585 1.80879 44.1408 0.74988 54.7164 0.72866C53.2222 1.10183 52.0635 0.944381 50.9508 2.13961C52.2774 1.66518 53.7535 0.914176 55.1363 1.56621C56.2167 2.07596 57.0428 3.17181 58.0897 3.77281C59.3138 4.77276 60.2127 5.64803 60.342 7.30342C60.3678 7.63528 60.3506 7.96856 60.3254 8.29947C60.2987 9.02677 60.2312 9.76593 60.3473 10.4868C60.5109 12.4094 60.8709 14.8892 60.4703 16.7703C57.5578 16.9565 53.9903 16.8044 51.2057 17.6268C50.733 16.6403 50.0728 15.8225 49.0105 15.4297C48.2911 15.1639 47.5269 15.1903 46.8395 15.5359C45.8368 16.0398 45.5448 16.8474 45.19 17.8265C44.9804 18.8766 44.7394 19.9316 44.6143 20.9948C44.4393 20.5523 44.415 20.1843 43.9232 20.0002C42.1738 19.3449 37.737 19.9015 36.0848 20.7906L35.3786 18.638C34.7239 17.5429 33.8286 16.556 32.5457 16.2247C31.159 15.8667 29.9956 16.377 28.8085 17.0312C28.271 17.815 27.7811 18.5254 27.4747 19.4324C24.3137 19.5948 21.1808 19.9654 18.0069 20.0959C17.7393 19.1342 17.2197 18.2905 16.7349 17.4246C15.5939 17.0829 14.4994 16.7314 13.3835 17.3905C12.9489 17.6472 12.6347 18.03 12.4561 18.4998L11.9765 19.1141C9.51417 19.4836 6.30202 19.738 3.85069 19.4594C4.00975 21.5932 4.23338 23.5029 4.10166 25.6508C3.18497 21.6686 3.1875 15.2636 3.19741 11.09L3.48841 8.97878C3.27794 7.44798 3.77616 5.9734 3.02825 4.61973C6.33319 2.5676 10.8023 2.94282 14.5908 2.79958Z" fill="#F6DEB2"/>
<path d="M14.588 2.79968C17.3142 2.65402 20.0548 2.44092 22.7833 2.38241C33.3557 1.80888 44.1381 0.749973 54.7137 0.728753C53.2195 1.10192 52.0608 0.944474 50.9481 2.13971C52.2746 1.66527 53.7508 0.914269 55.1335 1.5663C56.214 2.07606 57.0401 3.17191 58.087 3.7729C59.3111 4.77286 60.21 5.64813 60.3393 7.30352C60.365 7.63538 60.3478 7.96865 60.3227 8.29957C54.1 8.02096 47.5423 8.7901 41.3167 9.11665L3.19468 11.0901L3.48569 8.97887C3.27521 7.44807 3.77343 5.9735 3.02553 4.61982C6.33046 2.56769 10.7996 2.94292 14.588 2.79968Z" fill="#FCE9C2"/>
<path d="M22.7876 2.38221C33.36 1.80868 44.1423 0.749777 54.7179 0.728557C53.2237 1.10173 52.065 0.944278 50.9523 2.13951C50.5899 2.43474 50.2215 2.72251 49.8725 3.03317C48.9482 3.85641 47.6566 3.93494 46.4765 4.10045C41.3357 4.33735 36.164 4.47665 31.0402 4.95667C29.0756 5.16079 26.6451 5.66946 24.7084 5.37494C24.006 5.34839 23.2878 5.39908 22.5846 5.41648C22.1145 5.28799 21.7395 4.9547 21.3524 4.67207C21.9679 4.01063 22.7857 3.34359 22.7876 2.38221Z" fill="#CDB795"/>
<path d="M25.0196 3.17791C25.7527 2.37664 26.9936 2.41832 28.0085 2.37124C29.0965 2.32562 30.1852 2.29412 31.2741 2.27652C31.911 2.88844 32.3628 3.1574 32.5811 4.02247C32.0663 4.57247 31.8331 4.56942 31.0854 4.75117L31.038 4.95652C29.0735 5.16064 26.643 5.66931 24.7062 5.37479L25.0196 3.17791Z" fill="#D1BA9A"/>
<path d="M25.0196 3.17804C26.4989 3.18667 27.2753 3.30882 28.4887 4.15815C29.4779 4.85055 29.9332 4.7814 31.0854 4.7513L31.038 4.95665C29.0735 5.16077 26.643 5.66944 24.7062 5.37493L25.0196 3.17804Z" fill="#EED2A3"/>
<path d="M3.02378 4.62023C6.32872 2.5681 10.7978 2.94333 14.5863 2.80009L15.1611 3.19739C15.1219 3.84086 15.0791 4.28441 14.7756 4.85975L15.0115 5.51713L14.5282 5.3029C14.9318 5.53132 15.2699 5.54 15.7201 5.56588L15.6948 5.75923C13.3009 5.85745 5.98776 5.34754 4.25609 7.16882C3.84442 7.6017 3.65773 8.41797 3.48395 8.97928C3.27347 7.44848 3.77169 5.97391 3.02378 4.62023Z" fill="#D9C39E"/>
<path d="M50.9499 2.13935C52.2764 1.66492 53.7525 0.913911 55.1353 1.56595C56.2158 2.0757 57.0418 3.17155 58.0888 3.77254C54.2123 3.85648 50.354 4.07064 46.4741 4.10028C47.6541 3.93478 48.9458 3.85624 49.87 3.033C50.219 2.72235 50.5874 2.43458 50.9499 2.13935Z" fill="#F2D8A8"/>
<path d="M14.5903 2.79968C17.3165 2.65402 20.0571 2.44092 22.7856 2.38241C22.7838 3.34379 21.9659 4.01083 21.3505 4.67226C20.9705 3.90737 20.9754 3.81903 20.2029 3.47405C18.26 3.42497 17.4142 5.33933 15.7242 5.56546C15.2739 5.53959 14.9358 5.5309 14.5323 5.30249L15.0156 5.51672L14.7796 4.85934C15.0832 4.284 15.1259 3.84045 15.1651 3.19698L14.5903 2.79968Z" fill="#DBC69E"/>
<path d="M15.7238 5.56578C17.4138 5.33964 18.2596 3.42528 20.2025 3.47437C20.975 3.81934 20.9701 3.90768 21.3501 4.67258C21.7372 4.95521 22.1122 5.2885 22.5823 5.41699C20.3044 5.84512 18.0064 5.99029 15.6984 5.75913L15.7238 5.56578Z" fill="#F6DEB2"/>
<path d="M3.19742 11.0907L41.3194 9.1173C47.545 8.79075 54.1027 8.02161 60.3254 8.30022C60.2987 9.02752 60.2312 9.76667 60.3473 10.4876L60.0159 10.6453C43.9965 11.5813 27.9726 12.4372 11.9448 13.2129C9.53632 13.288 5.96225 13.0101 3.70694 13.805C3.46708 15.031 4.08458 16.1841 3.7724 17.3313L3.8507 19.4601C4.00976 21.5939 4.23339 23.5037 4.10167 25.6516C3.18498 21.6694 3.18751 15.2643 3.19742 11.0907Z" fill="#EED2A3"/>
<path d="M11.9411 13.2121C27.9689 12.4363 43.9928 11.5804 60.0123 10.6445C60.1343 10.9941 60.1551 11.2537 60.1421 11.6184C60.1258 12.0759 60.1065 12.0435 59.7652 12.3565C54.4041 12.3265 49.0096 12.8757 43.6592 13.1825L19.0997 14.4416C14.7155 14.6736 9.21756 15.4881 4.89899 15.036C4.52829 14.9974 4.5166 14.8329 4.29166 14.5568C5.39474 13.349 10.1834 13.5074 11.9411 13.2121Z" fill="#FCE9C2"/>
<path d="M16.7361 17.4251C18.2002 15.8246 21.8675 15.9406 23.982 15.8398C25.2781 15.7777 27.4077 15.4696 28.4716 16.2382L28.8097 17.0316C28.2722 17.8154 27.7823 18.5259 27.476 19.4329C24.3149 19.5952 21.1821 19.9659 18.0081 20.0964C17.7405 19.1347 17.2209 18.291 16.7361 17.4251Z" fill="#FCE9C2"/>
<path d="M3.77008 17.3306C6.13328 16.9942 9.371 16.1397 11.6011 17.1987C11.9327 17.6232 12.206 18.0216 12.4538 18.4999L11.9742 19.1142C9.51187 19.4836 6.29971 19.7381 3.84838 19.4595L3.77008 17.3306Z" fill="#FCE9C2"/>
<path d="M35.3799 18.6381C38.6689 18.4855 41.9192 18.1748 45.1913 17.8265C44.9816 18.8766 44.7406 19.9317 44.6155 20.9948C44.4406 20.5524 44.4162 20.1844 43.9245 20.0003C42.1751 19.345 37.7383 19.9015 36.0861 20.7907L35.3799 18.6381Z" fill="#EED2A3"/>
<path d="M51.2029 17.6272C53.9876 16.8048 57.5551 16.9569 60.4675 16.7707L60.7842 18.0991C60.6222 20.4465 61.1102 22.7081 61.1191 25.0443L61.1992 27.0674C61.2581 28.2612 61.1836 29.7511 61.5044 30.8974C61.5013 32.6136 61.5628 34.2948 61.7042 36.0051L61.8101 38.0422L61.927 40.6567C59.4662 41.5777 55.8901 40.6646 53.6585 42.0822L53.3418 42.221C51.5946 41.7929 50.1884 42.3113 48.4684 42.3931C47.6113 42.4324 47.3403 42.1993 46.7224 41.6787L46.9892 39.7193C47.1879 38.7751 47.4024 37.8551 47.687 36.9326L47.6599 35.8766C48.254 34.504 48.3961 32.6821 48.6789 31.2046L49.4504 27.3863L50.0023 24.5689C50.371 22.7348 50.6813 20.8894 50.933 19.0359L51.2029 17.6272Z" fill="#FCE9C2"/>
<path d="M51.2078 17.627C53.9924 16.8046 57.5599 16.9567 60.4724 16.7704L60.7891 18.0989C60.627 20.4463 61.115 22.7079 61.124 25.044C58.5694 24.6352 51.719 25.8357 50.0072 24.5687C50.3759 22.7346 50.6861 20.8891 50.9378 19.0357L51.2078 17.627Z" fill="#F9E5BB"/>
<path d="M51.2076 17.6269C53.9923 16.8046 57.5597 16.9567 60.4722 16.7704L60.7889 18.0989C57.9374 17.7253 53.7861 18.4539 50.9377 19.0356L51.2076 17.6269Z" fill="#EED2A3"/>
<path d="M47.6869 36.9319C48.2737 37.4781 48.3136 37.5094 49.1354 37.483C53.3128 37.353 57.5414 36.0347 61.7041 36.0044L61.8101 38.0415L61.927 40.656C59.4661 41.577 55.8901 40.664 53.6584 42.0815L53.3418 42.2204C51.5945 41.7923 50.1884 42.3106 48.4684 42.3924C47.6112 42.4318 47.3402 42.1986 46.7223 41.678L46.9891 39.7187C47.1879 38.7745 47.4024 37.8545 47.6869 36.9319Z" fill="#FCE9C2"/>
<path d="M47.6851 36.9321C48.2719 37.4782 48.3118 37.5095 49.1336 37.4831C53.311 37.3531 57.5396 36.0349 61.7023 36.0046L61.8083 38.0417C61.196 37.768 48.5789 39.4325 46.9873 39.7188C47.1861 38.7746 47.4006 37.8546 47.6851 36.9321Z" fill="#F2D8A8"/>
<path d="M49.4561 27.386L50.0081 24.5685C51.7199 25.8356 58.5703 24.6351 61.1249 25.0439L61.2049 27.0671C61.2638 28.2609 61.1893 29.7508 61.5102 30.897C59.9253 30.016 52.8963 30.4578 51.0257 30.9843C50.7258 31.0687 50.5264 31.1781 50.2593 31.3349L50.2267 31.7968C50.5546 31.972 50.8688 32.155 51.2289 32.2571C50.7153 32.309 49.9867 32.4528 49.4946 32.2799C48.9641 32.0937 48.8956 31.6671 48.6847 31.2043L49.4561 27.386Z" fill="#F6DEB2"/>
<path d="M49.4507 27.3862L50.0027 24.5688C51.7145 25.8358 58.5649 24.6353 61.1195 25.0442L61.1995 27.0673C57.3812 26.8708 53.2962 27.3286 49.4507 27.3862Z" fill="#EED2A3"/>
<path d="M48.6774 31.2044C48.8883 31.6672 48.9568 32.0938 49.4873 32.28C49.9794 32.4529 50.708 32.3091 51.2216 32.2572C53.5592 32.1908 55.9312 32.982 58.2627 33.193C58.9117 33.2518 59.993 32.8714 60.5155 33.1447L60.5738 33.4898C58.9656 35.3941 50.4883 35.289 47.6583 35.8764C48.2524 34.5038 48.3945 32.6819 48.6774 31.2044Z" fill="#EED2A3"/>
<path d="M3.85045 19.4597C6.30178 19.7384 9.51393 19.4839 11.9763 19.1145C12.0049 21.2606 12.6541 23.2211 13.2933 25.2519L14.5943 29.458L15.2175 31.3448C15.5635 32.5292 15.8772 33.735 16.2656 34.9057C15.905 35.7545 15.7203 35.8778 14.8666 36.2274C12.6329 37.1423 7.59876 37.985 5.22383 37.4095C4.72565 36.9809 4.75369 36.7052 4.60517 36.0793L4.57222 34.4533C4.24383 32.8806 4.1733 31.0068 4.28782 29.4106L4.21187 28.3933L4.18808 27.5661L4.10141 25.6511C4.23313 23.5032 4.00951 21.5935 3.85045 19.4597Z" fill="#FCE9C2"/>
<path d="M3.84569 19.4599C6.29702 19.7386 9.50917 19.4841 11.9715 19.1147C12.0002 21.2608 12.6493 23.2213 13.2885 25.2521C11.3577 24.6972 6.99944 25.5576 4.851 25.7571L4.42313 26.0675C4.38241 26.5546 4.35705 26.988 4.42802 27.4729L4.18333 27.5663L4.09666 25.6513C4.22838 23.5034 4.00475 21.5937 3.84569 19.4599Z" fill="#F6DEB2"/>
<path d="M4.43177 27.473C4.3608 26.9882 4.38616 26.5547 4.42687 26.0676L4.85475 25.7573C7.00319 25.5577 11.3614 24.6973 13.2923 25.2523L14.5933 29.4583C14.4813 29.5787 14.4653 29.609 14.3039 29.7077C13.2537 30.3508 6.01322 30.3318 4.74409 30.0137C4.52005 29.9573 4.40172 29.6089 4.28681 29.4109L4.21086 28.3936L4.18707 27.5664L4.43177 27.473Z" fill="#FCE9C2"/>
<path d="M4.43177 27.4731C6.76307 27.3868 9.55936 27.0476 11.7922 27.5895C11.8633 27.6069 11.9386 27.5877 12.012 27.5866C9.36067 28.2058 6.77742 27.9004 4.21086 28.3937L4.18708 27.5665L4.43177 27.4731Z" fill="#F2D8A8"/>
<path d="M4.57225 34.4536C4.24386 32.8809 4.17333 31.0071 4.28785 29.4109C4.40276 29.6088 4.52108 29.9573 4.74512 30.0136C6.01426 30.3317 13.2547 30.3508 14.3049 29.7077C14.4663 29.6089 14.4824 29.5786 14.5943 29.4582L15.2175 31.3451C11.8842 31.196 8.28543 30.9113 4.98384 31.4006L4.63274 31.7306C4.60456 32.638 4.58449 33.5459 4.57225 34.4536Z" fill="#F2D8A8"/>
<path d="M36.0872 20.79C37.7395 19.9009 42.1762 19.3443 43.9256 19.9996C44.4174 20.1837 44.4417 20.5517 44.6167 20.9942L43.8669 25.2521L43.3262 28.6362C43.1978 28.1441 43.1202 27.8516 42.7351 27.4852C41.2025 27.0734 39.8741 27.4003 38.4165 27.9339L37.5349 25.2035L36.0872 20.79Z" fill="#F9E5BB"/>
<path d="M37.535 25.2036C39.6609 25.6288 41.7297 25.2372 43.867 25.2522L43.3263 28.6363C43.1979 28.1442 43.1203 27.8517 42.7352 27.4853C41.2026 27.0735 39.8742 27.4004 38.4166 27.934L37.535 25.2036Z" fill="#EED2A3"/>
<path d="M18.0027 20.096C21.1766 19.9655 24.3095 19.5948 27.4705 19.4325L26.7207 22.8956L26.1251 25.7111C24.1152 26.091 21.8876 26.5985 19.8344 26.5197L19.1375 23.9944L18.0027 20.096Z" fill="#F6DEB2"/>
<path d="M18.0027 20.096C21.1766 19.9655 24.3095 19.5948 27.4705 19.4325L26.7207 22.8956L26.4513 21.3056C25.4189 20.6791 20.9607 21.53 19.7079 21.786C19.4933 21.8298 19.3092 21.9056 19.1078 21.9873C19.0612 22.6661 19.0882 23.3161 19.1375 23.9944L18.0027 20.096Z" fill="#EED2A3"/>
<path d="M28.8597 37.6542C31.3349 37.7896 33.7616 37.2527 36.2198 37.635C36.7911 39.4112 37.3269 41.2145 37.9625 42.9681C37.7457 43.0656 37.5203 43.133 37.2892 43.1868C35.8655 43.5255 28.8029 43.3592 27.7701 42.713L28.8597 37.6542Z" fill="#F6DEB2"/>
<path d="M19.8336 26.5198C21.8867 26.5986 24.1144 26.0911 26.1242 25.7112C25.1784 30.0053 24.313 34.3357 23.2679 38.606C22.0877 34.5874 20.9427 30.5583 19.8336 26.5198Z" fill="#F6DEB2"/>
<path d="M38.4136 27.9348C39.8712 27.4013 41.1996 27.0743 42.7322 27.4862C43.1172 27.8525 43.1949 28.145 43.3232 28.6371C42.7298 31.751 42.1515 34.8547 41.7154 37.9948C40.7013 34.6175 39.53 31.2804 38.4136 27.9348Z" fill="#F6DEB2"/>
<path d="M31.5359 25.7405L32.3986 25.9618C33.0285 28.2488 33.8386 30.4893 34.6052 32.7338C34.3182 33.5501 34.3527 33.655 33.5544 34.0581C32.7045 34.4873 31.6693 34.5426 30.7539 34.2854C30.2665 34.1484 29.9805 33.8644 29.7667 33.417C30.2694 30.8481 30.9417 28.2914 31.5359 25.7405Z" fill="#F6DEB2"/>
<path d="M34.6015 32.7347L36.2184 37.6356C33.7602 37.2534 31.3335 37.7902 28.8584 37.6548L29.763 33.4179C29.9768 33.8653 30.2628 34.1493 30.7502 34.2863C31.6656 34.5435 32.7008 34.4881 33.5506 34.059C34.349 33.6559 34.3144 33.5509 34.6015 32.7347Z" fill="#EED2A3"/>
<path d="M31.5316 25.7419L31.6417 24.8307L31.9376 24.8144C32.1017 25.1951 32.2707 25.5667 32.394 25.9632L31.5316 25.7419Z" fill="#BFAC8C"/>
<path d="M4.57916 63.36C3.80063 62.2753 3.4945 61.2714 3.28696 59.9567C2.74601 56.5306 2.77449 52.9247 2.57621 49.4613L1.572 30.5131C1.2748 23.6902 0.412131 16.6215 0.592365 9.81003C0.651913 7.57032 1.42347 6.15925 3.02764 4.61978C3.77555 5.97345 3.27733 7.44802 3.4878 8.97882L3.1968 11.09C3.18689 15.2636 3.18436 21.6687 4.10105 25.6508L4.18772 27.5658L4.2115 28.393L4.28745 29.4103C4.17294 31.0065 4.24347 32.8804 4.57185 34.4531L4.60481 36.079C4.49454 38.6096 4.5451 41.1264 5.07124 43.6139L5.05425 45.135C5.03173 45.9532 5.0071 46.7688 5.01524 47.5854L5.18236 47.9101L5.37825 49.2532C5.5324 52.8079 5.7161 56.3611 5.9299 59.9127L6.66691 61.3358C7.27179 62.4991 7.94629 64.3508 9.2538 64.852C9.96538 65.1232 11.0103 65.0295 11.772 65.0313C10.2382 65.359 8.70565 65.5977 7.28818 66.2945C6.01033 65.65 5.12205 64.6739 4.57916 63.36Z" fill="#BFAC8C"/>
<path d="M5.01274 47.5858L5.17986 47.9105L5.37575 49.2537C5.5299 52.8084 5.7136 56.3615 5.9274 59.9131L6.66441 61.3363C7.2693 62.4996 7.94379 64.3512 9.25131 64.8524C9.96288 65.1236 11.0078 65.0299 11.7695 65.0317C10.2357 65.3594 8.70315 65.5981 7.28568 66.2949C6.00783 65.6504 5.11956 64.6743 4.57666 63.3605C4.48484 62.7817 4.38299 62.2145 4.37186 61.6287L5.08799 61.1549C6.19527 58.8486 5.08145 50.4808 5.01274 47.5858Z" fill="#CDB795"/>
</svg>
